{"glyphs":{"0":{"ha":1169,"x_min":49,"x_max":1121,"o":"m 585 1054 q 855 985 732 1054 q 1049 792 978 915 q 1121 517 1121 669 l 1121 517 q 1049 247 1121 371 q 853 51 976 124 q 585 -21 731 -21 l 585 -21 q 315 49 438 -21 q 120 242 192 119 q 49 517 49 365 l 49 517 q 121 786 49 663 q 316 982 193 910 q 585 1054 439 1054 l 585 1054 z m 308 699 q 289 547 289 621 l 289 547 q 304 424 289 482 l 304 424 q 338 388 314 388 l 338 388 q 388 415 357 388 l 388 415 l 721 736 q 767 811 767 779 l 767 811 q 749 850 767 832 l 749 850 q 633 913 707 892 l 633 913 q 568 921 600 921 l 568 921 q 406 860 476 921 q 308 699 336 800 l 308 699 z m 858 363 q 878 517 878 440 l 878 517 q 869 607 878 564 l 869 607 q 854 641 865 629 q 826 653 843 653 l 826 653 q 771 624 803 653 l 771 624 l 444 308 q 413 247 413 279 l 413 247 q 444 189 413 217 l 444 189 q 535 147 479 161 l 535 147 q 601 139 571 139 l 601 139 q 763 200 693 139 q 858 363 833 261 l 858 363 z "},"1":{"ha":906,"x_min":56,"x_max":892,"o":"m 126 -7 q 72 10 89 -7 q 56 58 56 26 l 56 58 q 73 110 56 92 q 131 132 90 128 l 131 132 q 193 138 142 133 q 290 158 244 142 q 357 204 336 175 l 357 204 q 382 285 378 233 q 386 450 386 338 l 386 450 l 386 585 q 376 658 386 636 q 343 679 367 679 l 343 679 q 285 664 324 679 l 285 664 q 160 633 207 633 l 160 633 q 113 647 129 633 q 97 688 97 661 l 97 688 q 190 785 97 735 l 190 785 q 323 869 264 824 q 428 975 382 914 l 428 975 q 482 1040 461 1021 q 533 1060 503 1060 l 533 1060 q 579 1038 568 1060 q 590 971 590 1015 l 590 971 l 589 915 l 589 450 q 593 285 589 338 q 618 204 597 233 l 618 204 q 690 153 643 167 q 775 138 738 140 q 822 133 813 135 l 822 133 q 876 111 861 129 q 892 60 892 93 l 892 60 q 875 10 892 26 q 821 -7 858 -7 l 821 -7 q 746 -6 786 -7 q 685 -3 706 -4 l 685 -3 q 488 4 594 4 l 488 4 q 278 -1 397 4 l 278 -1 q 126 -7 172 -7 l 126 -7 z "},"2":{"ha":1039,"x_min":14,"x_max":976,"o":"m 156 0 q 58 7 89 0 q 17 43 28 14 l 17 43 l 14 54 q 47 104 14 75 q 157 183 79 133 l 157 183 q 622 681 622 485 l 622 681 q 576 805 622 757 q 457 853 531 853 l 457 853 q 303 783 368 853 q 224 610 239 713 l 224 610 q 169 529 211 529 l 169 529 q 113 607 122 529 l 113 607 q 108 678 108 643 l 108 678 q 160 885 108 794 q 306 1025 211 975 q 529 1075 401 1075 l 529 1075 q 715 1036 636 1075 q 836 929 794 997 q 878 776 878 861 l 878 776 q 781 494 878 626 q 500 235 683 363 l 500 235 q 445 191 461 207 q 429 164 429 175 l 429 164 q 439 151 429 154 q 476 147 449 147 l 476 147 q 533 149 510 147 l 533 149 q 695 178 625 153 q 814 271 765 204 l 814 271 q 892 407 854 326 l 892 407 q 921 460 911 446 q 943 474 931 475 l 943 474 q 967 449 960 474 q 975 375 974 424 q 976 213 976 326 l 976 213 q 958 68 976 113 q 905 12 940 24 q 796 0 869 0 l 796 0 l 156 0 z "},"3":{"ha":1035,"x_min":42,"x_max":965,"o":"m 513 -21 q 231 54 339 -21 q 57 272 124 129 l 57 272 q 42 326 42 306 l 42 326 q 57 357 42 347 l 57 357 q 74 363 64 363 l 74 363 q 97 353 85 363 q 126 325 108 344 l 126 325 q 467 169 275 169 l 467 169 q 652 220 581 169 q 724 356 724 271 l 724 356 q 678 457 724 425 q 556 489 633 489 l 556 489 q 392 464 479 489 l 392 464 q 361 458 369 458 l 361 458 q 315 488 331 458 l 315 488 q 310 508 310 499 l 310 508 q 339 551 310 533 l 339 551 q 580 725 503 650 q 657 850 657 800 l 657 850 q 628 902 657 883 q 556 921 600 921 l 556 921 q 431 888 493 921 q 326 775 369 854 l 326 775 q 244 642 274 679 q 190 604 215 604 l 190 604 q 157 619 167 604 q 147 660 147 633 l 147 660 q 157 744 147 692 l 157 744 q 163 783 158 754 q 167 831 167 811 l 167 831 q 150 961 167 885 l 150 961 q 143 997 143 986 l 143 997 q 186 1040 139 1040 l 186 1040 q 214 1038 194 1040 l 214 1038 q 465 1017 375 1017 l 465 1017 q 604 1031 515 1017 l 604 1031 q 699 1040 668 1040 l 699 1040 q 844 999 781 1040 q 908 871 908 958 l 908 871 q 846 701 908 772 q 667 599 783 629 l 667 599 q 883 517 801 576 q 965 331 965 457 l 965 331 q 901 149 965 229 q 733 24 838 68 q 513 -21 629 -21 l 513 -21 z "},"4":{"ha":1036,"x_min":0,"x_max":1008,"o":"m 363 -10 q 292 51 292 -10 l 292 51 q 315 88 292 74 q 386 115 339 101 l 386 115 q 462 143 432 129 q 510 181 492 157 l 510 181 q 537 230 528 204 q 549 296 546 256 l 549 296 l 126 297 q 85 297 117 297 q 35 303 53 296 q 7 329 17 311 l 7 329 q 0 354 0 343 l 0 354 q 15 396 0 374 q 63 451 31 418 l 63 451 l 551 954 l 578 983 q 655 1059 624 1033 q 718 1085 686 1085 l 718 1085 q 772 1062 757 1085 q 785 992 786 1039 l 785 992 l 771 483 l 771 460 q 938 489 863 474 l 938 489 q 971 493 958 493 l 971 493 q 1000 482 992 493 q 1008 443 1008 471 l 1008 443 q 971 333 1008 371 q 835 296 933 296 l 835 296 l 771 296 q 799 181 775 211 l 799 181 q 839 143 817 157 q 894 115 861 129 l 894 115 q 946 87 931 99 q 961 51 961 75 l 961 51 q 938 8 961 25 q 876 -10 914 -10 l 876 -10 q 776 -6 838 -10 l 776 -6 q 599 0 668 0 l 599 0 q 469 -6 550 0 l 469 -6 q 423 -8 450 -7 q 363 -10 396 -10 l 363 -10 z m 233 418 q 554 435 386 421 l 554 435 l 564 764 l 233 418 z "},"5":{"ha":1063,"x_min":69,"x_max":993,"o":"m 540 -22 q 259 53 367 -22 q 85 272 151 129 l 85 272 q 69 325 69 306 l 69 325 q 85 357 69 346 l 85 357 q 101 364 92 364 l 101 364 q 124 355 113 364 q 154 325 135 346 l 154 325 q 313 219 222 254 q 508 183 404 183 l 508 183 q 688 222 624 183 q 751 333 751 260 l 751 333 q 678 455 751 413 q 482 497 606 497 l 482 497 q 238 463 367 497 l 238 463 q 203 457 215 457 l 203 457 q 147 532 146 457 l 147 532 l 178 961 q 197 1001 179 989 q 253 1013 214 1013 l 253 1013 q 302 1011 278 1013 q 347 1008 326 1010 l 347 1008 q 486 1001 421 1001 l 486 1001 q 617 1008 557 1001 q 758 1028 678 1015 l 758 1028 l 821 1038 q 849 1040 840 1040 l 849 1040 q 892 997 896 1040 l 892 997 q 885 961 892 986 l 885 961 q 868 831 868 885 l 868 831 q 874 757 868 804 l 874 757 q 879 697 879 713 l 879 697 q 847 635 879 647 l 847 635 q 832 632 842 632 l 832 632 q 781 662 804 632 q 724 749 757 692 l 724 749 l 708 775 q 628 869 668 844 q 517 893 589 893 l 517 893 q 422 888 497 893 l 422 888 l 392 885 l 368 621 q 525 636 447 636 l 525 636 q 753 603 646 636 q 926 497 860 569 q 993 317 993 425 l 993 317 q 930 132 993 208 q 763 17 867 56 q 540 -22 660 -22 l 540 -22 z "},"6":{"ha":1028,"x_min":69,"x_max":972,"o":"m 528 -21 q 284 38 388 -21 q 125 202 181 96 q 69 450 69 308 l 69 450 q 138 735 69 608 q 322 942 207 863 q 572 1046 436 1022 l 572 1046 q 649 1053 618 1053 l 649 1053 q 724 1039 697 1053 q 751 997 751 1025 l 751 997 q 734 965 751 975 q 675 944 717 954 l 675 944 l 638 935 q 412 810 503 897 q 294 596 321 724 l 294 596 q 438 697 365 665 q 597 729 510 729 l 597 729 q 799 679 714 729 q 928 546 883 629 q 972 364 972 463 l 972 364 q 914 163 972 250 q 754 27 856 75 q 528 -21 653 -21 l 528 -21 z m 619 138 q 742 180 693 138 q 792 290 792 222 l 792 290 q 752 413 792 351 q 644 515 713 475 q 496 554 576 554 l 496 554 q 360 512 413 554 q 307 404 307 469 l 307 404 q 352 282 307 344 q 470 178 397 219 q 619 138 543 138 l 619 138 z "},"7":{"ha":938,"x_min":63,"x_max":938,"o":"m 347 -8 q 309 12 318 -8 q 303 76 300 32 l 303 76 q 369 458 318 285 q 535 772 421 632 l 535 772 q 593 867 593 843 l 593 867 q 582 884 593 879 q 535 889 571 889 l 535 889 l 488 888 q 319 849 388 883 q 192 715 250 814 l 192 715 q 151 636 178 692 l 151 636 q 122 577 133 594 q 96 561 111 560 l 96 561 q 72 586 79 561 q 64 660 65 611 q 63 822 63 708 l 63 822 q 81 967 63 922 q 134 1023 99 1011 q 243 1035 169 1035 l 243 1035 l 800 1035 q 898 1030 869 1035 q 935 1003 926 1025 l 935 1003 q 938 990 938 994 l 938 990 q 924 958 938 975 q 881 918 910 942 l 881 918 l 840 879 q 651 601 714 754 q 588 229 588 449 l 588 229 q 593 89 588 156 l 593 89 q 596 49 596 58 l 596 49 q 585 3 596 15 q 546 -8 574 -8 l 546 -8 q 503 -6 536 -8 l 503 -6 q 433 0 461 0 l 433 0 q 409 -1 421 0 q 388 -4 397 -3 l 388 -4 q 347 -8 365 -8 l 347 -8 z "},"8":{"ha":1021,"x_min":42,"x_max":979,"o":"m 511 -21 q 265 14 372 -21 q 100 111 158 49 q 42 256 42 174 l 42 256 q 92 388 42 329 q 232 486 142 447 l 232 486 q 69 724 69 574 l 69 724 q 122 899 69 824 q 273 1015 174 974 q 511 1056 372 1056 l 511 1056 q 819 978 715 1056 q 924 765 924 900 l 924 765 q 881 642 924 699 q 760 554 838 585 l 760 554 q 922 455 865 513 q 979 311 979 397 l 979 311 q 921 138 979 213 q 756 21 863 63 q 511 -21 650 -21 l 511 -21 z m 278 263 q 307 171 278 213 q 392 103 336 129 q 522 78 447 78 l 522 78 q 660 123 610 78 q 711 250 711 168 l 711 250 q 683 327 711 297 q 599 376 656 357 q 442 415 543 394 l 442 415 q 383 429 403 424 l 383 429 q 278 263 278 374 l 278 263 z m 313 797 q 360 692 313 729 q 511 629 407 656 l 511 629 l 582 611 q 662 690 636 640 q 688 799 688 739 l 688 799 q 635 924 688 875 q 497 974 582 974 l 497 974 q 360 928 408 974 q 313 797 313 882 l 313 797 z "},"9":{"ha":1025,"x_min":69,"x_max":956,"o":"m 338 -8 q 211 21 258 -7 q 171 86 164 49 l 171 86 q 195 116 175 110 q 261 124 215 122 l 261 124 q 294 125 282 124 l 294 125 q 689 372 599 144 l 689 372 l 690 378 q 679 378 690 385 l 679 378 q 456 310 564 310 l 456 310 q 375 318 417 310 l 375 318 q 149 444 228 347 q 69 669 69 542 l 69 669 q 78 750 69 711 l 78 750 q 217 974 107 892 q 478 1056 326 1056 l 478 1056 q 589 1044 539 1056 l 589 1044 q 859 889 763 1011 q 956 588 956 767 l 956 588 q 942 449 956 518 l 942 449 q 736 103 897 221 q 338 -8 575 -15 l 338 -8 z m 493 471 q 561 461 526 461 l 561 461 q 661 489 619 461 q 717 565 703 517 l 717 565 q 722 607 722 583 l 722 607 q 692 724 722 663 q 610 833 663 785 q 494 903 557 882 l 494 903 q 429 914 458 914 l 429 914 q 334 885 375 914 q 279 804 293 856 l 279 804 q 272 751 272 776 l 272 751 q 299 637 272 694 q 376 534 326 579 q 493 471 426 489 l 493 471 z "}," ":{"ha":417,"x_min":null,"x_max":null,"o":""}," ":{"ha":417,"x_min":null,"x_max":null,"o":""},"A":{"ha":1153,"x_min":49,"x_max":1111,"o":"m 992 0 q 835 88 896 0 q 754 338 774 175 l 754 338 q 743 354 753 354 l 743 354 q 735 350 740 354 q 728 338 731 346 l 728 338 q 593 153 682 236 q 401 24 504 71 q 214 -22 297 -22 l 214 -22 q 108 7 149 -22 l 108 7 q 49 139 49 53 l 49 139 q 115 357 49 233 q 294 599 181 481 q 544 796 408 717 l 544 796 q 561 815 561 807 l 561 815 q 544 835 561 826 l 544 835 q 451 867 508 856 q 335 878 394 878 l 335 878 q 235 868 286 878 l 235 868 q 204 865 224 865 l 204 865 q 144 881 168 865 q 121 925 121 897 l 121 925 q 147 979 121 951 q 229 1026 172 1007 q 374 1046 286 1046 l 374 1046 q 582 1019 499 1046 q 739 928 665 992 l 739 928 q 758 918 750 918 l 758 918 q 776 925 765 918 l 776 925 q 892 989 843 967 q 978 1011 942 1011 l 978 1011 q 1028 993 1008 1011 l 1028 993 q 1054 942 1054 968 l 1054 942 q 1042 895 1054 919 q 999 826 1029 871 l 999 826 l 968 779 q 907 571 907 679 l 907 571 q 949 389 907 482 l 949 389 q 1006 276 978 324 q 1069 182 1035 229 l 1069 182 q 1101 133 1092 150 q 1111 103 1111 117 l 1111 103 q 1079 32 1111 64 q 992 0 1047 0 l 992 0 z m 306 221 q 340 211 319 211 l 340 211 q 453 258 388 211 q 578 383 519 304 l 578 383 q 685 636 685 529 l 685 636 q 669 708 685 675 l 669 708 q 651 724 661 724 l 651 724 q 632 715 644 724 l 632 715 q 408 515 504 633 l 408 515 q 315 376 347 439 q 283 271 283 313 l 283 271 q 306 221 283 238 l 306 221 z "},"Á":{"ha":1153,"x_min":49,"x_max":1111,"o":"m 992 0 q 835 88 896 0 q 754 338 774 175 l 754 338 q 743 354 753 354 l 743 354 q 735 350 740 354 q 728 338 731 346 l 728 338 q 593 153 682 236 q 401 24 504 71 q 214 -22 297 -22 l 214 -22 q 108 7 149 -22 l 108 7 q 49 139 49 53 l 49 139 q 115 357 49 233 q 294 599 181 481 q 544 796 408 717 l 544 796 q 561 815 561 807 l 561 815 q 544 835 561 826 l 544 835 q 451 867 508 856 q 335 878 394 878 l 335 878 q 235 868 286 878 l 235 868 q 204 865 224 865 l 204 865 q 144 881 168 865 q 121 925 121 897 l 121 925 q 147 979 121 951 q 229 1026 172 1007 q 374 1046 286 1046 l 374 1046 q 582 1019 499 1046 q 739 928 665 992 l 739 928 q 758 918 750 918 l 758 918 q 776 925 765 918 l 776 925 q 892 989 843 967 q 978 1011 942 1011 l 978 1011 q 1028 993 1008 1011 l 1028 993 q 1054 942 1054 968 l 1054 942 q 1042 895 1054 919 q 999 826 1029 871 l 999 826 l 968 779 q 907 571 907 679 l 907 571 q 949 389 907 482 l 949 389 q 1006 276 978 324 q 1069 182 1035 229 l 1069 182 q 1101 133 1092 150 q 1111 103 1111 117 l 1111 103 q 1079 32 1111 64 q 992 0 1047 0 l 992 0 z m 306 221 q 340 211 319 211 l 340 211 q 453 258 388 211 q 578 383 519 304 l 578 383 q 685 636 685 529 l 685 636 q 669 708 685 675 l 669 708 q 651 724 661 724 l 651 724 q 632 715 644 724 l 632 715 q 408 515 504 633 l 408 515 q 315 376 347 439 q 283 271 283 313 l 283 271 q 306 221 283 238 l 306 221 z m 442 1142 q 439 1154 439 1146 l 439 1154 q 473 1227 439 1181 q 555 1319 507 1274 q 638 1383 603 1364 l 638 1383 q 707 1404 675 1404 l 707 1404 q 788 1361 760 1404 l 788 1361 q 804 1308 804 1336 l 804 1308 q 791 1261 804 1283 q 751 1222 778 1239 l 751 1222 q 616 1160 703 1192 q 479 1129 529 1129 l 479 1129 q 442 1142 450 1129 l 442 1142 z "},"Ă":{"ha":1153,"x_min":49,"x_max":1111,"o":"m 992 0 q 835 88 896 0 q 754 338 774 175 l 754 338 q 743 354 753 354 l 743 354 q 735 350 740 354 q 728 338 731 346 l 728 338 q 593 153 682 236 q 401 24 504 71 q 214 -22 297 -22 l 214 -22 q 108 7 149 -22 l 108 7 q 49 139 49 53 l 49 139 q 115 357 49 233 q 294 599 181 481 q 544 796 408 717 l 544 796 q 561 815 561 807 l 561 815 q 544 835 561 826 l 544 835 q 451 867 508 856 q 335 878 394 878 l 335 878 q 235 868 286 878 l 235 868 q 204 865 224 865 l 204 865 q 144 881 168 865 q 121 925 121 897 l 121 925 q 147 979 121 951 q 229 1026 172 1007 q 374 1046 286 1046 l 374 1046 q 582 1019 499 1046 q 739 928 665 992 l 739 928 q 758 918 750 918 l 758 918 q 776 925 765 918 l 776 925 q 892 989 843 967 q 978 1011 942 1011 l 978 1011 q 1028 993 1008 1011 l 1028 993 q 1054 942 1054 968 l 1054 942 q 1042 895 1054 919 q 999 826 1029 871 l 999 826 l 968 779 q 907 571 907 679 l 907 571 q 949 389 907 482 l 949 389 q 1006 276 978 324 q 1069 182 1035 229 l 1069 182 q 1101 133 1092 150 q 1111 103 1111 117 l 1111 103 q 1079 32 1111 64 q 992 0 1047 0 l 992 0 z m 306 221 q 340 211 319 211 l 340 211 q 453 258 388 211 q 578 383 519 304 l 578 383 q 685 636 685 529 l 685 636 q 669 708 685 675 l 669 708 q 651 724 661 724 l 651 724 q 632 715 644 724 l 632 715 q 408 515 504 633 l 408 515 q 315 376 347 439 q 283 271 283 313 l 283 271 q 306 221 283 238 l 306 221 z m 383 1325 q 418 1376 383 1376 l 418 1376 q 468 1339 444 1376 l 468 1339 q 514 1294 483 1313 q 581 1276 544 1276 l 581 1276 q 646 1294 615 1276 q 692 1339 676 1313 l 692 1339 q 717 1370 704 1361 q 747 1379 731 1379 l 747 1379 q 783 1326 783 1379 l 783 1326 q 756 1235 783 1281 q 681 1162 728 1190 q 582 1133 635 1133 l 582 1133 q 483 1162 529 1133 q 410 1235 438 1190 q 383 1325 383 1279 l 383 1325 z "},"Ǎ":{"ha":1153,"x_min":49,"x_max":1111,"o":"m 992 0 q 835 88 896 0 q 754 338 774 175 l 754 338 q 743 354 753 354 l 743 354 q 735 350 740 354 q 728 338 731 346 l 728 338 q 593 153 682 236 q 401 24 504 71 q 214 -22 297 -22 l 214 -22 q 108 7 149 -22 l 108 7 q 49 139 49 53 l 49 139 q 115 357 49 233 q 294 599 181 481 q 544 796 408 717 l 544 796 q 561 815 561 807 l 561 815 q 544 835 561 826 l 544 835 q 451 867 508 856 q 335 878 394 878 l 335 878 q 235 868 286 878 l 235 868 q 204 865 224 865 l 204 865 q 144 881 168 865 q 121 925 121 897 l 121 925 q 147 979 121 951 q 229 1026 172 1007 q 374 1046 286 1046 l 374 1046 q 582 1019 499 1046 q 739 928 665 992 l 739 928 q 758 918 750 918 l 758 918 q 776 925 765 918 l 776 925 q 892 989 843 967 q 978 1011 942 1011 l 978 1011 q 1028 993 1008 1011 l 1028 993 q 1054 942 1054 968 l 1054 942 q 1042 895 1054 919 q 999 826 1029 871 l 999 826 l 968 779 q 907 571 907 679 l 907 571 q 949 389 907 482 l 949 389 q 1006 276 978 324 q 1069 182 1035 229 l 1069 182 q 1101 133 1092 150 q 1111 103 1111 117 l 1111 103 q 1079 32 1111 64 q 992 0 1047 0 l 992 0 z m 306 221 q 340 211 319 211 l 340 211 q 453 258 388 211 q 578 383 519 304 l 578 383 q 685 636 685 529 l 685 636 q 669 708 685 675 l 669 708 q 651 724 661 724 l 651 724 q 632 715 644 724 l 632 715 q 408 515 504 633 l 408 515 q 315 376 347 439 q 283 271 283 313 l 283 271 q 306 221 283 238 l 306 221 z m 336 1382 q 360 1392 344 1392 l 360 1392 q 429 1361 390 1392 l 429 1361 q 578 1279 536 1279 l 578 1279 q 638 1298 600 1279 q 721 1351 675 1317 l 721 1351 q 804 1392 775 1392 l 804 1392 q 828 1383 819 1392 l 828 1383 q 840 1356 840 1371 l 840 1356 q 801 1289 840 1328 l 801 1289 l 654 1142 q 610 1102 626 1114 q 581 1090 594 1090 l 581 1090 q 549 1102 565 1090 q 508 1142 533 1114 l 508 1142 l 360 1297 q 328 1358 328 1331 l 328 1358 q 336 1382 328 1372 l 336 1382 z "},"Â":{"ha":1153,"x_min":49,"x_max":1111,"o":"m 992 0 q 835 88 896 0 q 754 338 774 175 l 754 338 q 743 354 753 354 l 743 354 q 735 350 740 354 q 728 338 731 346 l 728 338 q 593 153 682 236 q 401 24 504 71 q 214 -22 297 -22 l 214 -22 q 108 7 149 -22 l 108 7 q 49 139 49 53 l 49 139 q 115 357 49 233 q 294 599 181 481 q 544 796 408 717 l 544 796 q 561 815 561 807 l 561 815 q 544 835 561 826 l 544 835 q 451 867 508 856 q 335 878 394 878 l 335 878 q 235 868 286 878 l 235 868 q 204 865 224 865 l 204 865 q 144 881 168 865 q 121 925 121 897 l 121 925 q 147 979 121 951 q 229 1026 172 1007 q 374 1046 286 1046 l 374 1046 q 582 1019 499 1046 q 739 928 665 992 l 739 928 q 758 918 750 918 l 758 918 q 776 925 765 918 l 776 925 q 892 989 843 967 q 978 1011 942 1011 l 978 1011 q 1028 993 1008 1011 l 1028 993 q 1054 942 1054 968 l 1054 942 q 1042 895 1054 919 q 999 826 1029 871 l 999 826 l 968 779 q 907 571 907 679 l 907 571 q 949 389 907 482 l 949 389 q 1006 276 978 324 q 1069 182 1035 229 l 1069 182 q 1101 133 1092 150 q 1111 103 1111 117 l 1111 103 q 1079 32 1111 64 q 992 0 1047 0 l 992 0 z m 306 221 q 340 211 319 211 l 340 211 q 453 258 388 211 q 578 383 519 304 l 578 383 q 685 636 685 529 l 685 636 q 669 708 685 675 l 669 708 q 651 724 661 724 l 651 724 q 632 715 644 724 l 632 715 q 408 515 504 633 l 408 515 q 315 376 347 439 q 283 271 283 313 l 283 271 q 306 221 283 238 l 306 221 z m 336 1106 q 328 1129 328 1117 l 328 1129 q 360 1190 328 1157 l 360 1190 l 508 1346 q 549 1385 533 1374 q 581 1397 565 1397 l 581 1397 q 610 1385 594 1397 q 654 1346 626 1374 l 654 1346 l 801 1199 q 840 1132 840 1160 l 840 1132 q 828 1104 840 1117 l 828 1104 q 804 1096 819 1096 l 804 1096 q 721 1136 775 1096 l 721 1136 q 638 1190 675 1171 q 578 1208 600 1208 l 578 1208 q 429 1126 536 1208 l 429 1126 q 360 1096 390 1096 l 360 1096 q 336 1106 344 1096 l 336 1106 z "},"Ä":{"ha":1153,"x_min":49,"x_max":1111,"o":"m 992 0 q 835 88 896 0 q 754 338 774 175 l 754 338 q 743 354 753 354 l 743 354 q 735 350 740 354 q 728 338 731 346 l 728 338 q 593 153 682 236 q 401 24 504 71 q 214 -22 297 -22 l 214 -22 q 108 7 149 -22 l 108 7 q 49 139 49 53 l 49 139 q 115 357 49 233 q 294 599 181 481 q 544 796 408 717 l 544 796 q 561 815 561 807 l 561 815 q 544 835 561 826 l 544 835 q 451 867 508 856 q 335 878 394 878 l 335 878 q 235 868 286 878 l 235 868 q 204 865 224 865 l 204 865 q 144 881 168 865 q 121 925 121 897 l 121 925 q 147 979 121 951 q 229 1026 172 1007 q 374 1046 286 1046 l 374 1046 q 582 1019 499 1046 q 739 928 665 992 l 739 928 q 758 918 750 918 l 758 918 q 776 925 765 918 l 776 925 q 892 989 843 967 q 978 1011 942 1011 l 978 1011 q 1028 993 1008 1011 l 1028 993 q 1054 942 1054 968 l 1054 942 q 1042 895 1054 919 q 999 826 1029 871 l 999 826 l 968 779 q 907 571 907 679 l 907 571 q 949 389 907 482 l 949 389 q 1006 276 978 324 q 1069 182 1035 229 l 1069 182 q 1101 133 1092 150 q 1111 103 1111 117 l 1111 103 q 1079 32 1111 64 q 992 0 1047 0 l 992 0 z m 306 221 q 340 211 319 211 l 340 211 q 453 258 388 211 q 578 383 519 304 l 578 383 q 685 636 685 529 l 685 636 q 669 708 685 675 l 669 708 q 651 724 661 724 l 651 724 q 632 715 644 724 l 632 715 q 408 515 504 633 l 408 515 q 315 376 347 439 q 283 271 283 313 l 283 271 q 306 221 283 238 l 306 221 z m 754 1110 q 674 1143 707 1110 q 640 1224 640 1176 l 640 1224 q 674 1303 640 1269 q 754 1336 707 1336 l 754 1336 q 834 1303 801 1336 q 867 1224 867 1269 l 867 1224 q 834 1143 867 1176 q 754 1110 801 1110 l 754 1110 z m 417 1110 q 336 1143 369 1110 q 303 1224 303 1176 l 303 1224 q 336 1303 303 1269 q 417 1336 369 1336 l 417 1336 q 497 1303 464 1336 q 529 1224 529 1269 l 529 1224 q 497 1143 529 1176 q 417 1110 464 1110 l 417 1110 z "},"À":{"ha":1153,"x_min":49,"x_max":1111,"o":"m 992 0 q 835 88 896 0 q 754 338 774 175 l 754 338 q 743 354 753 354 l 743 354 q 735 350 740 354 q 728 338 731 346 l 728 338 q 593 153 682 236 q 401 24 504 71 q 214 -22 297 -22 l 214 -22 q 108 7 149 -22 l 108 7 q 49 139 49 53 l 49 139 q 115 357 49 233 q 294 599 181 481 q 544 796 408 717 l 544 796 q 561 815 561 807 l 561 815 q 544 835 561 826 l 544 835 q 451 867 508 856 q 335 878 394 878 l 335 878 q 235 868 286 878 l 235 868 q 204 865 224 865 l 204 865 q 144 881 168 865 q 121 925 121 897 l 121 925 q 147 979 121 951 q 229 1026 172 1007 q 374 1046 286 1046 l 374 1046 q 582 1019 499 1046 q 739 928 665 992 l 739 928 q 758 918 750 918 l 758 918 q 776 925 765 918 l 776 925 q 892 989 843 967 q 978 1011 942 1011 l 978 1011 q 1028 993 1008 1011 l 1028 993 q 1054 942 1054 968 l 1054 942 q 1042 895 1054 919 q 999 826 1029 871 l 999 826 l 968 779 q 907 571 907 679 l 907 571 q 949 389 907 482 l 949 389 q 1006 276 978 324 q 1069 182 1035 229 l 1069 182 q 1101 133 1092 150 q 1111 103 1111 117 l 1111 103 q 1079 32 1111 64 q 992 0 1047 0 l 992 0 z m 306 221 q 340 211 319 211 l 340 211 q 453 258 388 211 q 578 383 519 304 l 578 383 q 685 636 685 529 l 685 636 q 669 708 685 675 l 669 708 q 651 724 661 724 l 651 724 q 632 715 644 724 l 632 715 q 408 515 504 633 l 408 515 q 315 376 347 439 q 283 271 283 313 l 283 271 q 306 221 283 238 l 306 221 z m 763 1114 q 725 1101 754 1101 l 725 1101 q 588 1133 675 1101 q 453 1194 501 1164 l 453 1194 q 413 1233 426 1211 q 400 1281 400 1256 l 400 1281 q 417 1333 400 1308 l 417 1333 q 497 1376 444 1376 l 497 1376 q 567 1356 529 1376 l 567 1356 q 649 1291 601 1336 q 731 1199 697 1246 q 765 1126 765 1153 l 765 1126 q 763 1114 765 1118 l 763 1114 z "},"Ā":{"ha":1153,"x_min":49,"x_max":1111,"o":"m 992 0 q 835 88 896 0 q 754 338 774 175 l 754 338 q 743 354 753 354 l 743 354 q 735 350 740 354 q 728 338 731 346 l 728 338 q 593 153 682 236 q 401 24 504 71 q 214 -22 297 -22 l 214 -22 q 108 7 149 -22 l 108 7 q 49 139 49 53 l 49 139 q 115 357 49 233 q 294 599 181 481 q 544 796 408 717 l 544 796 q 561 815 561 807 l 561 815 q 544 835 561 826 l 544 835 q 451 867 508 856 q 335 878 394 878 l 335 878 q 235 868 286 878 l 235 868 q 204 865 224 865 l 204 865 q 144 881 168 865 q 121 925 121 897 l 121 925 q 147 979 121 951 q 229 1026 172 1007 q 374 1046 286 1046 l 374 1046 q 582 1019 499 1046 q 739 928 665 992 l 739 928 q 758 918 750 918 l 758 918 q 776 925 765 918 l 776 925 q 892 989 843 967 q 978 1011 942 1011 l 978 1011 q 1028 993 1008 1011 l 1028 993 q 1054 942 1054 968 l 1054 942 q 1042 895 1054 919 q 999 826 1029 871 l 999 826 l 968 779 q 907 571 907 679 l 907 571 q 949 389 907 482 l 949 389 q 1006 276 978 324 q 1069 182 1035 229 l 1069 182 q 1101 133 1092 150 q 1111 103 1111 117 l 1111 103 q 1079 32 1111 64 q 992 0 1047 0 l 992 0 z m 306 221 q 340 211 319 211 l 340 211 q 453 258 388 211 q 578 383 519 304 l 578 383 q 685 636 685 529 l 685 636 q 669 708 685 675 l 669 708 q 651 724 661 724 l 651 724 q 632 715 644 724 l 632 715 q 408 515 504 633 l 408 515 q 315 376 347 439 q 283 271 283 313 l 283 271 q 306 221 283 238 l 306 221 z m 361 1303 q 418 1301 388 1303 q 464 1299 449 1300 l 464 1299 q 581 1293 533 1293 l 581 1293 q 700 1299 631 1293 l 700 1299 q 748 1301 717 1300 q 806 1303 779 1303 l 806 1303 q 851 1278 833 1303 q 868 1214 868 1254 l 868 1214 q 851 1147 868 1172 q 806 1122 833 1122 l 806 1122 q 748 1124 779 1122 q 700 1126 717 1125 l 700 1126 q 581 1132 631 1132 l 581 1132 q 464 1126 533 1132 l 464 1126 q 418 1124 449 1125 q 361 1122 388 1122 l 361 1122 q 316 1147 333 1122 q 299 1214 299 1172 l 299 1214 q 316 1278 299 1254 q 361 1303 333 1303 l 361 1303 z "},"Ą":{"ha":1164,"x_min":49,"x_max":1122,"o":"m 933 -274 q 831 -236 869 -274 q 793 -146 793 -199 l 793 -146 q 796 -119 793 -136 l 796 -119 q 896 4 813 -46 l 896 4 q 903 13 903 8 l 903 13 q 888 33 903 21 l 888 33 q 802 149 836 71 q 754 338 768 226 l 754 338 q 743 354 753 354 l 743 354 q 735 350 740 354 q 728 338 731 346 l 728 338 q 593 153 682 236 q 401 24 504 71 q 214 -22 297 -22 l 214 -22 q 108 7 149 -22 l 108 7 q 49 139 49 53 l 49 139 q 115 357 49 233 q 294 599 181 481 q 544 796 408 717 l 544 796 q 561 815 561 807 l 561 815 q 544 835 561 826 l 544 835 q 451 867 508 856 q 335 878 394 878 l 335 878 q 235 868 286 878 l 235 868 q 204 865 224 865 l 204 865 q 144 881 168 865 q 121 925 121 897 l 121 925 q 147 979 121 951 q 229 1026 172 1007 q 374 1046 286 1046 l 374 1046 q 582 1019 499 1046 q 739 928 665 992 l 739 928 q 758 918 750 918 l 758 918 q 776 925 765 918 l 776 925 q 892 989 843 967 q 978 1011 942 1011 l 978 1011 q 1028 993 1008 1011 l 1028 993 q 1054 942 1054 968 l 1054 942 q 1042 895 1054 919 q 999 826 1029 871 l 999 826 l 968 779 q 907 571 907 679 l 907 571 q 949 389 907 482 l 949 389 q 1006 276 978 324 q 1069 182 1035 229 l 1069 182 q 1101 133 1092 150 q 1111 103 1111 117 l 1111 103 q 1094 49 1111 75 q 1046 10 1076 22 l 1046 10 q 965 -42 996 -15 q 935 -101 935 -69 l 935 -101 q 950 -140 935 -124 q 992 -162 965 -157 l 992 -162 q 1022 -165 1011 -165 l 1022 -165 q 1085 -157 1051 -165 l 1085 -157 q 1104 -154 1099 -154 l 1104 -154 q 1121 -161 1118 -154 l 1121 -161 q 1122 -165 1122 -162 l 1122 -165 q 1107 -189 1122 -171 l 1107 -189 q 1033 -247 1081 -219 q 933 -274 986 -274 l 933 -274 z m 306 221 q 340 211 319 211 l 340 211 q 453 258 388 211 q 578 383 519 304 l 578 383 q 685 636 685 529 l 685 636 q 669 708 685 675 l 669 708 q 651 724 661 724 l 651 724 q 632 715 644 724 l 632 715 q 408 515 504 633 l 408 515 q 315 376 347 439 q 283 271 283 313 l 283 271 q 306 221 283 238 l 306 221 z "},"Å":{"ha":1153,"x_min":49,"x_max":1111,"o":"m 992 0 q 835 88 896 0 q 754 338 774 175 l 754 338 q 743 354 753 354 l 743 354 q 735 350 740 354 q 728 338 731 346 l 728 338 q 593 153 682 236 q 401 24 504 71 q 214 -22 297 -22 l 214 -22 q 108 7 149 -22 l 108 7 q 49 139 49 53 l 49 139 q 115 357 49 233 q 294 599 181 481 q 544 796 408 717 l 544 796 q 561 815 561 807 l 561 815 q 544 835 561 826 l 544 835 q 451 867 508 856 q 335 878 394 878 l 335 878 q 235 868 286 878 l 235 868 q 204 865 224 865 l 204 865 q 144 881 168 865 q 121 925 121 897 l 121 925 q 147 979 121 951 q 229 1026 172 1007 q 374 1046 286 1046 l 374 1046 q 582 1019 499 1046 q 739 928 665 992 l 739 928 q 758 918 750 918 l 758 918 q 776 925 765 918 l 776 925 q 892 989 843 967 q 978 1011 942 1011 l 978 1011 q 1028 993 1008 1011 l 1028 993 q 1054 942 1054 968 l 1054 942 q 1042 895 1054 919 q 999 826 1029 871 l 999 826 l 968 779 q 907 571 907 679 l 907 571 q 949 389 907 482 l 949 389 q 1006 276 978 324 q 1069 182 1035 229 l 1069 182 q 1101 133 1092 150 q 1111 103 1111 117 l 1111 103 q 1079 32 1111 64 q 992 0 1047 0 l 992 0 z m 306 221 q 340 211 319 211 l 340 211 q 453 258 388 211 q 578 383 519 304 l 578 383 q 685 636 685 529 l 685 636 q 669 708 685 675 l 669 708 q 651 724 661 724 l 651 724 q 632 715 644 724 l 632 715 q 408 515 504 633 l 408 515 q 315 376 347 439 q 283 271 283 313 l 283 271 q 306 221 283 238 l 306 221 z m 469 1122 q 424 1238 424 1171 l 424 1238 q 435 1299 424 1269 q 469 1351 447 1329 l 469 1351 q 583 1397 518 1397 l 583 1397 q 645 1385 615 1397 q 697 1351 675 1374 l 697 1351 q 743 1236 743 1304 l 743 1236 q 731 1176 743 1206 q 697 1124 719 1146 l 697 1124 q 582 1078 650 1078 l 582 1078 q 469 1122 517 1078 l 469 1122 z m 536 1189 q 582 1171 553 1171 l 582 1171 q 631 1190 611 1171 l 631 1190 q 650 1238 650 1208 l 650 1238 q 631 1285 650 1269 l 631 1285 q 583 1304 614 1304 l 583 1304 q 536 1285 556 1304 l 536 1285 q 517 1238 517 1268 l 517 1238 q 536 1189 517 1208 l 536 1189 z "},"Ã":{"ha":1153,"x_min":49,"x_max":1111,"o":"m 992 0 q 835 88 896 0 q 754 338 774 175 l 754 338 q 743 354 753 354 l 743 354 q 735 350 740 354 q 728 338 731 346 l 728 338 q 593 153 682 236 q 401 24 504 71 q 214 -22 297 -22 l 214 -22 q 108 7 149 -22 l 108 7 q 49 139 49 53 l 49 139 q 115 357 49 233 q 294 599 181 481 q 544 796 408 717 l 544 796 q 561 815 561 807 l 561 815 q 544 835 561 826 l 544 835 q 451 867 508 856 q 335 878 394 878 l 335 878 q 235 868 286 878 l 235 868 q 204 865 224 865 l 204 865 q 144 881 168 865 q 121 925 121 897 l 121 925 q 147 979 121 951 q 229 1026 172 1007 q 374 1046 286 1046 l 374 1046 q 582 1019 499 1046 q 739 928 665 992 l 739 928 q 758 918 750 918 l 758 918 q 776 925 765 918 l 776 925 q 892 989 843 967 q 978 1011 942 1011 l 978 1011 q 1028 993 1008 1011 l 1028 993 q 1054 942 1054 968 l 1054 942 q 1042 895 1054 919 q 999 826 1029 871 l 999 826 l 968 779 q 907 571 907 679 l 907 571 q 949 389 907 482 l 949 389 q 1006 276 978 324 q 1069 182 1035 229 l 1069 182 q 1101 133 1092 150 q 1111 103 1111 117 l 1111 103 q 1079 32 1111 64 q 992 0 1047 0 l 992 0 z m 306 221 q 340 211 319 211 l 340 211 q 453 258 388 211 q 578 383 519 304 l 578 383 q 685 636 685 529 l 685 636 q 669 708 685 675 l 669 708 q 651 724 661 724 l 651 724 q 632 715 644 724 l 632 715 q 408 515 504 633 l 408 515 q 315 376 347 439 q 283 271 283 313 l 283 271 q 306 221 283 238 l 306 221 z m 504 1339 q 399 1287 438 1339 q 361 1160 361 1235 l 361 1160 q 364 1125 361 1147 l 364 1125 q 377 1094 367 1103 q 400 1085 388 1085 l 400 1085 q 419 1092 411 1085 q 428 1117 428 1100 l 428 1117 q 438 1163 428 1142 q 482 1185 449 1185 l 482 1185 q 514 1174 499 1185 q 551 1140 529 1164 l 551 1140 q 617 1085 586 1104 q 694 1065 647 1065 l 694 1065 q 800 1118 760 1065 q 840 1242 840 1171 l 840 1242 q 836 1283 840 1263 l 836 1283 q 822 1314 832 1304 q 801 1324 811 1324 l 801 1324 q 781 1315 790 1324 q 772 1292 772 1307 l 772 1292 q 717 1224 772 1224 l 717 1224 q 693 1231 704 1224 q 671 1249 682 1239 q 657 1263 660 1260 l 657 1263 q 588 1319 621 1299 q 504 1339 556 1339 l 504 1339 z "},"Æ":{"ha":1717,"x_min":49,"x_max":1689,"o":"m 1217 -19 q 940 62 1064 -19 q 739 290 815 143 l 739 290 q 721 311 729 311 l 721 311 q 704 292 715 311 l 704 292 q 569 131 654 203 q 390 18 485 58 q 215 -22 294 -22 l 215 -22 q 108 7 150 -22 l 108 7 q 49 140 49 51 l 49 140 q 114 360 49 236 q 293 601 179 483 q 544 796 407 718 l 544 796 q 561 815 561 807 l 561 815 q 544 835 561 826 l 544 835 q 451 865 508 854 q 332 875 394 875 l 332 875 q 235 868 283 875 l 235 868 q 206 865 215 865 l 206 865 q 144 881 168 865 q 121 925 121 897 l 121 925 q 147 979 121 951 q 229 1026 172 1007 q 374 1046 286 1046 l 374 1046 q 624 1001 513 1046 q 788 872 735 957 l 788 872 q 806 857 799 857 l 806 857 q 825 871 811 857 l 825 871 q 1015 1011 914 967 q 1217 1056 1115 1056 l 1217 1056 q 1314 1049 1275 1056 q 1399 1028 1353 1042 l 1399 1028 q 1485 1011 1449 1011 l 1485 1011 q 1514 1014 1492 1011 l 1514 1014 q 1582 1021 1560 1021 l 1582 1021 q 1628 1007 1615 1021 q 1642 958 1642 993 l 1642 958 q 1625 817 1642 911 q 1592 700 1608 722 l 1592 700 q 1542 671 1569 671 l 1542 671 q 1464 732 1503 671 l 1464 732 q 1339 870 1407 824 q 1179 917 1271 917 l 1179 917 q 1016 865 1086 917 q 922 728 946 813 l 922 728 q 915 688 915 703 l 915 688 q 941 640 915 653 q 1018 622 967 626 l 1018 622 q 1067 621 1036 621 l 1067 621 q 1177 638 1142 621 q 1240 686 1213 656 l 1240 686 q 1270 713 1257 704 q 1304 721 1283 721 l 1304 721 q 1388 669 1356 721 q 1429 543 1419 618 l 1429 543 q 1435 453 1435 499 l 1435 453 q 1393 336 1435 349 l 1393 336 q 1371 333 1386 333 l 1371 333 q 1275 415 1319 333 l 1275 415 q 1212 472 1254 453 q 1092 492 1169 492 l 1092 492 q 1032 489 1076 492 l 1032 489 q 961 479 983 486 q 939 447 939 472 l 939 447 q 947 414 939 435 l 947 414 q 1085 256 990 314 q 1297 197 1181 197 l 1297 197 q 1465 240 1390 197 q 1589 356 1539 283 l 1589 356 q 1625 400 1611 386 q 1654 414 1639 414 l 1654 414 q 1674 410 1664 414 l 1674 410 q 1689 375 1689 401 l 1689 375 q 1676 319 1689 351 l 1676 319 q 1503 74 1615 168 q 1217 -19 1390 -19 l 1217 -19 z m 306 221 q 340 211 319 211 l 340 211 q 453 258 388 211 q 578 383 519 304 l 578 383 q 686 636 686 532 l 686 636 q 669 708 686 678 l 669 708 q 651 724 661 724 l 651 724 q 632 715 644 724 l 632 715 q 408 515 504 633 l 408 515 q 315 376 347 439 q 283 271 283 313 l 283 271 q 306 221 283 238 l 306 221 z "},"B":{"ha":1092,"x_min":83,"x_max":1044,"o":"m 639 -8 q 537 -6 588 -8 q 469 -1 486 -3 l 469 -1 q 335 4 378 4 l 335 4 q 260 -1 307 4 l 260 -1 q 168 -7 207 -7 l 168 -7 q 106 9 129 -7 q 83 54 83 25 l 83 54 q 93 92 83 79 q 125 122 103 106 l 125 122 q 160 150 146 138 q 190 183 175 163 l 190 183 q 224 283 214 215 q 233 450 233 351 l 233 450 l 233 585 q 224 751 233 683 q 190 851 214 819 l 190 851 q 160 885 175 872 q 125 913 146 897 l 125 913 q 93 942 103 929 q 83 981 83 956 l 83 981 q 106 1025 83 1008 q 168 1042 129 1042 l 168 1042 q 251 1029 183 1042 l 251 1029 q 454 1004 379 1004 l 454 1004 q 524 1011 492 1004 q 604 1032 557 1018 l 604 1032 q 690 1054 657 1047 q 764 1061 724 1061 l 764 1061 q 943 1003 875 1061 q 1011 849 1011 944 l 1011 849 q 963 687 1011 746 q 829 583 915 628 l 829 583 q 821 574 821 579 l 821 574 q 833 568 821 568 l 833 568 q 985 498 926 565 q 1044 321 1044 431 l 1044 321 q 994 149 1044 224 q 851 33 943 74 q 639 -8 760 -8 l 639 -8 z m 450 147 q 495 117 467 128 q 560 107 524 107 l 560 107 q 658 125 608 107 q 743 178 708 143 l 743 178 q 808 265 786 221 q 829 350 829 310 l 829 350 q 815 410 829 383 q 774 451 800 436 l 774 451 q 675 475 731 475 l 675 475 q 583 460 631 475 q 490 418 535 446 l 490 418 q 433 353 451 393 q 414 267 414 313 l 414 267 q 424 200 414 232 q 450 147 433 168 l 450 147 z m 457 546 q 489 540 468 540 l 489 540 q 617 579 542 540 q 746 678 692 618 q 800 803 800 739 l 800 803 q 763 877 800 850 q 667 904 725 904 l 667 904 q 624 900 647 904 l 624 900 q 499 845 551 888 q 428 739 446 803 l 428 739 q 415 650 415 693 l 415 650 q 426 583 415 611 q 457 546 438 556 l 457 546 z "},"C":{"ha":1065,"x_min":42,"x_max":1038,"o":"m 565 -19 q 301 53 421 -19 q 111 249 181 125 q 42 518 42 372 l 42 518 q 113 786 42 663 q 306 983 185 910 q 565 1056 426 1056 l 565 1056 q 663 1049 624 1056 q 747 1028 701 1042 l 747 1028 q 833 1011 797 1011 l 833 1011 q 863 1014 840 1011 l 863 1014 q 931 1021 908 1021 l 931 1021 q 977 1007 964 1021 q 990 958 990 993 l 990 958 q 974 817 990 911 q 940 700 957 722 l 940 700 q 890 671 918 671 l 890 671 q 813 732 851 671 l 813 732 q 688 870 756 824 q 528 917 619 917 l 528 917 q 384 875 447 917 q 285 763 321 833 q 250 607 250 692 l 250 607 q 302 401 250 494 q 444 252 354 307 q 646 197 535 197 l 646 197 q 813 240 739 197 q 938 356 888 283 l 938 356 q 974 400 960 386 q 1003 414 988 414 l 1003 414 q 1022 410 1013 414 l 1022 410 q 1038 375 1038 401 l 1038 375 q 1025 319 1038 351 l 1025 319 q 851 74 964 168 q 565 -19 739 -19 l 565 -19 z "},"Ć":{"ha":1065,"x_min":42,"x_max":1038,"o":"m 565 -19 q 301 53 421 -19 q 111 249 181 125 q 42 518 42 372 l 42 518 q 113 786 42 663 q 306 983 185 910 q 565 1056 426 1056 l 565 1056 q 663 1049 624 1056 q 747 1028 701 1042 l 747 1028 q 833 1011 797 1011 l 833 1011 q 863 1014 840 1011 l 863 1014 q 931 1021 908 1021 l 931 1021 q 977 1007 964 1021 q 990 958 990 993 l 990 958 q 974 817 990 911 q 940 700 957 722 l 940 700 q 890 671 918 671 l 890 671 q 813 732 851 671 l 813 732 q 688 870 756 824 q 528 917 619 917 l 528 917 q 384 875 447 917 q 285 763 321 833 q 250 607 250 692 l 250 607 q 302 401 250 494 q 444 252 354 307 q 646 197 535 197 l 646 197 q 813 240 739 197 q 938 356 888 283 l 938 356 q 974 400 960 386 q 1003 414 988 414 l 1003 414 q 1022 410 1013 414 l 1022 410 q 1038 375 1038 401 l 1038 375 q 1025 319 1038 351 l 1025 319 q 851 74 964 168 q 565 -19 739 -19 l 565 -19 z m 422 1142 q 419 1154 419 1146 l 419 1154 q 453 1227 419 1181 q 535 1319 488 1274 q 618 1383 583 1364 l 618 1383 q 688 1404 656 1404 l 688 1404 q 768 1361 740 1404 l 768 1361 q 785 1308 785 1336 l 785 1308 q 772 1261 785 1283 q 732 1222 758 1239 l 732 1222 q 597 1160 683 1192 q 460 1129 510 1129 l 460 1129 q 422 1142 431 1129 l 422 1142 z "},"Č":{"ha":1065,"x_min":42,"x_max":1038,"o":"m 565 -19 q 301 53 421 -19 q 111 249 181 125 q 42 518 42 372 l 42 518 q 113 786 42 663 q 306 983 185 910 q 565 1056 426 1056 l 565 1056 q 663 1049 624 1056 q 747 1028 701 1042 l 747 1028 q 833 1011 797 1011 l 833 1011 q 863 1014 840 1011 l 863 1014 q 931 1021 908 1021 l 931 1021 q 977 1007 964 1021 q 990 958 990 993 l 990 958 q 974 817 990 911 q 940 700 957 722 l 940 700 q 890 671 918 671 l 890 671 q 813 732 851 671 l 813 732 q 688 870 756 824 q 528 917 619 917 l 528 917 q 384 875 447 917 q 285 763 321 833 q 250 607 250 692 l 250 607 q 302 401 250 494 q 444 252 354 307 q 646 197 535 197 l 646 197 q 813 240 739 197 q 938 356 888 283 l 938 356 q 974 400 960 386 q 1003 414 988 414 l 1003 414 q 1022 410 1013 414 l 1022 410 q 1038 375 1038 401 l 1038 375 q 1025 319 1038 351 l 1025 319 q 851 74 964 168 q 565 -19 739 -19 l 565 -19 z m 317 1382 q 340 1392 325 1392 l 340 1392 q 410 1361 371 1392 l 410 1361 q 558 1279 517 1279 l 558 1279 q 618 1298 581 1279 q 701 1351 656 1317 l 701 1351 q 785 1392 756 1392 l 785 1392 q 808 1383 800 1392 l 808 1383 q 821 1356 821 1371 l 821 1356 q 782 1289 821 1328 l 782 1289 l 635 1142 q 591 1102 607 1114 q 561 1090 575 1090 l 561 1090 q 530 1102 546 1090 q 489 1142 514 1114 l 489 1142 l 340 1297 q 308 1358 308 1331 l 308 1358 q 317 1382 308 1372 l 317 1382 z "},"Ç":{"ha":1065,"x_min":42,"x_max":1038,"o":"m 521 -278 q 411 -262 457 -278 q 342 -224 365 -246 q 319 -185 319 -203 l 319 -185 q 325 -171 319 -175 l 325 -171 q 341 -169 331 -167 q 364 -178 351 -172 l 364 -178 q 431 -199 400 -193 l 431 -199 q 472 -203 454 -203 l 472 -203 q 520 -191 503 -203 q 538 -158 538 -179 l 538 -158 q 525 -143 538 -147 q 490 -137 513 -139 l 490 -137 q 451 -130 464 -135 q 438 -111 438 -125 l 438 -111 q 457 -69 438 -94 q 506 -17 476 -43 l 506 -17 q 268 74 374 -1 q 102 265 163 149 q 42 518 42 382 l 42 518 q 113 786 42 663 q 306 983 185 910 q 565 1056 426 1056 l 565 1056 q 663 1049 624 1056 q 747 1028 701 1042 l 747 1028 q 833 1011 797 1011 l 833 1011 q 863 1014 840 1011 l 863 1014 q 931 1021 908 1021 l 931 1021 q 977 1007 964 1021 q 990 958 990 993 l 990 958 q 974 817 990 911 q 940 700 957 722 l 940 700 q 890 671 918 671 l 890 671 q 813 732 851 671 l 813 732 q 688 870 756 824 q 528 917 619 917 l 528 917 q 384 875 447 917 q 285 763 321 833 q 250 607 250 692 l 250 607 q 302 401 250 494 q 444 252 354 307 q 646 197 535 197 l 646 197 q 813 240 739 197 q 938 356 888 283 l 938 356 q 974 400 960 386 q 1003 414 988 414 l 1003 414 q 1022 410 1013 414 l 1022 410 q 1038 375 1038 401 l 1038 375 q 1025 319 1038 351 l 1025 319 q 857 78 965 172 q 582 -19 749 -15 l 582 -19 q 567 -68 567 -53 l 567 -68 q 571 -82 567 -76 l 571 -82 q 594 -92 576 -89 q 632 -99 611 -96 l 632 -99 q 710 -115 683 -104 q 736 -156 736 -125 l 736 -156 q 708 -213 736 -185 q 632 -260 681 -242 q 521 -278 583 -278 l 521 -278 z "},"Ċ":{"ha":1065,"x_min":42,"x_max":1038,"o":"m 565 -19 q 301 53 421 -19 q 111 249 181 125 q 42 518 42 372 l 42 518 q 113 786 42 663 q 306 983 185 910 q 565 1056 426 1056 l 565 1056 q 663 1049 624 1056 q 747 1028 701 1042 l 747 1028 q 833 1011 797 1011 l 833 1011 q 863 1014 840 1011 l 863 1014 q 931 1021 908 1021 l 931 1021 q 977 1007 964 1021 q 990 958 990 993 l 990 958 q 974 817 990 911 q 940 700 957 722 l 940 700 q 890 671 918 671 l 890 671 q 813 732 851 671 l 813 732 q 688 870 756 824 q 528 917 619 917 l 528 917 q 384 875 447 917 q 285 763 321 833 q 250 607 250 692 l 250 607 q 302 401 250 494 q 444 252 354 307 q 646 197 535 197 l 646 197 q 813 240 739 197 q 938 356 888 283 l 938 356 q 974 400 960 386 q 1003 414 988 414 l 1003 414 q 1022 410 1013 414 l 1022 410 q 1038 375 1038 401 l 1038 375 q 1025 319 1038 351 l 1025 319 q 851 74 964 168 q 565 -19 739 -19 l 565 -19 z m 565 1125 q 485 1158 518 1125 q 453 1238 453 1192 l 453 1238 q 485 1317 453 1285 q 565 1350 518 1350 l 565 1350 q 645 1317 613 1350 q 678 1238 678 1285 l 678 1238 q 645 1158 678 1192 q 565 1125 613 1125 l 565 1125 z "},"D":{"ha":1308,"x_min":83,"x_max":1267,"o":"m 168 -7 q 106 10 129 -7 q 83 54 83 26 l 83 54 q 93 92 83 79 q 125 122 103 106 l 125 122 q 160 150 146 138 q 190 183 175 163 l 190 183 q 224 283 214 215 q 233 450 233 351 l 233 450 l 233 585 q 224 751 233 683 q 190 851 214 819 l 190 851 q 132 915 171 876 l 132 915 q 105 945 113 935 q 97 975 97 956 l 97 975 q 120 1024 97 1006 q 182 1042 143 1042 l 182 1042 q 219 1040 201 1042 q 251 1038 236 1039 l 251 1038 q 349 1031 304 1031 l 349 1031 q 464 1038 408 1031 q 531 1046 519 1044 l 531 1046 q 724 1063 647 1063 l 724 1063 q 1001 993 876 1063 q 1196 800 1125 924 q 1267 518 1267 676 l 1267 518 q 1188 218 1267 335 q 980 50 1110 101 q 690 -1 850 -1 l 690 -1 q 550 8 633 -1 l 550 8 q 389 19 463 19 l 389 19 q 307 15 339 19 q 232 3 275 11 l 232 3 q 168 -7 190 -7 l 168 -7 z m 675 126 q 732 122 704 122 l 732 122 q 892 164 824 122 q 996 277 960 206 q 1032 433 1032 349 l 1032 433 q 985 670 1032 556 q 850 857 938 785 q 647 929 763 929 l 647 929 q 485 859 538 929 q 432 626 432 789 l 432 626 q 456 358 432 463 q 533 196 479 253 q 675 126 586 139 l 675 126 z "},"Ď":{"ha":1308,"x_min":83,"x_max":1267,"o":"m 168 -7 q 106 10 129 -7 q 83 54 83 26 l 83 54 q 93 92 83 79 q 125 122 103 106 l 125 122 q 160 150 146 138 q 190 183 175 163 l 190 183 q 224 283 214 215 q 233 450 233 351 l 233 450 l 233 585 q 224 751 233 683 q 190 851 214 819 l 190 851 q 132 915 171 876 l 132 915 q 105 945 113 935 q 97 975 97 956 l 97 975 q 120 1024 97 1006 q 182 1042 143 1042 l 182 1042 q 219 1040 201 1042 q 251 1038 236 1039 l 251 1038 q 349 1031 304 1031 l 349 1031 q 464 1038 408 1031 q 531 1046 519 1044 l 531 1046 q 724 1063 647 1063 l 724 1063 q 1001 993 876 1063 q 1196 800 1125 924 q 1267 518 1267 676 l 1267 518 q 1188 218 1267 335 q 980 50 1110 101 q 690 -1 850 -1 l 690 -1 q 550 8 633 -1 l 550 8 q 389 19 463 19 l 389 19 q 307 15 339 19 q 232 3 275 11 l 232 3 q 168 -7 190 -7 l 168 -7 z m 675 126 q 732 122 704 122 l 732 122 q 892 164 824 122 q 996 277 960 206 q 1032 433 1032 349 l 1032 433 q 985 670 1032 556 q 850 857 938 785 q 647 929 763 929 l 647 929 q 485 859 538 929 q 432 626 432 789 l 432 626 q 456 358 432 463 q 533 196 479 253 q 675 126 586 139 l 675 126 z m 407 1382 q 431 1392 415 1392 l 431 1392 q 500 1361 461 1392 l 500 1361 q 649 1279 607 1279 l 649 1279 q 708 1298 671 1279 q 792 1351 746 1317 l 792 1351 q 875 1392 846 1392 l 875 1392 q 899 1383 890 1392 l 899 1383 q 911 1356 911 1371 l 911 1356 q 872 1289 911 1328 l 872 1289 l 725 1142 q 681 1102 697 1114 q 651 1090 665 1090 l 651 1090 q 620 1102 636 1090 q 579 1142 604 1114 l 579 1142 l 431 1297 q 399 1358 399 1331 l 399 1358 q 407 1382 399 1372 l 407 1382 z "},"Đ":{"ha":1308,"x_min":83,"x_max":1267,"o":"m 168 -7 q 106 10 129 -7 q 83 54 83 26 l 83 54 q 93 92 83 79 q 125 122 103 106 l 125 122 q 160 150 146 138 q 190 183 175 163 l 190 183 q 233 421 231 236 l 233 421 q 217 451 232 443 q 156 458 201 458 l 156 458 q 103 478 121 458 q 85 529 85 497 l 85 529 q 104 576 85 558 q 156 594 124 594 l 156 594 q 215 608 197 594 q 232 654 232 622 l 232 654 q 222 773 232 721 q 190 851 211 825 l 190 851 q 132 915 171 876 l 132 915 q 105 945 113 935 q 97 975 97 956 l 97 975 q 120 1024 97 1006 q 182 1042 143 1042 l 182 1042 q 219 1040 201 1042 q 251 1038 236 1039 l 251 1038 q 349 1031 304 1031 l 349 1031 q 464 1038 408 1031 q 531 1046 519 1044 l 531 1046 q 724 1063 647 1063 l 724 1063 q 1001 993 876 1063 q 1196 800 1125 924 q 1267 518 1267 676 l 1267 518 q 1188 218 1267 335 q 980 50 1110 101 q 690 -1 850 -1 l 690 -1 q 550 8 633 -1 l 550 8 q 389 19 463 19 l 389 19 q 307 15 339 19 q 232 3 275 11 l 232 3 q 168 -7 190 -7 l 168 -7 z m 675 126 q 732 122 704 122 l 732 122 q 892 164 824 122 q 996 277 960 206 q 1032 433 1032 349 l 1032 433 q 985 670 1032 556 q 850 857 938 785 q 647 929 763 929 l 647 929 q 488 863 540 929 q 432 646 435 797 l 432 646 q 447 603 433 614 q 492 593 461 592 l 492 593 q 667 599 614 599 l 667 599 q 720 582 700 599 q 740 536 740 565 l 740 536 q 722 483 740 503 q 668 463 703 464 l 668 463 q 499 467 610 461 l 499 467 q 453 456 465 468 q 446 413 442 444 l 446 413 q 520 210 465 279 q 675 126 575 140 l 675 126 z "},"Ð":{"ha":1308,"x_min":83,"x_max":1267,"o":"m 168 -7 q 106 10 129 -7 q 83 54 83 26 l 83 54 q 93 92 83 79 q 125 122 103 106 l 125 122 q 160 150 146 138 q 190 183 175 163 l 190 183 q 233 421 231 236 l 233 421 q 217 451 232 443 q 156 458 201 458 l 156 458 q 103 478 121 458 q 85 529 85 497 l 85 529 q 104 576 85 558 q 156 594 124 594 l 156 594 q 215 608 197 594 q 232 654 232 622 l 232 654 q 222 773 232 721 q 190 851 211 825 l 190 851 q 132 915 171 876 l 132 915 q 105 945 113 935 q 97 975 97 956 l 97 975 q 120 1024 97 1006 q 182 1042 143 1042 l 182 1042 q 219 1040 201 1042 q 251 1038 236 1039 l 251 1038 q 349 1031 304 1031 l 349 1031 q 464 1038 408 1031 q 531 1046 519 1044 l 531 1046 q 724 1063 647 1063 l 724 1063 q 1001 993 876 1063 q 1196 800 1125 924 q 1267 518 1267 676 l 1267 518 q 1188 218 1267 335 q 980 50 1110 101 q 690 -1 850 -1 l 690 -1 q 550 8 633 -1 l 550 8 q 389 19 463 19 l 389 19 q 307 15 339 19 q 232 3 275 11 l 232 3 q 168 -7 190 -7 l 168 -7 z m 675 126 q 732 122 704 122 l 732 122 q 892 164 824 122 q 996 277 960 206 q 1032 433 1032 349 l 1032 433 q 985 670 1032 556 q 850 857 938 785 q 647 929 763 929 l 647 929 q 488 863 540 929 q 432 646 435 797 l 432 646 q 447 603 433 614 q 492 593 461 592 l 492 593 q 667 599 614 599 l 667 599 q 720 582 700 599 q 740 536 740 565 l 740 536 q 722 483 740 503 q 668 463 703 464 l 668 463 q 499 467 610 461 l 499 467 q 453 456 465 468 q 446 413 442 444 l 446 413 q 520 210 465 279 q 675 126 575 140 l 675 126 z "},"E":{"ha":1065,"x_min":42,"x_max":1038,"o":"m 565 -19 q 301 53 421 -19 q 111 249 181 125 q 42 518 42 372 l 42 518 q 113 786 42 663 q 306 983 185 910 q 565 1056 426 1056 l 565 1056 q 663 1049 624 1056 q 747 1028 701 1042 l 747 1028 q 833 1011 797 1011 l 833 1011 q 863 1014 840 1011 l 863 1014 q 931 1021 908 1021 l 931 1021 q 977 1007 964 1021 q 990 958 990 993 l 990 958 q 974 817 990 911 q 940 700 957 722 l 940 700 q 890 671 918 671 l 890 671 q 813 732 851 671 l 813 732 q 688 870 756 824 q 528 917 619 917 l 528 917 q 369 865 438 917 q 271 728 301 813 l 271 728 q 263 681 263 699 l 263 681 q 275 644 263 656 q 307 628 288 632 q 367 622 326 625 l 367 622 q 417 619 403 619 l 417 619 q 526 637 492 619 q 589 686 560 654 l 589 686 q 619 713 606 704 q 653 721 632 721 l 653 721 q 736 669 704 721 q 778 543 768 618 l 778 543 q 783 453 783 499 l 783 453 q 742 336 783 349 l 742 336 q 719 333 735 333 l 719 333 q 624 415 668 333 l 624 415 q 559 472 603 454 q 432 490 515 490 l 432 490 q 381 489 399 490 l 381 489 q 308 477 332 486 q 285 438 285 468 l 285 438 q 300 382 285 419 l 300 382 q 432 249 335 300 q 646 197 529 197 l 646 197 q 813 240 739 197 q 938 356 888 283 l 938 356 q 974 400 960 386 q 1003 414 988 414 l 1003 414 q 1022 410 1013 414 l 1022 410 q 1038 375 1038 401 l 1038 375 q 1025 319 1038 351 l 1025 319 q 851 74 964 168 q 565 -19 739 -19 l 565 -19 z "},"É":{"ha":1065,"x_min":42,"x_max":1038,"o":"m 565 -19 q 301 53 421 -19 q 111 249 181 125 q 42 518 42 372 l 42 518 q 113 786 42 663 q 306 983 185 910 q 565 1056 426 1056 l 565 1056 q 663 1049 624 1056 q 747 1028 701 1042 l 747 1028 q 833 1011 797 1011 l 833 1011 q 863 1014 840 1011 l 863 1014 q 931 1021 908 1021 l 931 1021 q 977 1007 964 1021 q 990 958 990 993 l 990 958 q 974 817 990 911 q 940 700 957 722 l 940 700 q 890 671 918 671 l 890 671 q 813 732 851 671 l 813 732 q 688 870 756 824 q 528 917 619 917 l 528 917 q 369 865 438 917 q 271 728 301 813 l 271 728 q 263 681 263 699 l 263 681 q 275 644 263 656 q 307 628 288 632 q 367 622 326 625 l 367 622 q 417 619 403 619 l 417 619 q 526 637 492 619 q 589 686 560 654 l 589 686 q 619 713 606 704 q 653 721 632 721 l 653 721 q 736 669 704 721 q 778 543 768 618 l 778 543 q 783 453 783 499 l 783 453 q 742 336 783 349 l 742 336 q 719 333 735 333 l 719 333 q 624 415 668 333 l 624 415 q 559 472 603 454 q 432 490 515 490 l 432 490 q 381 489 399 490 l 381 489 q 308 477 332 486 q 285 438 285 468 l 285 438 q 300 382 285 419 l 300 382 q 432 249 335 300 q 646 197 529 197 l 646 197 q 813 240 739 197 q 938 356 888 283 l 938 356 q 974 400 960 386 q 1003 414 988 414 l 1003 414 q 1022 410 1013 414 l 1022 410 q 1038 375 1038 401 l 1038 375 q 1025 319 1038 351 l 1025 319 q 851 74 964 168 q 565 -19 739 -19 l 565 -19 z m 399 1142 q 396 1154 396 1146 l 396 1154 q 430 1227 396 1181 q 512 1319 464 1274 q 594 1383 560 1364 l 594 1383 q 664 1404 632 1404 l 664 1404 q 744 1361 717 1404 l 744 1361 q 761 1308 761 1336 l 761 1308 q 748 1261 761 1283 q 708 1222 735 1239 l 708 1222 q 573 1160 660 1192 q 436 1129 486 1129 l 436 1129 q 399 1142 407 1129 l 399 1142 z "},"Ě":{"ha":1065,"x_min":42,"x_max":1038,"o":"m 565 -19 q 301 53 421 -19 q 111 249 181 125 q 42 518 42 372 l 42 518 q 113 786 42 663 q 306 983 185 910 q 565 1056 426 1056 l 565 1056 q 663 1049 624 1056 q 747 1028 701 1042 l 747 1028 q 833 1011 797 1011 l 833 1011 q 863 1014 840 1011 l 863 1014 q 931 1021 908 1021 l 931 1021 q 977 1007 964 1021 q 990 958 990 993 l 990 958 q 974 817 990 911 q 940 700 957 722 l 940 700 q 890 671 918 671 l 890 671 q 813 732 851 671 l 813 732 q 688 870 756 824 q 528 917 619 917 l 528 917 q 369 865 438 917 q 271 728 301 813 l 271 728 q 263 681 263 699 l 263 681 q 275 644 263 656 q 307 628 288 632 q 367 622 326 625 l 367 622 q 417 619 403 619 l 417 619 q 526 637 492 619 q 589 686 560 654 l 589 686 q 619 713 606 704 q 653 721 632 721 l 653 721 q 736 669 704 721 q 778 543 768 618 l 778 543 q 783 453 783 499 l 783 453 q 742 336 783 349 l 742 336 q 719 333 735 333 l 719 333 q 624 415 668 333 l 624 415 q 559 472 603 454 q 432 490 515 490 l 432 490 q 381 489 399 490 l 381 489 q 308 477 332 486 q 285 438 285 468 l 285 438 q 300 382 285 419 l 300 382 q 432 249 335 300 q 646 197 529 197 l 646 197 q 813 240 739 197 q 938 356 888 283 l 938 356 q 974 400 960 386 q 1003 414 988 414 l 1003 414 q 1022 410 1013 414 l 1022 410 q 1038 375 1038 401 l 1038 375 q 1025 319 1038 351 l 1025 319 q 851 74 964 168 q 565 -19 739 -19 l 565 -19 z m 293 1382 q 317 1392 301 1392 l 317 1392 q 386 1361 347 1392 l 386 1361 q 535 1279 493 1279 l 535 1279 q 594 1298 557 1279 q 678 1351 632 1317 l 678 1351 q 761 1392 732 1392 l 761 1392 q 785 1383 776 1392 l 785 1383 q 797 1356 797 1371 l 797 1356 q 758 1289 797 1328 l 758 1289 l 611 1142 q 567 1102 583 1114 q 538 1090 551 1090 l 538 1090 q 506 1102 522 1090 q 465 1142 490 1114 l 465 1142 l 317 1297 q 285 1358 285 1331 l 285 1358 q 293 1382 285 1372 l 293 1382 z "},"Ê":{"ha":1065,"x_min":42,"x_max":1038,"o":"m 565 -19 q 301 53 421 -19 q 111 249 181 125 q 42 518 42 372 l 42 518 q 113 786 42 663 q 306 983 185 910 q 565 1056 426 1056 l 565 1056 q 663 1049 624 1056 q 747 1028 701 1042 l 747 1028 q 833 1011 797 1011 l 833 1011 q 863 1014 840 1011 l 863 1014 q 931 1021 908 1021 l 931 1021 q 977 1007 964 1021 q 990 958 990 993 l 990 958 q 974 817 990 911 q 940 700 957 722 l 940 700 q 890 671 918 671 l 890 671 q 813 732 851 671 l 813 732 q 688 870 756 824 q 528 917 619 917 l 528 917 q 369 865 438 917 q 271 728 301 813 l 271 728 q 263 681 263 699 l 263 681 q 275 644 263 656 q 307 628 288 632 q 367 622 326 625 l 367 622 q 417 619 403 619 l 417 619 q 526 637 492 619 q 589 686 560 654 l 589 686 q 619 713 606 704 q 653 721 632 721 l 653 721 q 736 669 704 721 q 778 543 768 618 l 778 543 q 783 453 783 499 l 783 453 q 742 336 783 349 l 742 336 q 719 333 735 333 l 719 333 q 624 415 668 333 l 624 415 q 559 472 603 454 q 432 490 515 490 l 432 490 q 381 489 399 490 l 381 489 q 308 477 332 486 q 285 438 285 468 l 285 438 q 300 382 285 419 l 300 382 q 432 249 335 300 q 646 197 529 197 l 646 197 q 813 240 739 197 q 938 356 888 283 l 938 356 q 974 400 960 386 q 1003 414 988 414 l 1003 414 q 1022 410 1013 414 l 1022 410 q 1038 375 1038 401 l 1038 375 q 1025 319 1038 351 l 1025 319 q 851 74 964 168 q 565 -19 739 -19 l 565 -19 z m 293 1106 q 285 1129 285 1117 l 285 1129 q 317 1190 285 1157 l 317 1190 l 465 1346 q 506 1385 490 1374 q 538 1397 522 1397 l 538 1397 q 567 1385 551 1397 q 611 1346 583 1374 l 611 1346 l 758 1199 q 797 1132 797 1160 l 797 1132 q 785 1104 797 1117 l 785 1104 q 761 1096 776 1096 l 761 1096 q 678 1136 732 1096 l 678 1136 q 594 1190 632 1171 q 535 1208 557 1208 l 535 1208 q 386 1126 493 1208 l 386 1126 q 317 1096 347 1096 l 317 1096 q 293 1106 301 1096 l 293 1106 z "},"Ë":{"ha":1065,"x_min":42,"x_max":1038,"o":"m 565 -19 q 301 53 421 -19 q 111 249 181 125 q 42 518 42 372 l 42 518 q 113 786 42 663 q 306 983 185 910 q 565 1056 426 1056 l 565 1056 q 663 1049 624 1056 q 747 1028 701 1042 l 747 1028 q 833 1011 797 1011 l 833 1011 q 863 1014 840 1011 l 863 1014 q 931 1021 908 1021 l 931 1021 q 977 1007 964 1021 q 990 958 990 993 l 990 958 q 974 817 990 911 q 940 700 957 722 l 940 700 q 890 671 918 671 l 890 671 q 813 732 851 671 l 813 732 q 688 870 756 824 q 528 917 619 917 l 528 917 q 369 865 438 917 q 271 728 301 813 l 271 728 q 263 681 263 699 l 263 681 q 275 644 263 656 q 307 628 288 632 q 367 622 326 625 l 367 622 q 417 619 403 619 l 417 619 q 526 637 492 619 q 589 686 560 654 l 589 686 q 619 713 606 704 q 653 721 632 721 l 653 721 q 736 669 704 721 q 778 543 768 618 l 778 543 q 783 453 783 499 l 783 453 q 742 336 783 349 l 742 336 q 719 333 735 333 l 719 333 q 624 415 668 333 l 624 415 q 559 472 603 454 q 432 490 515 490 l 432 490 q 381 489 399 490 l 381 489 q 308 477 332 486 q 285 438 285 468 l 285 438 q 300 382 285 419 l 300 382 q 432 249 335 300 q 646 197 529 197 l 646 197 q 813 240 739 197 q 938 356 888 283 l 938 356 q 974 400 960 386 q 1003 414 988 414 l 1003 414 q 1022 410 1013 414 l 1022 410 q 1038 375 1038 401 l 1038 375 q 1025 319 1038 351 l 1025 319 q 851 74 964 168 q 565 -19 739 -19 l 565 -19 z m 711 1110 q 631 1143 664 1110 q 597 1224 597 1176 l 597 1224 q 631 1303 597 1269 q 711 1336 664 1336 l 711 1336 q 791 1303 758 1336 q 824 1224 824 1269 l 824 1224 q 791 1143 824 1176 q 711 1110 758 1110 l 711 1110 z m 374 1110 q 293 1143 326 1110 q 260 1224 260 1176 l 260 1224 q 293 1303 260 1269 q 374 1336 326 1336 l 374 1336 q 453 1303 421 1336 q 486 1224 486 1269 l 486 1224 q 453 1143 486 1176 q 374 1110 421 1110 l 374 1110 z "},"Ė":{"ha":1065,"x_min":42,"x_max":1038,"o":"m 565 -19 q 301 53 421 -19 q 111 249 181 125 q 42 518 42 372 l 42 518 q 113 786 42 663 q 306 983 185 910 q 565 1056 426 1056 l 565 1056 q 663 1049 624 1056 q 747 1028 701 1042 l 747 1028 q 833 1011 797 1011 l 833 1011 q 863 1014 840 1011 l 863 1014 q 931 1021 908 1021 l 931 1021 q 977 1007 964 1021 q 990 958 990 993 l 990 958 q 974 817 990 911 q 940 700 957 722 l 940 700 q 890 671 918 671 l 890 671 q 813 732 851 671 l 813 732 q 688 870 756 824 q 528 917 619 917 l 528 917 q 369 865 438 917 q 271 728 301 813 l 271 728 q 263 681 263 699 l 263 681 q 275 644 263 656 q 307 628 288 632 q 367 622 326 625 l 367 622 q 417 619 403 619 l 417 619 q 526 637 492 619 q 589 686 560 654 l 589 686 q 619 713 606 704 q 653 721 632 721 l 653 721 q 736 669 704 721 q 778 543 768 618 l 778 543 q 783 453 783 499 l 783 453 q 742 336 783 349 l 742 336 q 719 333 735 333 l 719 333 q 624 415 668 333 l 624 415 q 559 472 603 454 q 432 490 515 490 l 432 490 q 381 489 399 490 l 381 489 q 308 477 332 486 q 285 438 285 468 l 285 438 q 300 382 285 419 l 300 382 q 432 249 335 300 q 646 197 529 197 l 646 197 q 813 240 739 197 q 938 356 888 283 l 938 356 q 974 400 960 386 q 1003 414 988 414 l 1003 414 q 1022 410 1013 414 l 1022 410 q 1038 375 1038 401 l 1038 375 q 1025 319 1038 351 l 1025 319 q 851 74 964 168 q 565 -19 739 -19 l 565 -19 z m 542 1125 q 462 1158 494 1125 q 429 1238 429 1192 l 429 1238 q 462 1317 429 1285 q 542 1350 494 1350 l 542 1350 q 622 1317 589 1350 q 654 1238 654 1285 l 654 1238 q 622 1158 654 1192 q 542 1125 589 1125 l 542 1125 z "},"È":{"ha":1065,"x_min":42,"x_max":1038,"o":"m 565 -19 q 301 53 421 -19 q 111 249 181 125 q 42 518 42 372 l 42 518 q 113 786 42 663 q 306 983 185 910 q 565 1056 426 1056 l 565 1056 q 663 1049 624 1056 q 747 1028 701 1042 l 747 1028 q 833 1011 797 1011 l 833 1011 q 863 1014 840 1011 l 863 1014 q 931 1021 908 1021 l 931 1021 q 977 1007 964 1021 q 990 958 990 993 l 990 958 q 974 817 990 911 q 940 700 957 722 l 940 700 q 890 671 918 671 l 890 671 q 813 732 851 671 l 813 732 q 688 870 756 824 q 528 917 619 917 l 528 917 q 369 865 438 917 q 271 728 301 813 l 271 728 q 263 681 263 699 l 263 681 q 275 644 263 656 q 307 628 288 632 q 367 622 326 625 l 367 622 q 417 619 403 619 l 417 619 q 526 637 492 619 q 589 686 560 654 l 589 686 q 619 713 606 704 q 653 721 632 721 l 653 721 q 736 669 704 721 q 778 543 768 618 l 778 543 q 783 453 783 499 l 783 453 q 742 336 783 349 l 742 336 q 719 333 735 333 l 719 333 q 624 415 668 333 l 624 415 q 559 472 603 454 q 432 490 515 490 l 432 490 q 381 489 399 490 l 381 489 q 308 477 332 486 q 285 438 285 468 l 285 438 q 300 382 285 419 l 300 382 q 432 249 335 300 q 646 197 529 197 l 646 197 q 813 240 739 197 q 938 356 888 283 l 938 356 q 974 400 960 386 q 1003 414 988 414 l 1003 414 q 1022 410 1013 414 l 1022 410 q 1038 375 1038 401 l 1038 375 q 1025 319 1038 351 l 1025 319 q 851 74 964 168 q 565 -19 739 -19 l 565 -19 z m 719 1114 q 682 1101 711 1101 l 682 1101 q 545 1133 632 1101 q 410 1194 458 1164 l 410 1194 q 370 1233 383 1211 q 357 1281 357 1256 l 357 1281 q 374 1333 357 1308 l 374 1333 q 454 1376 401 1376 l 454 1376 q 524 1356 486 1376 l 524 1356 q 606 1291 558 1336 q 688 1199 654 1246 q 722 1126 722 1153 l 722 1126 q 719 1114 722 1118 l 719 1114 z "},"Ē":{"ha":1065,"x_min":42,"x_max":1038,"o":"m 565 -19 q 301 53 421 -19 q 111 249 181 125 q 42 518 42 372 l 42 518 q 113 786 42 663 q 306 983 185 910 q 565 1056 426 1056 l 565 1056 q 663 1049 624 1056 q 747 1028 701 1042 l 747 1028 q 833 1011 797 1011 l 833 1011 q 863 1014 840 1011 l 863 1014 q 931 1021 908 1021 l 931 1021 q 977 1007 964 1021 q 990 958 990 993 l 990 958 q 974 817 990 911 q 940 700 957 722 l 940 700 q 890 671 918 671 l 890 671 q 813 732 851 671 l 813 732 q 688 870 756 824 q 528 917 619 917 l 528 917 q 369 865 438 917 q 271 728 301 813 l 271 728 q 263 681 263 699 l 263 681 q 275 644 263 656 q 307 628 288 632 q 367 622 326 625 l 367 622 q 417 619 403 619 l 417 619 q 526 637 492 619 q 589 686 560 654 l 589 686 q 619 713 606 704 q 653 721 632 721 l 653 721 q 736 669 704 721 q 778 543 768 618 l 778 543 q 783 453 783 499 l 783 453 q 742 336 783 349 l 742 336 q 719 333 735 333 l 719 333 q 624 415 668 333 l 624 415 q 559 472 603 454 q 432 490 515 490 l 432 490 q 381 489 399 490 l 381 489 q 308 477 332 486 q 285 438 285 468 l 285 438 q 300 382 285 419 l 300 382 q 432 249 335 300 q 646 197 529 197 l 646 197 q 813 240 739 197 q 938 356 888 283 l 938 356 q 974 400 960 386 q 1003 414 988 414 l 1003 414 q 1022 410 1013 414 l 1022 410 q 1038 375 1038 401 l 1038 375 q 1025 319 1038 351 l 1025 319 q 851 74 964 168 q 565 -19 739 -19 l 565 -19 z m 318 1303 q 375 1301 344 1303 q 421 1299 406 1300 l 421 1299 q 538 1293 490 1293 l 538 1293 q 657 1299 588 1293 l 657 1299 q 705 1301 674 1300 q 763 1303 736 1303 l 763 1303 q 808 1278 790 1303 q 825 1214 825 1254 l 825 1214 q 808 1147 825 1172 q 763 1122 790 1122 l 763 1122 q 705 1124 736 1122 q 657 1126 674 1125 l 657 1126 q 538 1132 588 1132 l 538 1132 q 421 1126 490 1132 l 421 1126 q 375 1124 406 1125 q 318 1122 344 1122 l 318 1122 q 273 1147 290 1122 q 256 1214 256 1172 l 256 1214 q 273 1278 256 1254 q 318 1303 290 1303 l 318 1303 z "},"Ę":{"ha":1065,"x_min":42,"x_max":1038,"o":"m 832 -258 q 747 -226 782 -258 q 707 -150 713 -194 l 707 -150 q 706 -126 706 -142 l 706 -126 q 735 -21 706 -74 l 735 -21 q 742 -1 742 -7 l 742 -1 q 732 7 742 7 l 732 7 q 718 4 729 7 l 718 4 q 565 -19 647 -19 l 565 -19 q 301 53 421 -19 q 111 249 181 125 q 42 518 42 372 l 42 518 q 113 786 42 663 q 306 983 185 910 q 565 1056 426 1056 l 565 1056 q 663 1049 624 1056 q 747 1028 701 1042 l 747 1028 q 833 1011 797 1011 l 833 1011 q 863 1014 840 1011 l 863 1014 q 931 1021 908 1021 l 931 1021 q 977 1007 964 1021 q 990 958 990 993 l 990 958 q 974 817 990 911 q 940 700 957 722 l 940 700 q 890 671 918 671 l 890 671 q 813 732 851 671 l 813 732 q 688 870 756 824 q 528 917 619 917 l 528 917 q 369 865 438 917 q 271 728 301 813 l 271 728 q 263 681 263 699 l 263 681 q 275 644 263 656 q 307 628 288 632 q 367 622 326 625 l 367 622 q 417 619 403 619 l 417 619 q 526 637 492 619 q 589 686 560 654 l 589 686 q 619 713 606 704 q 653 721 632 721 l 653 721 q 736 669 704 721 q 778 543 768 618 l 778 543 q 783 453 783 499 l 783 453 q 742 336 783 349 l 742 336 q 719 333 735 333 l 719 333 q 624 415 668 333 l 624 415 q 559 472 603 454 q 432 490 515 490 l 432 490 q 381 489 399 490 l 381 489 q 308 477 332 486 q 285 438 285 468 l 285 438 q 300 382 285 419 l 300 382 q 432 249 335 300 q 646 197 529 197 l 646 197 q 813 240 739 197 q 938 356 888 283 l 938 356 q 974 400 960 386 q 1003 414 988 414 l 1003 414 q 1022 410 1013 414 l 1022 410 q 1038 375 1038 401 l 1038 375 q 1025 319 1038 351 l 1025 319 q 915 136 983 214 l 915 136 q 828 -62 828 11 l 828 -62 q 847 -106 828 -90 q 896 -122 865 -122 l 896 -122 q 938 -112 915 -122 q 990 -85 960 -103 l 990 -85 q 1026 -76 1017 -69 l 1026 -76 q 1029 -83 1029 -79 l 1029 -83 q 1022 -107 1029 -90 l 1022 -107 q 953 -208 1001 -158 q 832 -258 904 -258 l 832 -258 z "},"F":{"ha":1079,"x_min":83,"x_max":1058,"o":"m 196 -7 q 134 10 157 -7 q 111 54 111 26 l 111 54 q 121 92 111 79 q 153 122 131 106 l 153 122 q 188 150 174 138 q 218 183 203 163 l 218 183 q 251 283 242 215 q 261 450 261 351 l 261 450 l 261 585 q 240 740 261 667 q 190 851 219 814 l 190 851 q 147 899 168 881 q 122 919 125 917 l 122 919 q 92 947 101 936 q 83 975 83 958 l 83 975 q 106 1024 83 1006 q 168 1042 129 1042 l 168 1042 q 250 1035 190 1042 l 250 1035 q 321 1027 260 1033 q 436 1021 382 1021 l 436 1021 q 781 1051 542 1021 l 781 1051 q 940 1068 901 1068 l 940 1068 q 1026 1036 994 1068 q 1058 932 1058 1004 l 1058 932 q 1056 890 1058 921 l 1056 890 q 1019 719 1042 772 q 960 665 996 665 l 960 665 q 913 694 935 665 q 871 783 892 722 l 871 783 q 792 889 846 857 q 651 921 738 921 l 651 921 q 497 868 535 921 l 497 868 q 470 786 476 840 q 464 629 464 732 l 464 629 q 476 595 465 604 q 513 586 488 586 l 513 586 q 585 603 561 586 q 629 650 610 619 l 629 650 q 658 683 646 672 q 694 693 671 693 l 694 693 q 778 642 746 693 q 819 515 810 590 l 819 515 q 825 425 825 471 l 825 425 q 783 308 825 321 l 783 308 q 761 306 776 306 l 761 306 q 665 388 710 306 l 665 388 q 507 465 621 465 l 507 465 q 474 461 483 465 q 464 439 465 457 l 464 439 q 507 183 464 240 l 507 183 q 537 150 522 163 q 572 122 551 138 l 572 122 q 604 92 594 106 q 614 54 614 79 l 614 54 q 591 10 614 26 q 529 -7 568 -7 l 529 -7 q 449 -1 501 -7 l 449 -1 q 363 4 393 4 l 363 4 q 288 -1 335 4 l 288 -1 q 196 -7 235 -7 l 196 -7 z "},"G":{"ha":1131,"x_min":21,"x_max":1089,"o":"m 433 -11 q 220 78 314 8 q 74 260 126 147 q 21 518 21 374 l 21 518 q 99 797 21 674 q 303 988 176 919 q 572 1056 431 1056 l 572 1056 q 666 1047 625 1056 q 757 1025 707 1039 l 757 1025 q 850 1006 818 1006 l 850 1006 q 897 1014 872 1006 l 897 1014 q 1015 1040 974 1040 l 1015 1040 q 1069 1000 1069 1040 l 1069 1000 q 1067 979 1069 996 l 1067 979 q 1023 829 1053 925 q 975 700 993 733 l 975 700 q 929 669 957 669 l 929 669 q 847 732 886 669 l 847 732 q 711 868 793 819 q 535 917 629 917 l 535 917 q 383 877 453 917 q 271 767 313 838 q 229 607 229 697 l 229 607 q 287 390 229 483 q 442 247 344 297 q 653 197 539 197 l 653 197 q 771 216 718 197 q 855 268 824 235 q 886 342 886 301 l 886 342 q 876 394 886 376 q 839 420 867 413 q 757 428 811 428 l 757 428 l 699 426 q 597 492 597 426 l 597 492 q 626 547 597 526 q 710 569 654 568 l 710 569 l 899 574 l 1003 578 q 1086 511 1086 581 l 1086 511 q 1080 460 1086 490 q 1072 422 1074 431 l 1072 422 q 1050 269 1050 333 l 1050 269 q 1054 214 1050 243 l 1054 214 q 1063 173 1058 190 q 1071 143 1068 156 l 1071 143 q 1089 56 1089 83 l 1089 56 q 1060 3 1089 18 l 1060 3 q 1038 -3 1049 -3 l 1038 -3 q 1001 13 1019 -3 q 960 57 983 28 l 960 57 q 910 109 931 92 q 864 126 890 126 l 864 126 q 828 116 846 126 q 779 82 810 106 l 779 82 q 664 9 721 36 q 519 -18 607 -18 l 519 -18 q 433 -11 474 -18 l 433 -11 z "},"Ğ":{"ha":1131,"x_min":21,"x_max":1089,"o":"m 433 -11 q 220 78 314 8 q 74 260 126 147 q 21 518 21 374 l 21 518 q 99 797 21 674 q 303 988 176 919 q 572 1056 431 1056 l 572 1056 q 666 1047 625 1056 q 757 1025 707 1039 l 757 1025 q 850 1006 818 1006 l 850 1006 q 897 1014 872 1006 l 897 1014 q 1015 1040 974 1040 l 1015 1040 q 1069 1000 1069 1040 l 1069 1000 q 1067 979 1069 996 l 1067 979 q 1023 829 1053 925 q 975 700 993 733 l 975 700 q 929 669 957 669 l 929 669 q 847 732 886 669 l 847 732 q 711 868 793 819 q 535 917 629 917 l 535 917 q 383 877 453 917 q 271 767 313 838 q 229 607 229 697 l 229 607 q 287 390 229 483 q 442 247 344 297 q 653 197 539 197 l 653 197 q 771 216 718 197 q 855 268 824 235 q 886 342 886 301 l 886 342 q 876 394 886 376 q 839 420 867 413 q 757 428 811 428 l 757 428 l 699 426 q 597 492 597 426 l 597 492 q 626 547 597 526 q 710 569 654 568 l 710 569 l 899 574 l 1003 578 q 1086 511 1086 581 l 1086 511 q 1080 460 1086 490 q 1072 422 1074 431 l 1072 422 q 1050 269 1050 333 l 1050 269 q 1054 214 1050 243 l 1054 214 q 1063 173 1058 190 q 1071 143 1068 156 l 1071 143 q 1089 56 1089 83 l 1089 56 q 1060 3 1089 18 l 1060 3 q 1038 -3 1049 -3 l 1038 -3 q 1001 13 1019 -3 q 960 57 983 28 l 960 57 q 910 109 931 92 q 864 126 890 126 l 864 126 q 828 116 846 126 q 779 82 810 106 l 779 82 q 664 9 721 36 q 519 -18 607 -18 l 519 -18 q 433 -11 474 -18 l 433 -11 z m 376 1325 q 411 1376 376 1376 l 411 1376 q 461 1339 438 1376 l 461 1339 q 507 1294 476 1313 q 574 1276 538 1276 l 574 1276 q 639 1294 608 1276 q 685 1339 669 1313 l 685 1339 q 710 1370 697 1361 q 740 1379 724 1379 l 740 1379 q 776 1326 776 1379 l 776 1326 q 749 1235 776 1281 q 674 1162 721 1190 q 575 1133 628 1133 l 575 1133 q 476 1162 522 1133 q 403 1235 431 1190 q 376 1325 376 1279 l 376 1325 z "},"Ģ":{"ha":1131,"x_min":21,"x_max":1089,"o":"m 433 -11 q 220 78 314 8 q 74 260 126 147 q 21 518 21 374 l 21 518 q 99 797 21 674 q 303 988 176 919 q 572 1056 431 1056 l 572 1056 q 666 1047 625 1056 q 757 1025 707 1039 l 757 1025 q 850 1006 818 1006 l 850 1006 q 897 1014 872 1006 l 897 1014 q 1015 1040 974 1040 l 1015 1040 q 1069 1000 1069 1040 l 1069 1000 q 1067 979 1069 996 l 1067 979 q 1023 829 1053 925 q 975 700 993 733 l 975 700 q 929 669 957 669 l 929 669 q 847 732 886 669 l 847 732 q 711 868 793 819 q 535 917 629 917 l 535 917 q 383 877 453 917 q 271 767 313 838 q 229 607 229 697 l 229 607 q 287 390 229 483 q 442 247 344 297 q 653 197 539 197 l 653 197 q 771 216 718 197 q 855 268 824 235 q 886 342 886 301 l 886 342 q 876 394 886 376 q 839 420 867 413 q 757 428 811 428 l 757 428 l 699 426 q 597 492 597 426 l 597 492 q 626 547 597 526 q 710 569 654 568 l 710 569 l 899 574 l 1003 578 q 1086 511 1086 581 l 1086 511 q 1080 460 1086 490 q 1072 422 1074 431 l 1072 422 q 1050 269 1050 333 l 1050 269 q 1054 214 1050 243 l 1054 214 q 1063 173 1058 190 q 1071 143 1068 156 l 1071 143 q 1089 56 1089 83 l 1089 56 q 1060 3 1089 18 l 1060 3 q 1038 -3 1049 -3 l 1038 -3 q 1001 13 1019 -3 q 960 57 983 28 l 960 57 q 910 109 931 92 q 864 126 890 126 l 864 126 q 828 116 846 126 q 779 82 810 106 l 779 82 q 664 9 721 36 q 519 -18 607 -18 l 519 -18 q 433 -11 474 -18 l 433 -11 z m 474 -437 q 425 -449 444 -449 l 425 -449 q 388 -428 399 -449 l 388 -428 q 394 -397 381 -412 q 444 -358 408 -381 l 444 -358 q 494 -320 478 -337 q 510 -279 510 -303 l 510 -279 q 496 -246 510 -261 q 457 -212 482 -231 l 457 -212 q 419 -179 432 -193 q 407 -149 407 -165 l 407 -149 q 443 -96 407 -125 l 443 -96 q 551 -54 496 -54 l 551 -54 q 658 -96 607 -54 l 658 -96 q 713 -193 713 -140 l 713 -193 q 689 -271 713 -228 l 689 -271 q 601 -364 667 -312 q 474 -437 536 -415 l 474 -437 z "},"Ġ":{"ha":1131,"x_min":21,"x_max":1089,"o":"m 433 -11 q 220 78 314 8 q 74 260 126 147 q 21 518 21 374 l 21 518 q 99 797 21 674 q 303 988 176 919 q 572 1056 431 1056 l 572 1056 q 666 1047 625 1056 q 757 1025 707 1039 l 757 1025 q 850 1006 818 1006 l 850 1006 q 897 1014 872 1006 l 897 1014 q 1015 1040 974 1040 l 1015 1040 q 1069 1000 1069 1040 l 1069 1000 q 1067 979 1069 996 l 1067 979 q 1023 829 1053 925 q 975 700 993 733 l 975 700 q 929 669 957 669 l 929 669 q 847 732 886 669 l 847 732 q 711 868 793 819 q 535 917 629 917 l 535 917 q 383 877 453 917 q 271 767 313 838 q 229 607 229 697 l 229 607 q 287 390 229 483 q 442 247 344 297 q 653 197 539 197 l 653 197 q 771 216 718 197 q 855 268 824 235 q 886 342 886 301 l 886 342 q 876 394 886 376 q 839 420 867 413 q 757 428 811 428 l 757 428 l 699 426 q 597 492 597 426 l 597 492 q 626 547 597 526 q 710 569 654 568 l 710 569 l 899 574 l 1003 578 q 1086 511 1086 581 l 1086 511 q 1080 460 1086 490 q 1072 422 1074 431 l 1072 422 q 1050 269 1050 333 l 1050 269 q 1054 214 1050 243 l 1054 214 q 1063 173 1058 190 q 1071 143 1068 156 l 1071 143 q 1089 56 1089 83 l 1089 56 q 1060 3 1089 18 l 1060 3 q 1038 -3 1049 -3 l 1038 -3 q 1001 13 1019 -3 q 960 57 983 28 l 960 57 q 910 109 931 92 q 864 126 890 126 l 864 126 q 828 116 846 126 q 779 82 810 106 l 779 82 q 664 9 721 36 q 519 -18 607 -18 l 519 -18 q 433 -11 474 -18 l 433 -11 z m 578 1125 q 498 1158 531 1125 q 465 1238 465 1192 l 465 1238 q 498 1317 465 1285 q 578 1350 531 1350 l 578 1350 q 658 1317 625 1350 q 690 1238 690 1285 l 690 1238 q 658 1158 690 1192 q 578 1125 625 1125 l 578 1125 z "},"H":{"ha":1415,"x_min":83,"x_max":1332,"o":"m 914 -7 q 852 10 875 -7 q 829 54 829 26 l 829 54 q 839 92 829 79 q 871 122 849 106 l 871 122 q 906 150 892 138 q 936 183 921 163 l 936 183 q 967 253 957 211 q 978 371 976 294 l 978 371 q 956 431 976 414 q 886 449 936 449 l 886 449 l 536 449 q 456 422 475 449 q 439 335 436 396 l 439 335 l 439 338 q 451 243 442 278 q 479 183 460 208 l 479 183 q 509 150 494 163 q 544 122 524 138 l 544 122 q 576 92 567 106 q 586 54 586 79 l 586 54 q 563 10 586 26 q 501 -7 540 -7 l 501 -7 q 421 -1 474 -7 l 421 -1 q 335 4 365 4 l 335 4 q 260 -1 307 4 l 260 -1 q 168 -7 207 -7 l 168 -7 q 106 10 129 -7 q 83 54 83 26 l 83 54 q 93 92 83 79 q 125 122 103 106 l 125 122 q 160 150 146 138 q 190 183 175 163 l 190 183 q 224 283 214 215 q 233 450 233 351 l 233 450 l 233 585 q 224 751 233 683 q 190 851 214 819 l 190 851 q 132 915 171 876 l 132 915 q 105 945 113 935 q 97 975 97 956 l 97 975 q 120 1024 97 1006 q 182 1042 143 1042 l 182 1042 q 217 1040 200 1042 q 246 1038 233 1039 l 246 1038 q 335 1031 292 1031 l 335 1031 q 413 1036 365 1031 l 413 1036 q 488 1042 460 1042 l 488 1042 q 549 1024 526 1042 q 572 975 572 1006 l 572 975 q 565 945 572 956 q 538 915 557 935 l 538 915 q 479 851 499 876 l 479 851 q 449 782 458 822 q 438 664 439 742 l 438 664 q 460 599 439 617 q 536 582 481 582 l 536 582 l 885 582 q 960 607 942 582 q 976 697 979 632 l 976 697 l 976 696 q 965 791 974 756 q 936 851 956 826 l 936 851 q 878 915 917 876 l 878 915 q 851 945 858 935 q 843 975 843 956 l 843 975 q 866 1024 843 1006 q 928 1042 889 1042 l 928 1042 q 963 1040 946 1042 q 992 1038 979 1039 l 992 1038 q 1081 1031 1038 1031 l 1081 1031 q 1158 1036 1111 1031 l 1158 1036 q 1233 1042 1206 1042 l 1233 1042 q 1295 1024 1272 1042 q 1318 975 1318 1006 l 1318 975 q 1310 945 1318 956 q 1283 915 1303 935 l 1283 915 q 1225 851 1244 876 l 1225 851 q 1192 751 1201 819 q 1182 585 1182 683 l 1182 585 l 1182 450 q 1192 283 1182 351 q 1225 183 1201 215 l 1225 183 q 1255 150 1240 163 q 1290 122 1269 138 l 1290 122 q 1322 92 1313 106 q 1332 54 1332 79 l 1332 54 q 1309 10 1332 26 q 1247 -7 1286 -7 l 1247 -7 q 1167 -1 1219 -7 l 1167 -1 q 1081 4 1111 4 l 1081 4 q 1006 -1 1053 4 l 1006 -1 q 914 -7 953 -7 l 914 -7 z "},"Ħ":{"ha":1415,"x_min":83,"x_max":1332,"o":"m 914 -7 q 852 10 875 -7 q 829 54 829 26 l 829 54 q 839 92 829 79 q 871 122 849 106 l 871 122 q 906 150 892 138 q 936 183 921 163 l 936 183 q 967 253 957 211 q 978 371 976 294 l 978 371 q 956 431 976 414 q 886 449 936 449 l 886 449 l 536 449 q 456 422 475 449 q 439 335 436 396 l 439 335 l 439 338 q 451 243 442 278 q 479 183 460 208 l 479 183 q 509 150 494 163 q 544 122 524 138 l 544 122 q 576 92 567 106 q 586 54 586 79 l 586 54 q 563 10 586 26 q 501 -7 540 -7 l 501 -7 q 421 -1 474 -7 l 421 -1 q 335 4 365 4 l 335 4 q 260 -1 307 4 l 260 -1 q 168 -7 207 -7 l 168 -7 q 106 10 129 -7 q 83 54 83 26 l 83 54 q 93 92 83 79 q 125 122 103 106 l 125 122 q 160 150 146 138 q 190 183 175 163 l 190 183 q 224 283 214 215 q 233 450 233 351 l 233 450 l 233 585 l 233 631 l 176 629 q 124 649 142 629 q 106 700 106 668 l 106 700 q 125 747 106 729 q 176 765 144 765 l 176 765 l 222 765 q 190 851 211 825 l 190 851 q 132 915 171 876 l 132 915 q 105 945 113 935 q 97 975 97 956 l 97 975 q 120 1024 97 1006 q 182 1042 143 1042 l 182 1042 q 217 1040 200 1042 q 246 1038 233 1039 l 246 1038 q 335 1031 292 1031 l 335 1031 q 413 1036 365 1031 l 413 1036 q 488 1042 460 1042 l 488 1042 q 549 1024 526 1042 q 572 975 572 1006 l 572 975 q 565 945 572 956 q 538 915 557 935 l 538 915 q 479 851 499 876 l 479 851 q 444 761 454 818 l 444 761 l 707 760 q 971 763 810 760 l 971 763 q 936 851 961 818 l 936 851 q 878 915 917 876 l 878 915 q 851 945 858 935 q 843 975 843 956 l 843 975 q 866 1024 843 1006 q 928 1042 889 1042 l 928 1042 q 963 1040 946 1042 q 992 1038 979 1039 l 992 1038 q 1081 1031 1038 1031 l 1081 1031 q 1158 1036 1111 1031 l 1158 1036 q 1233 1042 1206 1042 l 1233 1042 q 1295 1024 1272 1042 q 1318 975 1318 1006 l 1318 975 q 1310 945 1318 956 q 1283 915 1303 935 l 1283 915 q 1225 851 1244 876 l 1225 851 q 1194 769 1206 824 l 1194 769 l 1243 769 q 1297 753 1276 769 q 1317 707 1317 736 l 1317 707 q 1298 654 1317 674 q 1244 633 1279 635 l 1244 633 l 1182 633 l 1182 585 l 1182 450 q 1192 283 1182 351 q 1225 183 1201 215 l 1225 183 q 1255 150 1240 163 q 1290 122 1269 138 l 1290 122 q 1322 92 1313 106 q 1332 54 1332 79 l 1332 54 q 1309 10 1332 26 q 1247 -7 1286 -7 l 1247 -7 q 1167 -1 1219 -7 l 1167 -1 q 1081 4 1111 4 l 1081 4 q 1006 -1 1053 4 l 1006 -1 q 914 -7 953 -7 l 914 -7 z m 440 636 q 467 594 446 606 q 536 582 489 582 l 536 582 l 885 582 q 946 594 925 582 q 972 636 967 607 l 972 636 q 708 639 811 639 l 708 639 q 440 636 601 639 l 440 636 z "},"I":{"ha":725,"x_min":111,"x_max":614,"o":"m 196 -7 q 134 10 157 -7 q 111 54 111 26 l 111 54 q 121 92 111 79 q 153 122 131 106 l 153 122 q 188 150 174 138 q 218 183 203 163 l 218 183 q 251 283 242 215 q 261 450 261 351 l 261 450 l 261 585 q 251 751 261 683 q 218 851 242 819 l 218 851 q 160 915 199 876 l 160 915 q 133 945 140 935 q 125 975 125 956 l 125 975 q 148 1024 125 1006 q 210 1042 171 1042 l 210 1042 q 244 1040 228 1042 q 274 1038 261 1039 l 274 1038 q 363 1031 319 1031 l 363 1031 q 440 1036 393 1031 l 440 1036 q 515 1042 488 1042 l 515 1042 q 577 1024 554 1042 q 600 975 600 1006 l 600 975 q 592 945 600 956 q 565 915 585 935 l 565 915 q 507 851 526 876 l 507 851 q 474 751 483 819 q 464 585 464 683 l 464 585 l 464 450 q 474 283 464 351 q 507 183 483 215 l 507 183 q 537 150 522 163 q 572 122 551 138 l 572 122 q 604 92 594 106 q 614 54 614 79 l 614 54 q 591 10 614 26 q 529 -7 568 -7 l 529 -7 q 449 -1 501 -7 l 449 -1 q 363 4 393 4 l 363 4 q 288 -1 335 4 l 288 -1 q 196 -7 235 -7 l 196 -7 z "},"Í":{"ha":725,"x_min":111,"x_max":614,"o":"m 196 -7 q 134 10 157 -7 q 111 54 111 26 l 111 54 q 121 92 111 79 q 153 122 131 106 l 153 122 q 188 150 174 138 q 218 183 203 163 l 218 183 q 251 283 242 215 q 261 450 261 351 l 261 450 l 261 585 q 251 751 261 683 q 218 851 242 819 l 218 851 q 160 915 199 876 l 160 915 q 133 945 140 935 q 125 975 125 956 l 125 975 q 148 1024 125 1006 q 210 1042 171 1042 l 210 1042 q 244 1040 228 1042 q 274 1038 261 1039 l 274 1038 q 363 1031 319 1031 l 363 1031 q 440 1036 393 1031 l 440 1036 q 515 1042 488 1042 l 515 1042 q 577 1024 554 1042 q 600 975 600 1006 l 600 975 q 592 945 600 956 q 565 915 585 935 l 565 915 q 507 851 526 876 l 507 851 q 474 751 483 819 q 464 585 464 683 l 464 585 l 464 450 q 474 283 464 351 q 507 183 483 215 l 507 183 q 537 150 522 163 q 572 122 551 138 l 572 122 q 604 92 594 106 q 614 54 614 79 l 614 54 q 591 10 614 26 q 529 -7 568 -7 l 529 -7 q 449 -1 501 -7 l 449 -1 q 363 4 393 4 l 363 4 q 288 -1 335 4 l 288 -1 q 196 -7 235 -7 l 196 -7 z m 221 1142 q 218 1154 218 1146 l 218 1154 q 252 1227 218 1181 q 334 1319 286 1274 q 417 1383 382 1364 l 417 1383 q 486 1404 454 1404 l 486 1404 q 567 1361 539 1404 l 567 1361 q 583 1308 583 1336 l 583 1308 q 570 1261 583 1283 q 531 1222 557 1239 l 531 1222 q 395 1160 482 1192 q 258 1129 308 1129 l 258 1129 q 221 1142 229 1129 l 221 1142 z "},"Ǐ":{"ha":725,"x_min":107,"x_max":619,"o":"m 196 -7 q 134 10 157 -7 q 111 54 111 26 l 111 54 q 121 92 111 79 q 153 122 131 106 l 153 122 q 188 150 174 138 q 218 183 203 163 l 218 183 q 251 283 242 215 q 261 450 261 351 l 261 450 l 261 585 q 251 751 261 683 q 218 851 242 819 l 218 851 q 160 915 199 876 l 160 915 q 133 945 140 935 q 125 975 125 956 l 125 975 q 148 1024 125 1006 q 210 1042 171 1042 l 210 1042 q 244 1040 228 1042 q 274 1038 261 1039 l 274 1038 q 363 1031 319 1031 l 363 1031 q 440 1036 393 1031 l 440 1036 q 515 1042 488 1042 l 515 1042 q 577 1024 554 1042 q 600 975 600 1006 l 600 975 q 592 945 600 956 q 565 915 585 935 l 565 915 q 507 851 526 876 l 507 851 q 474 751 483 819 q 464 585 464 683 l 464 585 l 464 450 q 474 283 464 351 q 507 183 483 215 l 507 183 q 537 150 522 163 q 572 122 551 138 l 572 122 q 604 92 594 106 q 614 54 614 79 l 614 54 q 591 10 614 26 q 529 -7 568 -7 l 529 -7 q 449 -1 501 -7 l 449 -1 q 363 4 393 4 l 363 4 q 288 -1 335 4 l 288 -1 q 196 -7 235 -7 l 196 -7 z m 115 1382 q 139 1392 124 1392 l 139 1392 q 208 1361 169 1392 l 208 1361 q 357 1279 315 1279 l 357 1279 q 417 1298 379 1279 q 500 1351 454 1317 l 500 1351 q 583 1392 554 1392 l 583 1392 q 607 1383 599 1392 l 607 1383 q 619 1356 619 1371 l 619 1356 q 581 1289 619 1328 l 581 1289 l 433 1142 q 390 1102 406 1114 q 360 1090 374 1090 l 360 1090 q 328 1102 344 1090 q 288 1142 313 1114 l 288 1142 l 139 1297 q 107 1358 107 1331 l 107 1358 q 115 1382 107 1372 l 115 1382 z "},"Î":{"ha":725,"x_min":107,"x_max":619,"o":"m 196 -7 q 134 10 157 -7 q 111 54 111 26 l 111 54 q 121 92 111 79 q 153 122 131 106 l 153 122 q 188 150 174 138 q 218 183 203 163 l 218 183 q 251 283 242 215 q 261 450 261 351 l 261 450 l 261 585 q 251 751 261 683 q 218 851 242 819 l 218 851 q 160 915 199 876 l 160 915 q 133 945 140 935 q 125 975 125 956 l 125 975 q 148 1024 125 1006 q 210 1042 171 1042 l 210 1042 q 244 1040 228 1042 q 274 1038 261 1039 l 274 1038 q 363 1031 319 1031 l 363 1031 q 440 1036 393 1031 l 440 1036 q 515 1042 488 1042 l 515 1042 q 577 1024 554 1042 q 600 975 600 1006 l 600 975 q 592 945 600 956 q 565 915 585 935 l 565 915 q 507 851 526 876 l 507 851 q 474 751 483 819 q 464 585 464 683 l 464 585 l 464 450 q 474 283 464 351 q 507 183 483 215 l 507 183 q 537 150 522 163 q 572 122 551 138 l 572 122 q 604 92 594 106 q 614 54 614 79 l 614 54 q 591 10 614 26 q 529 -7 568 -7 l 529 -7 q 449 -1 501 -7 l 449 -1 q 363 4 393 4 l 363 4 q 288 -1 335 4 l 288 -1 q 196 -7 235 -7 l 196 -7 z m 115 1106 q 107 1129 107 1117 l 107 1129 q 139 1190 107 1157 l 139 1190 l 288 1346 q 328 1385 313 1374 q 360 1397 344 1397 l 360 1397 q 390 1385 374 1397 q 433 1346 406 1374 l 433 1346 l 581 1199 q 619 1132 619 1160 l 619 1132 q 607 1104 619 1117 l 607 1104 q 583 1096 599 1096 l 583 1096 q 500 1136 554 1096 l 500 1136 q 417 1190 454 1171 q 357 1208 379 1208 l 357 1208 q 208 1126 315 1208 l 208 1126 q 139 1096 169 1096 l 139 1096 q 115 1106 124 1096 l 115 1106 z "},"Ï":{"ha":725,"x_min":82,"x_max":646,"o":"m 196 -7 q 134 10 157 -7 q 111 54 111 26 l 111 54 q 121 92 111 79 q 153 122 131 106 l 153 122 q 188 150 174 138 q 218 183 203 163 l 218 183 q 251 283 242 215 q 261 450 261 351 l 261 450 l 261 585 q 251 751 261 683 q 218 851 242 819 l 218 851 q 160 915 199 876 l 160 915 q 133 945 140 935 q 125 975 125 956 l 125 975 q 148 1024 125 1006 q 210 1042 171 1042 l 210 1042 q 244 1040 228 1042 q 274 1038 261 1039 l 274 1038 q 363 1031 319 1031 l 363 1031 q 440 1036 393 1031 l 440 1036 q 515 1042 488 1042 l 515 1042 q 577 1024 554 1042 q 600 975 600 1006 l 600 975 q 592 945 600 956 q 565 915 585 935 l 565 915 q 507 851 526 876 l 507 851 q 474 751 483 819 q 464 585 464 683 l 464 585 l 464 450 q 474 283 464 351 q 507 183 483 215 l 507 183 q 537 150 522 163 q 572 122 551 138 l 572 122 q 604 92 594 106 q 614 54 614 79 l 614 54 q 591 10 614 26 q 529 -7 568 -7 l 529 -7 q 449 -1 501 -7 l 449 -1 q 363 4 393 4 l 363 4 q 288 -1 335 4 l 288 -1 q 196 -7 235 -7 l 196 -7 z m 533 1110 q 453 1143 486 1110 q 419 1224 419 1176 l 419 1224 q 453 1303 419 1269 q 533 1336 486 1336 l 533 1336 q 613 1303 581 1336 q 646 1224 646 1269 l 646 1224 q 613 1143 646 1176 q 533 1110 581 1110 l 533 1110 z m 196 1110 q 115 1143 149 1110 q 82 1224 82 1176 l 82 1224 q 115 1303 82 1269 q 196 1336 149 1336 l 196 1336 q 276 1303 243 1336 q 308 1224 308 1269 l 308 1224 q 276 1143 308 1176 q 196 1110 243 1110 l 196 1110 z "},"İ":{"ha":725,"x_min":111,"x_max":614,"o":"m 196 -7 q 134 10 157 -7 q 111 54 111 26 l 111 54 q 121 92 111 79 q 153 122 131 106 l 153 122 q 188 150 174 138 q 218 183 203 163 l 218 183 q 251 283 242 215 q 261 450 261 351 l 261 450 l 261 585 q 251 751 261 683 q 218 851 242 819 l 218 851 q 160 915 199 876 l 160 915 q 133 945 140 935 q 125 975 125 956 l 125 975 q 148 1024 125 1006 q 210 1042 171 1042 l 210 1042 q 244 1040 228 1042 q 274 1038 261 1039 l 274 1038 q 363 1031 319 1031 l 363 1031 q 440 1036 393 1031 l 440 1036 q 515 1042 488 1042 l 515 1042 q 577 1024 554 1042 q 600 975 600 1006 l 600 975 q 592 945 600 956 q 565 915 585 935 l 565 915 q 507 851 526 876 l 507 851 q 474 751 483 819 q 464 585 464 683 l 464 585 l 464 450 q 474 283 464 351 q 507 183 483 215 l 507 183 q 537 150 522 163 q 572 122 551 138 l 572 122 q 604 92 594 106 q 614 54 614 79 l 614 54 q 591 10 614 26 q 529 -7 568 -7 l 529 -7 q 449 -1 501 -7 l 449 -1 q 363 4 393 4 l 363 4 q 288 -1 335 4 l 288 -1 q 196 -7 235 -7 l 196 -7 z m 364 1125 q 284 1158 317 1125 q 251 1238 251 1192 l 251 1238 q 284 1317 251 1285 q 364 1350 317 1350 l 364 1350 q 444 1317 411 1350 q 476 1238 476 1285 l 476 1238 q 444 1158 476 1192 q 364 1125 411 1125 l 364 1125 z "},"Ì":{"ha":725,"x_min":111,"x_max":614,"o":"m 196 -7 q 134 10 157 -7 q 111 54 111 26 l 111 54 q 121 92 111 79 q 153 122 131 106 l 153 122 q 188 150 174 138 q 218 183 203 163 l 218 183 q 251 283 242 215 q 261 450 261 351 l 261 450 l 261 585 q 251 751 261 683 q 218 851 242 819 l 218 851 q 160 915 199 876 l 160 915 q 133 945 140 935 q 125 975 125 956 l 125 975 q 148 1024 125 1006 q 210 1042 171 1042 l 210 1042 q 244 1040 228 1042 q 274 1038 261 1039 l 274 1038 q 363 1031 319 1031 l 363 1031 q 440 1036 393 1031 l 440 1036 q 515 1042 488 1042 l 515 1042 q 577 1024 554 1042 q 600 975 600 1006 l 600 975 q 592 945 600 956 q 565 915 585 935 l 565 915 q 507 851 526 876 l 507 851 q 474 751 483 819 q 464 585 464 683 l 464 585 l 464 450 q 474 283 464 351 q 507 183 483 215 l 507 183 q 537 150 522 163 q 572 122 551 138 l 572 122 q 604 92 594 106 q 614 54 614 79 l 614 54 q 591 10 614 26 q 529 -7 568 -7 l 529 -7 q 449 -1 501 -7 l 449 -1 q 363 4 393 4 l 363 4 q 288 -1 335 4 l 288 -1 q 196 -7 235 -7 l 196 -7 z m 542 1114 q 504 1101 533 1101 l 504 1101 q 367 1133 454 1101 q 232 1194 281 1164 l 232 1194 q 192 1233 206 1211 q 179 1281 179 1256 l 179 1281 q 196 1333 179 1308 l 196 1333 q 276 1376 224 1376 l 276 1376 q 346 1356 308 1376 l 346 1356 q 428 1291 381 1336 q 510 1199 476 1246 q 544 1126 544 1153 l 544 1126 q 542 1114 544 1118 l 542 1114 z "},"Ī":{"ha":725,"x_min":78,"x_max":647,"o":"m 196 -7 q 134 10 157 -7 q 111 54 111 26 l 111 54 q 121 92 111 79 q 153 122 131 106 l 153 122 q 188 150 174 138 q 218 183 203 163 l 218 183 q 251 283 242 215 q 261 450 261 351 l 261 450 l 261 585 q 251 751 261 683 q 218 851 242 819 l 218 851 q 160 915 199 876 l 160 915 q 133 945 140 935 q 125 975 125 956 l 125 975 q 148 1024 125 1006 q 210 1042 171 1042 l 210 1042 q 244 1040 228 1042 q 274 1038 261 1039 l 274 1038 q 363 1031 319 1031 l 363 1031 q 440 1036 393 1031 l 440 1036 q 515 1042 488 1042 l 515 1042 q 577 1024 554 1042 q 600 975 600 1006 l 600 975 q 592 945 600 956 q 565 915 585 935 l 565 915 q 507 851 526 876 l 507 851 q 474 751 483 819 q 464 585 464 683 l 464 585 l 464 450 q 474 283 464 351 q 507 183 483 215 l 507 183 q 537 150 522 163 q 572 122 551 138 l 572 122 q 604 92 594 106 q 614 54 614 79 l 614 54 q 591 10 614 26 q 529 -7 568 -7 l 529 -7 q 449 -1 501 -7 l 449 -1 q 363 4 393 4 l 363 4 q 288 -1 335 4 l 288 -1 q 196 -7 235 -7 l 196 -7 z m 140 1303 q 197 1301 167 1303 q 243 1299 228 1300 l 243 1299 q 360 1293 313 1293 l 360 1293 q 479 1299 410 1293 l 479 1299 q 527 1301 496 1300 q 585 1303 558 1303 l 585 1303 q 630 1278 613 1303 q 647 1214 647 1254 l 647 1214 q 630 1147 647 1172 q 585 1122 613 1122 l 585 1122 q 527 1124 558 1122 q 479 1126 496 1125 l 479 1126 q 360 1132 410 1132 l 360 1132 q 243 1126 313 1132 l 243 1126 q 197 1124 228 1125 q 140 1122 167 1122 l 140 1122 q 95 1147 113 1122 q 78 1214 78 1172 l 78 1214 q 95 1278 78 1254 q 140 1303 113 1303 l 140 1303 z "},"Į":{"ha":725,"x_min":111,"x_max":631,"o":"m 442 -289 q 340 -251 378 -289 q 301 -161 301 -214 l 301 -161 q 304 -135 301 -151 l 304 -135 q 425 1 322 -53 l 425 1 q 363 4 383 4 l 363 4 q 288 -1 335 4 l 288 -1 q 196 -7 235 -7 l 196 -7 q 134 10 157 -7 q 111 54 111 26 l 111 54 q 121 92 111 79 q 153 122 131 106 l 153 122 q 188 150 174 138 q 218 183 203 163 l 218 183 q 251 283 242 215 q 261 450 261 351 l 261 450 l 261 585 q 251 751 261 683 q 218 851 242 819 l 218 851 q 160 915 199 876 l 160 915 q 133 945 140 935 q 125 975 125 956 l 125 975 q 148 1024 125 1006 q 210 1042 171 1042 l 210 1042 q 244 1040 228 1042 q 274 1038 261 1039 l 274 1038 q 363 1031 319 1031 l 363 1031 q 440 1036 393 1031 l 440 1036 q 515 1042 488 1042 l 515 1042 q 577 1024 554 1042 q 600 975 600 1006 l 600 975 q 592 945 600 956 q 565 915 585 935 l 565 915 q 507 851 526 876 l 507 851 q 474 751 483 819 q 464 585 464 683 l 464 585 l 464 450 q 474 283 464 351 q 507 183 483 215 l 507 183 q 537 150 522 163 q 572 122 551 138 l 572 122 q 604 92 594 106 q 614 54 614 79 l 614 54 q 598 15 614 31 q 554 -4 582 0 l 554 -4 q 479 -52 515 -21 q 443 -117 443 -83 l 443 -117 q 458 -156 443 -139 q 500 -178 474 -172 l 500 -178 q 531 -181 519 -181 l 531 -181 q 593 -172 560 -181 l 593 -172 q 613 -169 607 -169 l 613 -169 q 629 -176 626 -169 l 629 -176 q 631 -181 631 -178 l 631 -181 q 615 -204 631 -186 l 615 -204 q 542 -262 589 -235 q 442 -289 494 -289 l 442 -289 z "},"J":{"ha":683,"x_min":28,"x_max":600,"o":"m 126 -201 q 103 -203 118 -203 l 103 -203 q 56 -192 75 -203 q 31 -161 38 -181 l 31 -161 q 28 -144 28 -150 l 28 -144 q 78 -64 28 -104 l 78 -64 q 221 136 181 18 q 261 450 261 254 l 261 450 l 261 585 q 251 751 261 683 q 218 851 242 819 l 218 851 q 160 915 199 876 l 160 915 q 133 945 140 935 q 125 975 125 956 l 125 975 q 148 1024 125 1006 q 210 1042 171 1042 l 210 1042 q 244 1040 228 1042 q 274 1038 261 1039 l 274 1038 q 363 1031 319 1031 l 363 1031 q 440 1036 393 1031 l 440 1036 q 515 1042 488 1042 l 515 1042 q 577 1024 554 1042 q 600 975 600 1006 l 600 975 q 592 945 600 956 q 565 915 585 935 l 565 915 q 507 851 526 876 l 507 851 q 474 751 483 819 q 464 585 464 683 l 464 585 l 464 251 q 367 -69 464 39 q 126 -201 269 -178 l 126 -201 z "},"K":{"ha":1281,"x_min":83,"x_max":1225,"o":"m 976 -22 q 834 6 886 -26 q 758 83 782 39 q 697 219 733 128 l 697 219 q 647 322 672 281 q 577 396 621 364 q 465 439 533 428 l 465 439 l 456 440 q 436 418 436 440 l 436 418 q 479 183 436 239 l 479 183 q 509 150 494 163 q 544 122 524 138 l 544 122 q 576 92 567 106 q 586 54 586 79 l 586 54 q 563 10 586 26 q 501 -7 540 -7 l 501 -7 q 421 -1 474 -7 l 421 -1 q 335 4 365 4 l 335 4 q 260 -1 307 4 l 260 -1 q 168 -7 207 -7 l 168 -7 q 106 10 129 -7 q 83 54 83 26 l 83 54 q 93 92 83 79 q 125 122 103 106 l 125 122 q 160 150 146 138 q 190 183 175 163 l 190 183 q 224 283 214 215 q 233 450 233 351 l 233 450 l 233 585 q 224 751 233 683 q 190 851 214 819 l 190 851 q 132 915 171 876 l 132 915 q 105 945 113 935 q 97 975 97 956 l 97 975 q 120 1024 97 1006 q 182 1042 143 1042 l 182 1042 q 217 1040 200 1042 q 246 1038 233 1039 l 246 1038 q 335 1031 292 1031 l 335 1031 q 413 1036 365 1031 l 413 1036 q 488 1042 460 1042 l 488 1042 q 549 1024 526 1042 q 572 975 572 1006 l 572 975 q 565 945 572 956 q 538 915 557 935 l 538 915 q 479 851 499 876 l 479 851 q 436 583 436 794 l 436 583 q 457 553 436 553 l 457 553 l 469 556 q 718 682 643 608 q 793 824 793 756 l 793 824 q 790 851 793 843 l 790 851 q 774 883 786 869 q 739 917 761 897 l 739 917 q 708 947 718 933 q 697 975 697 960 l 697 975 q 720 1024 697 1006 q 782 1042 743 1042 l 782 1042 q 811 1040 794 1042 q 836 1038 828 1039 l 836 1038 q 913 1031 871 1031 l 913 1031 q 988 1036 943 1031 l 988 1036 q 1060 1042 1032 1042 l 1060 1042 q 1131 975 1131 1042 l 1131 975 q 1060 838 1131 925 q 877 660 990 750 q 644 514 764 571 l 644 514 q 784 455 728 503 q 872 350 840 407 q 935 211 903 293 l 935 211 q 974 125 958 151 q 1008 99 989 99 l 1008 99 q 1039 153 1039 99 l 1039 153 q 1014 285 1039 203 q 954 440 989 367 l 954 440 q 942 492 942 465 l 942 492 q 976 564 942 535 q 1074 593 1010 593 l 1074 593 q 1185 549 1144 593 q 1225 421 1225 504 l 1225 421 q 1160 99 1225 215 q 976 -22 1094 -17 l 976 -22 z "},"Ķ":{"ha":1281,"x_min":83,"x_max":1225,"o":"m 976 -22 q 834 6 886 -26 q 758 83 782 39 q 697 219 733 128 l 697 219 q 647 322 672 281 q 577 396 621 364 q 465 439 533 428 l 465 439 l 456 440 q 436 418 436 440 l 436 418 q 479 183 436 239 l 479 183 q 509 150 494 163 q 544 122 524 138 l 544 122 q 576 92 567 106 q 586 54 586 79 l 586 54 q 563 10 586 26 q 501 -7 540 -7 l 501 -7 q 421 -1 474 -7 l 421 -1 q 335 4 365 4 l 335 4 q 260 -1 307 4 l 260 -1 q 168 -7 207 -7 l 168 -7 q 106 10 129 -7 q 83 54 83 26 l 83 54 q 93 92 83 79 q 125 122 103 106 l 125 122 q 160 150 146 138 q 190 183 175 163 l 190 183 q 224 283 214 215 q 233 450 233 351 l 233 450 l 233 585 q 224 751 233 683 q 190 851 214 819 l 190 851 q 132 915 171 876 l 132 915 q 105 945 113 935 q 97 975 97 956 l 97 975 q 120 1024 97 1006 q 182 1042 143 1042 l 182 1042 q 217 1040 200 1042 q 246 1038 233 1039 l 246 1038 q 335 1031 292 1031 l 335 1031 q 413 1036 365 1031 l 413 1036 q 488 1042 460 1042 l 488 1042 q 549 1024 526 1042 q 572 975 572 1006 l 572 975 q 565 945 572 956 q 538 915 557 935 l 538 915 q 479 851 499 876 l 479 851 q 436 583 436 794 l 436 583 q 457 553 436 553 l 457 553 l 469 556 q 718 682 643 608 q 793 824 793 756 l 793 824 q 790 851 793 843 l 790 851 q 774 883 786 869 q 739 917 761 897 l 739 917 q 708 947 718 933 q 697 975 697 960 l 697 975 q 720 1024 697 1006 q 782 1042 743 1042 l 782 1042 q 811 1040 794 1042 q 836 1038 828 1039 l 836 1038 q 913 1031 871 1031 l 913 1031 q 988 1036 943 1031 l 988 1036 q 1060 1042 1032 1042 l 1060 1042 q 1131 975 1131 1042 l 1131 975 q 1060 838 1131 925 q 877 660 990 750 q 644 514 764 571 l 644 514 q 784 455 728 503 q 872 350 840 407 q 935 211 903 293 l 935 211 q 974 125 958 151 q 1008 99 989 99 l 1008 99 q 1039 153 1039 99 l 1039 153 q 1014 285 1039 203 q 954 440 989 367 l 954 440 q 942 492 942 465 l 942 492 q 976 564 942 535 q 1074 593 1010 593 l 1074 593 q 1185 549 1144 593 q 1225 421 1225 504 l 1225 421 q 1160 99 1225 215 q 976 -22 1094 -17 l 976 -22 z m 564 -418 q 515 -429 535 -429 l 515 -429 q 478 -408 489 -429 l 478 -408 q 485 -377 471 -393 q 535 -339 499 -361 l 535 -339 q 584 -301 568 -318 q 600 -260 600 -283 l 600 -260 q 586 -226 600 -242 q 547 -193 572 -211 l 547 -193 q 510 -160 522 -174 q 497 -129 497 -146 l 497 -129 q 533 -76 497 -106 l 533 -76 q 642 -35 586 -35 l 642 -35 q 749 -76 697 -35 l 749 -76 q 803 -174 803 -121 l 803 -174 q 779 -251 803 -208 l 779 -251 q 692 -344 757 -293 q 564 -418 626 -396 l 564 -418 z "},"L":{"ha":1033,"x_min":83,"x_max":1006,"o":"m 857 -8 q 703 -3 831 -8 l 703 -3 q 474 4 506 4 l 474 4 q 286 -3 432 4 l 286 -3 q 228 -6 258 -4 q 168 -7 199 -7 l 168 -7 q 106 10 129 -7 q 83 54 83 26 l 83 54 q 93 92 83 79 q 125 122 103 106 l 125 122 q 160 150 146 138 q 190 183 175 163 l 190 183 q 224 283 214 215 q 233 450 233 351 l 233 450 l 233 585 q 224 751 233 683 q 190 851 214 819 l 190 851 q 132 915 171 876 l 132 915 q 105 945 113 935 q 97 975 97 956 l 97 975 q 120 1024 97 1006 q 182 1042 143 1042 l 182 1042 q 217 1040 200 1042 q 246 1038 233 1039 l 246 1038 q 335 1031 292 1031 l 335 1031 q 413 1036 365 1031 l 413 1036 q 488 1042 460 1042 l 488 1042 q 549 1024 526 1042 q 572 975 572 1006 l 572 975 q 565 945 572 956 q 538 915 557 935 l 538 915 q 479 851 499 876 l 479 851 q 446 751 456 819 q 436 585 436 683 l 436 585 l 436 367 q 444 234 436 283 q 481 155 451 185 q 571 125 510 125 l 571 125 q 710 173 651 125 q 832 331 768 221 l 832 331 q 894 422 869 396 q 950 440 918 447 l 950 440 q 992 386 978 435 q 1006 263 1006 338 l 1006 263 q 1000 169 1006 233 l 1000 169 q 953 33 990 74 q 857 -8 917 -8 l 857 -8 z "},"Ĺ":{"ha":1033,"x_min":83,"x_max":1006,"o":"m 857 -8 q 703 -3 831 -8 l 703 -3 q 474 4 506 4 l 474 4 q 286 -3 432 4 l 286 -3 q 228 -6 258 -4 q 168 -7 199 -7 l 168 -7 q 106 10 129 -7 q 83 54 83 26 l 83 54 q 93 92 83 79 q 125 122 103 106 l 125 122 q 160 150 146 138 q 190 183 175 163 l 190 183 q 224 283 214 215 q 233 450 233 351 l 233 450 l 233 585 q 224 751 233 683 q 190 851 214 819 l 190 851 q 132 915 171 876 l 132 915 q 105 945 113 935 q 97 975 97 956 l 97 975 q 120 1024 97 1006 q 182 1042 143 1042 l 182 1042 q 217 1040 200 1042 q 246 1038 233 1039 l 246 1038 q 335 1031 292 1031 l 335 1031 q 413 1036 365 1031 l 413 1036 q 488 1042 460 1042 l 488 1042 q 549 1024 526 1042 q 572 975 572 1006 l 572 975 q 565 945 572 956 q 538 915 557 935 l 538 915 q 479 851 499 876 l 479 851 q 446 751 456 819 q 436 585 436 683 l 436 585 l 436 367 q 444 234 436 283 q 481 155 451 185 q 571 125 510 125 l 571 125 q 710 173 651 125 q 832 331 768 221 l 832 331 q 894 422 869 396 q 950 440 918 447 l 950 440 q 992 386 978 435 q 1006 263 1006 338 l 1006 263 q 1000 169 1006 233 l 1000 169 q 953 33 990 74 q 857 -8 917 -8 l 857 -8 z m 192 1142 q 189 1154 189 1146 l 189 1154 q 223 1227 189 1181 q 305 1319 257 1274 q 388 1383 353 1364 l 388 1383 q 457 1404 425 1404 l 457 1404 q 538 1361 510 1404 l 538 1361 q 554 1308 554 1336 l 554 1308 q 541 1261 554 1283 q 501 1222 528 1239 l 501 1222 q 366 1160 453 1192 q 229 1129 279 1129 l 229 1129 q 192 1142 200 1129 l 192 1142 z "},"Ľ":{"ha":1033,"x_min":78,"x_max":1006,"o":"m 857 -8 q 703 -3 831 -8 l 703 -3 q 474 4 506 4 l 474 4 q 286 -3 432 4 l 286 -3 q 228 -6 258 -4 q 168 -7 199 -7 l 168 -7 q 106 10 129 -7 q 83 54 83 26 l 83 54 q 93 92 83 79 q 125 122 103 106 l 125 122 q 160 150 146 138 q 190 183 175 163 l 190 183 q 224 283 214 215 q 233 450 233 351 l 233 450 l 233 585 q 224 751 233 683 q 190 851 214 819 l 190 851 q 132 915 171 876 l 132 915 q 105 945 113 935 q 97 975 97 956 l 97 975 q 120 1024 97 1006 q 182 1042 143 1042 l 182 1042 q 217 1040 200 1042 q 246 1038 233 1039 l 246 1038 q 335 1031 292 1031 l 335 1031 q 413 1036 365 1031 l 413 1036 q 488 1042 460 1042 l 488 1042 q 549 1024 526 1042 q 572 975 572 1006 l 572 975 q 565 945 572 956 q 538 915 557 935 l 538 915 q 479 851 499 876 l 479 851 q 446 751 456 819 q 436 585 436 683 l 436 585 l 436 367 q 444 234 436 283 q 481 155 451 185 q 571 125 510 125 l 571 125 q 710 173 651 125 q 832 331 768 221 l 832 331 q 894 422 869 396 q 950 440 918 447 l 950 440 q 992 386 978 435 q 1006 263 1006 338 l 1006 263 q 1000 169 1006 233 l 1000 169 q 953 33 990 74 q 857 -8 917 -8 l 857 -8 z m 86 1382 q 110 1392 94 1392 l 110 1392 q 179 1361 140 1392 l 179 1361 q 328 1279 286 1279 l 328 1279 q 388 1298 350 1279 q 471 1351 425 1317 l 471 1351 q 554 1392 525 1392 l 554 1392 q 578 1383 569 1392 l 578 1383 q 590 1356 590 1371 l 590 1356 q 551 1289 590 1328 l 551 1289 l 404 1142 q 360 1102 376 1114 q 331 1090 344 1090 l 331 1090 q 299 1102 315 1090 q 258 1142 283 1114 l 258 1142 l 110 1297 q 78 1358 78 1331 l 78 1358 q 86 1382 78 1372 l 86 1382 z "},"Ļ":{"ha":1033,"x_min":83,"x_max":1006,"o":"m 857 -8 q 703 -3 831 -8 l 703 -3 q 474 4 506 4 l 474 4 q 286 -3 432 4 l 286 -3 q 228 -6 258 -4 q 168 -7 199 -7 l 168 -7 q 106 10 129 -7 q 83 54 83 26 l 83 54 q 93 92 83 79 q 125 122 103 106 l 125 122 q 160 150 146 138 q 190 183 175 163 l 190 183 q 224 283 214 215 q 233 450 233 351 l 233 450 l 233 585 q 224 751 233 683 q 190 851 214 819 l 190 851 q 132 915 171 876 l 132 915 q 105 945 113 935 q 97 975 97 956 l 97 975 q 120 1024 97 1006 q 182 1042 143 1042 l 182 1042 q 217 1040 200 1042 q 246 1038 233 1039 l 246 1038 q 335 1031 292 1031 l 335 1031 q 413 1036 365 1031 l 413 1036 q 488 1042 460 1042 l 488 1042 q 549 1024 526 1042 q 572 975 572 1006 l 572 975 q 565 945 572 956 q 538 915 557 935 l 538 915 q 479 851 499 876 l 479 851 q 446 751 456 819 q 436 585 436 683 l 436 585 l 436 367 q 444 234 436 283 q 481 155 451 185 q 571 125 510 125 l 571 125 q 710 173 651 125 q 832 331 768 221 l 832 331 q 894 422 869 396 q 950 440 918 447 l 950 440 q 992 386 978 435 q 1006 263 1006 338 l 1006 263 q 1000 169 1006 233 l 1000 169 q 953 33 990 74 q 857 -8 917 -8 l 857 -8 z m 399 -418 q 350 -429 369 -429 l 350 -429 q 313 -408 324 -429 l 313 -408 q 319 -377 306 -393 q 369 -339 333 -361 l 369 -339 q 419 -301 403 -318 q 435 -260 435 -283 l 435 -260 q 421 -226 435 -242 q 382 -193 407 -211 l 382 -193 q 344 -160 357 -174 q 332 -129 332 -146 l 332 -129 q 368 -76 332 -106 l 368 -76 q 476 -35 421 -35 l 476 -35 q 583 -76 532 -35 l 583 -76 q 638 -174 638 -121 l 638 -174 q 614 -251 638 -208 l 614 -251 q 526 -344 592 -293 q 399 -418 461 -396 l 399 -418 z "},"Ł":{"ha":1033,"x_min":51,"x_max":1006,"o":"m 161 318 q 117 303 138 303 l 117 303 q 63 338 85 303 l 63 338 q 51 374 51 356 l 51 374 q 89 433 51 411 l 89 433 q 172 481 140 464 l 172 481 l 233 515 l 233 585 q 224 751 233 683 q 190 851 214 819 l 190 851 q 132 915 171 876 l 132 915 q 105 945 113 935 q 97 975 97 956 l 97 975 q 120 1024 97 1006 q 182 1042 143 1042 l 182 1042 q 217 1040 200 1042 q 246 1038 233 1039 l 246 1038 q 335 1031 292 1031 l 335 1031 q 413 1036 365 1031 l 413 1036 q 488 1042 460 1042 l 488 1042 q 549 1024 526 1042 q 572 975 572 1006 l 572 975 q 565 945 572 956 q 538 915 557 935 l 538 915 q 479 851 499 876 l 479 851 q 438 646 443 804 l 438 646 q 557 728 528 710 l 557 728 q 603 742 579 742 l 603 742 q 654 711 638 742 l 654 711 q 665 672 665 689 l 665 672 q 629 613 665 636 l 629 613 q 464 513 592 589 l 464 513 l 436 496 l 436 367 q 444 234 436 283 q 481 155 451 185 q 571 125 510 125 l 571 125 q 710 173 651 125 q 832 331 768 221 l 832 331 q 894 422 869 396 q 950 440 918 447 l 950 440 q 992 386 978 435 q 1006 263 1006 338 l 1006 263 q 1000 169 1006 233 l 1000 169 q 953 33 990 74 q 857 -8 917 -8 l 857 -8 q 703 -3 831 -8 l 703 -3 q 474 4 506 4 l 474 4 q 286 -3 432 4 l 286 -3 q 228 -6 258 -4 q 168 -7 199 -7 l 168 -7 q 106 10 129 -7 q 83 54 83 26 l 83 54 q 93 92 83 79 q 125 122 103 106 l 125 122 q 160 150 146 138 q 190 183 175 163 l 190 183 q 232 365 225 229 l 232 365 q 161 318 188 335 l 161 318 z "},"M":{"ha":1640,"x_min":28,"x_max":1626,"o":"m 775 -15 q 747 -1 757 -15 q 719 46 736 13 l 719 46 l 465 650 q 451 665 460 665 l 451 665 q 438 646 443 665 l 438 646 l 382 450 q 350 327 361 375 q 339 243 339 279 l 339 243 q 354 183 339 203 l 354 183 q 384 150 369 163 q 419 122 399 138 l 419 122 q 451 92 442 106 q 461 54 461 79 l 461 54 q 438 10 461 26 q 376 -7 415 -7 l 376 -7 q 293 0 353 -7 l 293 0 q 244 4 267 4 l 244 4 q 206 0 229 4 l 206 0 q 113 -7 150 -7 l 113 -7 q 51 10 74 -7 q 28 54 28 26 l 28 54 q 38 92 28 79 q 69 122 47 106 l 69 122 q 105 150 90 138 q 135 183 119 163 l 135 183 q 191 290 160 217 q 247 450 222 364 l 247 450 l 288 585 q 319 706 308 657 q 331 790 331 754 l 331 790 q 315 851 331 831 l 315 851 q 278 888 299 875 q 225 917 257 901 l 225 917 q 180 942 193 931 q 167 975 167 954 l 167 975 q 190 1024 167 1006 q 251 1042 213 1042 l 251 1042 q 350 1036 278 1042 l 350 1036 q 425 1031 414 1031 l 425 1031 q 515 1019 486 1031 q 559 981 544 1007 q 594 890 574 954 l 594 890 q 643 756 614 825 l 643 756 l 796 386 q 814 363 804 363 l 814 363 q 832 388 822 363 l 832 388 l 964 763 q 1003 907 982 817 l 1003 907 q 1030 996 1015 971 q 1089 1031 1044 1021 q 1238 1042 1133 1042 l 1238 1042 l 1399 1042 q 1458 1028 1440 1042 q 1475 989 1475 1015 l 1475 989 q 1460 953 1475 967 q 1414 921 1446 939 l 1414 921 q 1362 888 1381 901 q 1326 851 1343 874 l 1326 851 q 1314 804 1314 835 l 1314 804 q 1322 742 1314 776 q 1349 646 1331 707 l 1349 646 q 1367 585 1357 619 l 1367 585 l 1404 450 q 1460 293 1428 367 q 1519 183 1492 219 l 1519 183 q 1549 150 1535 163 q 1585 122 1564 138 l 1585 122 q 1617 92 1607 106 q 1626 54 1626 79 l 1626 54 q 1603 10 1626 26 q 1542 -7 1581 -7 l 1542 -7 q 1454 -1 1515 -7 l 1454 -1 q 1361 4 1393 4 l 1361 4 q 1286 -1 1333 4 l 1286 -1 q 1194 -7 1233 -7 l 1194 -7 q 1133 10 1156 -7 q 1110 54 1110 26 l 1110 54 q 1119 92 1110 79 q 1151 122 1129 106 l 1151 122 q 1187 150 1172 138 q 1217 183 1201 163 l 1217 183 q 1231 238 1231 203 l 1231 238 q 1224 300 1231 265 q 1201 393 1217 335 l 1201 393 l 1188 450 l 1138 650 q 1110 711 1124 711 l 1110 711 q 1081 667 1100 711 l 1081 667 l 832 46 q 808 0 821 15 q 775 -15 794 -15 l 775 -15 z "},"N":{"ha":1388,"x_min":83,"x_max":1318,"o":"m 1135 -67 q 1063 -19 1101 -67 l 1063 -19 l 949 117 q 701 408 846 238 q 400 764 557 579 l 400 764 q 386 775 392 775 l 386 775 q 378 758 381 775 l 378 758 q 367 585 367 699 l 367 585 l 367 450 q 376 283 367 351 q 410 183 386 215 l 410 183 q 440 150 425 163 q 475 122 454 138 l 475 122 q 507 92 497 106 q 517 54 517 79 l 517 54 q 494 10 517 26 q 432 -7 471 -7 l 432 -7 q 364 -1 403 -7 l 364 -1 q 300 4 325 4 l 300 4 q 246 -1 276 4 l 246 -1 q 168 -7 207 -7 l 168 -7 q 106 10 129 -7 q 83 54 83 26 l 83 54 q 93 92 83 79 q 125 122 103 106 l 125 122 q 160 150 146 138 q 190 183 175 163 l 190 183 q 224 283 214 215 q 233 450 233 351 l 233 450 l 233 585 q 224 751 233 683 q 190 851 214 819 l 190 851 q 132 915 171 876 l 132 915 q 105 945 113 935 q 97 975 97 956 l 97 975 q 120 1024 97 1006 q 182 1042 143 1042 l 182 1042 q 235 1036 201 1042 l 235 1036 q 300 1031 271 1031 l 300 1031 q 357 1036 326 1031 l 357 1036 q 418 1042 388 1042 l 418 1042 q 470 1027 449 1042 q 513 988 492 1013 l 513 988 l 1031 351 q 1042 344 1036 344 l 1042 344 q 1049 360 1049 344 l 1049 360 l 1049 585 q 1039 751 1049 683 q 1006 851 1029 819 l 1006 851 q 947 915 986 876 l 947 915 q 920 945 928 935 q 913 975 913 956 l 913 975 q 935 1024 913 1006 q 997 1042 958 1042 l 997 1042 q 1050 1036 1017 1042 l 1050 1036 q 1115 1031 1086 1031 l 1115 1031 q 1172 1036 1142 1031 l 1172 1036 q 1233 1042 1203 1042 l 1233 1042 q 1295 1024 1272 1042 q 1318 975 1318 1006 l 1318 975 q 1310 945 1318 956 q 1283 915 1303 935 l 1283 915 q 1225 851 1244 876 l 1225 851 q 1192 751 1201 819 q 1182 585 1182 683 l 1182 585 l 1182 31 q 1173 -44 1182 -21 q 1135 -67 1164 -67 l 1135 -67 z "},"Ń":{"ha":1388,"x_min":83,"x_max":1318,"o":"m 1135 -67 q 1063 -19 1101 -67 l 1063 -19 l 949 117 q 701 408 846 238 q 400 764 557 579 l 400 764 q 386 775 392 775 l 386 775 q 378 758 381 775 l 378 758 q 367 585 367 699 l 367 585 l 367 450 q 376 283 367 351 q 410 183 386 215 l 410 183 q 440 150 425 163 q 475 122 454 138 l 475 122 q 507 92 497 106 q 517 54 517 79 l 517 54 q 494 10 517 26 q 432 -7 471 -7 l 432 -7 q 364 -1 403 -7 l 364 -1 q 300 4 325 4 l 300 4 q 246 -1 276 4 l 246 -1 q 168 -7 207 -7 l 168 -7 q 106 10 129 -7 q 83 54 83 26 l 83 54 q 93 92 83 79 q 125 122 103 106 l 125 122 q 160 150 146 138 q 190 183 175 163 l 190 183 q 224 283 214 215 q 233 450 233 351 l 233 450 l 233 585 q 224 751 233 683 q 190 851 214 819 l 190 851 q 132 915 171 876 l 132 915 q 105 945 113 935 q 97 975 97 956 l 97 975 q 120 1024 97 1006 q 182 1042 143 1042 l 182 1042 q 235 1036 201 1042 l 235 1036 q 300 1031 271 1031 l 300 1031 q 357 1036 326 1031 l 357 1036 q 418 1042 388 1042 l 418 1042 q 470 1027 449 1042 q 513 988 492 1013 l 513 988 l 1031 351 q 1042 344 1036 344 l 1042 344 q 1049 360 1049 344 l 1049 360 l 1049 585 q 1039 751 1049 683 q 1006 851 1029 819 l 1006 851 q 947 915 986 876 l 947 915 q 920 945 928 935 q 913 975 913 956 l 913 975 q 935 1024 913 1006 q 997 1042 958 1042 l 997 1042 q 1050 1036 1017 1042 l 1050 1036 q 1115 1031 1086 1031 l 1115 1031 q 1172 1036 1142 1031 l 1172 1036 q 1233 1042 1203 1042 l 1233 1042 q 1295 1024 1272 1042 q 1318 975 1318 1006 l 1318 975 q 1310 945 1318 956 q 1283 915 1303 935 l 1283 915 q 1225 851 1244 876 l 1225 851 q 1192 751 1201 819 q 1182 585 1182 683 l 1182 585 l 1182 31 q 1173 -44 1182 -21 q 1135 -67 1164 -67 l 1135 -67 z m 560 1142 q 557 1154 557 1146 l 557 1154 q 591 1227 557 1181 q 673 1319 625 1274 q 756 1383 721 1364 l 756 1383 q 825 1404 793 1404 l 825 1404 q 906 1361 878 1404 l 906 1361 q 922 1308 922 1336 l 922 1308 q 909 1261 922 1283 q 869 1222 896 1239 l 869 1222 q 734 1160 821 1192 q 597 1129 647 1129 l 597 1129 q 560 1142 568 1129 l 560 1142 z "},"Ň":{"ha":1388,"x_min":83,"x_max":1318,"o":"m 1135 -67 q 1063 -19 1101 -67 l 1063 -19 l 949 117 q 701 408 846 238 q 400 764 557 579 l 400 764 q 386 775 392 775 l 386 775 q 378 758 381 775 l 378 758 q 367 585 367 699 l 367 585 l 367 450 q 376 283 367 351 q 410 183 386 215 l 410 183 q 440 150 425 163 q 475 122 454 138 l 475 122 q 507 92 497 106 q 517 54 517 79 l 517 54 q 494 10 517 26 q 432 -7 471 -7 l 432 -7 q 364 -1 403 -7 l 364 -1 q 300 4 325 4 l 300 4 q 246 -1 276 4 l 246 -1 q 168 -7 207 -7 l 168 -7 q 106 10 129 -7 q 83 54 83 26 l 83 54 q 93 92 83 79 q 125 122 103 106 l 125 122 q 160 150 146 138 q 190 183 175 163 l 190 183 q 224 283 214 215 q 233 450 233 351 l 233 450 l 233 585 q 224 751 233 683 q 190 851 214 819 l 190 851 q 132 915 171 876 l 132 915 q 105 945 113 935 q 97 975 97 956 l 97 975 q 120 1024 97 1006 q 182 1042 143 1042 l 182 1042 q 235 1036 201 1042 l 235 1036 q 300 1031 271 1031 l 300 1031 q 357 1036 326 1031 l 357 1036 q 418 1042 388 1042 l 418 1042 q 470 1027 449 1042 q 513 988 492 1013 l 513 988 l 1031 351 q 1042 344 1036 344 l 1042 344 q 1049 360 1049 344 l 1049 360 l 1049 585 q 1039 751 1049 683 q 1006 851 1029 819 l 1006 851 q 947 915 986 876 l 947 915 q 920 945 928 935 q 913 975 913 956 l 913 975 q 935 1024 913 1006 q 997 1042 958 1042 l 997 1042 q 1050 1036 1017 1042 l 1050 1036 q 1115 1031 1086 1031 l 1115 1031 q 1172 1036 1142 1031 l 1172 1036 q 1233 1042 1203 1042 l 1233 1042 q 1295 1024 1272 1042 q 1318 975 1318 1006 l 1318 975 q 1310 945 1318 956 q 1283 915 1303 935 l 1283 915 q 1225 851 1244 876 l 1225 851 q 1192 751 1201 819 q 1182 585 1182 683 l 1182 585 l 1182 31 q 1173 -44 1182 -21 q 1135 -67 1164 -67 l 1135 -67 z m 454 1382 q 478 1392 463 1392 l 478 1392 q 547 1361 508 1392 l 547 1361 q 696 1279 654 1279 l 696 1279 q 756 1298 718 1279 q 839 1351 793 1317 l 839 1351 q 922 1392 893 1392 l 922 1392 q 946 1383 938 1392 l 946 1383 q 958 1356 958 1371 l 958 1356 q 919 1289 958 1328 l 919 1289 l 772 1142 q 728 1102 744 1114 q 699 1090 713 1090 l 699 1090 q 667 1102 683 1090 q 626 1142 651 1114 l 626 1142 l 478 1297 q 446 1358 446 1331 l 446 1358 q 454 1382 446 1372 l 454 1382 z "},"Ņ":{"ha":1388,"x_min":83,"x_max":1318,"o":"m 1135 -67 q 1063 -19 1101 -67 l 1063 -19 l 949 117 q 701 408 846 238 q 400 764 557 579 l 400 764 q 386 775 392 775 l 386 775 q 378 758 381 775 l 378 758 q 367 585 367 699 l 367 585 l 367 450 q 376 283 367 351 q 410 183 386 215 l 410 183 q 440 150 425 163 q 475 122 454 138 l 475 122 q 507 92 497 106 q 517 54 517 79 l 517 54 q 494 10 517 26 q 432 -7 471 -7 l 432 -7 q 364 -1 403 -7 l 364 -1 q 300 4 325 4 l 300 4 q 246 -1 276 4 l 246 -1 q 168 -7 207 -7 l 168 -7 q 106 10 129 -7 q 83 54 83 26 l 83 54 q 93 92 83 79 q 125 122 103 106 l 125 122 q 160 150 146 138 q 190 183 175 163 l 190 183 q 224 283 214 215 q 233 450 233 351 l 233 450 l 233 585 q 224 751 233 683 q 190 851 214 819 l 190 851 q 132 915 171 876 l 132 915 q 105 945 113 935 q 97 975 97 956 l 97 975 q 120 1024 97 1006 q 182 1042 143 1042 l 182 1042 q 235 1036 201 1042 l 235 1036 q 300 1031 271 1031 l 300 1031 q 357 1036 326 1031 l 357 1036 q 418 1042 388 1042 l 418 1042 q 470 1027 449 1042 q 513 988 492 1013 l 513 988 l 1031 351 q 1042 344 1036 344 l 1042 344 q 1049 360 1049 344 l 1049 360 l 1049 585 q 1039 751 1049 683 q 1006 851 1029 819 l 1006 851 q 947 915 986 876 l 947 915 q 920 945 928 935 q 913 975 913 956 l 913 975 q 935 1024 913 1006 q 997 1042 958 1042 l 997 1042 q 1050 1036 1017 1042 l 1050 1036 q 1115 1031 1086 1031 l 1115 1031 q 1172 1036 1142 1031 l 1172 1036 q 1233 1042 1203 1042 l 1233 1042 q 1295 1024 1272 1042 q 1318 975 1318 1006 l 1318 975 q 1310 945 1318 956 q 1283 915 1303 935 l 1283 915 q 1225 851 1244 876 l 1225 851 q 1192 751 1201 819 q 1182 585 1182 683 l 1182 585 l 1182 31 q 1173 -44 1182 -21 q 1135 -67 1164 -67 l 1135 -67 z m 583 -418 q 535 -429 554 -429 l 535 -429 q 497 -408 508 -429 l 497 -408 q 504 -377 490 -393 q 554 -339 518 -361 l 554 -339 q 603 -301 588 -318 q 619 -260 619 -283 l 619 -260 q 606 -226 619 -242 q 567 -193 592 -211 l 567 -193 q 529 -160 542 -174 q 517 -129 517 -146 l 517 -129 q 553 -76 517 -106 l 553 -76 q 661 -35 606 -35 l 661 -35 q 768 -76 717 -35 l 768 -76 q 822 -174 822 -121 l 822 -174 q 799 -251 822 -208 l 799 -251 q 711 -344 776 -293 q 583 -418 646 -396 l 583 -418 z "},"Ñ":{"ha":1388,"x_min":83,"x_max":1318,"o":"m 1135 -67 q 1063 -19 1101 -67 l 1063 -19 l 949 117 q 701 408 846 238 q 400 764 557 579 l 400 764 q 386 775 392 775 l 386 775 q 378 758 381 775 l 378 758 q 367 585 367 699 l 367 585 l 367 450 q 376 283 367 351 q 410 183 386 215 l 410 183 q 440 150 425 163 q 475 122 454 138 l 475 122 q 507 92 497 106 q 517 54 517 79 l 517 54 q 494 10 517 26 q 432 -7 471 -7 l 432 -7 q 364 -1 403 -7 l 364 -1 q 300 4 325 4 l 300 4 q 246 -1 276 4 l 246 -1 q 168 -7 207 -7 l 168 -7 q 106 10 129 -7 q 83 54 83 26 l 83 54 q 93 92 83 79 q 125 122 103 106 l 125 122 q 160 150 146 138 q 190 183 175 163 l 190 183 q 224 283 214 215 q 233 450 233 351 l 233 450 l 233 585 q 224 751 233 683 q 190 851 214 819 l 190 851 q 132 915 171 876 l 132 915 q 105 945 113 935 q 97 975 97 956 l 97 975 q 120 1024 97 1006 q 182 1042 143 1042 l 182 1042 q 235 1036 201 1042 l 235 1036 q 300 1031 271 1031 l 300 1031 q 357 1036 326 1031 l 357 1036 q 418 1042 388 1042 l 418 1042 q 470 1027 449 1042 q 513 988 492 1013 l 513 988 l 1031 351 q 1042 344 1036 344 l 1042 344 q 1049 360 1049 344 l 1049 360 l 1049 585 q 1039 751 1049 683 q 1006 851 1029 819 l 1006 851 q 947 915 986 876 l 947 915 q 920 945 928 935 q 913 975 913 956 l 913 975 q 935 1024 913 1006 q 997 1042 958 1042 l 997 1042 q 1050 1036 1017 1042 l 1050 1036 q 1115 1031 1086 1031 l 1115 1031 q 1172 1036 1142 1031 l 1172 1036 q 1233 1042 1203 1042 l 1233 1042 q 1295 1024 1272 1042 q 1318 975 1318 1006 l 1318 975 q 1310 945 1318 956 q 1283 915 1303 935 l 1283 915 q 1225 851 1244 876 l 1225 851 q 1192 751 1201 819 q 1182 585 1182 683 l 1182 585 l 1182 31 q 1173 -44 1182 -21 q 1135 -67 1164 -67 l 1135 -67 z m 622 1339 q 517 1287 556 1339 q 479 1160 479 1235 l 479 1160 q 482 1125 479 1147 l 482 1125 q 495 1094 485 1103 q 518 1085 506 1085 l 518 1085 q 538 1092 529 1085 q 546 1117 546 1100 l 546 1117 q 556 1163 546 1142 q 600 1185 567 1185 l 600 1185 q 632 1174 617 1185 q 669 1140 647 1164 l 669 1140 q 735 1085 704 1104 q 813 1065 765 1065 l 813 1065 q 918 1118 878 1065 q 958 1242 958 1171 l 958 1242 q 954 1283 958 1263 l 954 1283 q 940 1314 950 1304 q 919 1324 929 1324 l 919 1324 q 899 1315 908 1324 q 890 1292 890 1307 l 890 1292 q 835 1224 890 1224 l 835 1224 q 811 1231 822 1224 q 789 1249 800 1239 q 775 1263 778 1260 l 775 1263 q 706 1319 739 1299 q 622 1339 674 1339 l 622 1339 z "},"Ŋ":{"ha":1360,"x_min":83,"x_max":1318,"o":"m 1075 -271 q 951 -303 1018 -303 l 951 -303 q 879 -292 913 -303 q 828 -264 846 -281 q 813 -231 810 -247 l 813 -231 q 828 -207 817 -214 q 869 -190 840 -200 l 869 -190 q 920 -172 900 -181 q 963 -146 940 -162 l 963 -146 q 1036 -26 1036 -89 l 1036 -26 q 1007 47 1036 13 l 1007 47 l 871 208 q 400 764 586 547 l 400 764 q 386 775 392 775 l 386 775 q 378 758 381 775 l 378 758 q 367 585 367 699 l 367 585 l 367 450 q 376 283 367 351 q 410 183 386 215 l 410 183 q 440 150 425 163 q 475 122 454 138 l 475 122 q 507 92 497 106 q 517 54 517 79 l 517 54 q 494 10 517 26 q 432 -7 471 -7 l 432 -7 q 364 -1 403 -7 l 364 -1 q 300 4 325 4 l 300 4 q 246 -1 276 4 l 246 -1 q 168 -7 207 -7 l 168 -7 q 106 10 129 -7 q 83 54 83 26 l 83 54 q 93 92 83 79 q 125 122 103 106 l 125 122 q 160 150 146 138 q 190 183 175 163 l 190 183 q 224 283 214 215 q 233 450 233 351 l 233 450 l 233 585 q 224 751 233 683 q 190 851 214 819 l 190 851 q 132 915 171 876 l 132 915 q 105 945 113 935 q 97 975 97 956 l 97 975 q 120 1024 97 1006 q 182 1042 143 1042 l 182 1042 q 235 1036 201 1042 l 235 1036 q 300 1031 271 1031 l 300 1031 q 357 1036 326 1031 l 357 1036 q 418 1042 388 1042 l 418 1042 q 470 1027 449 1042 q 513 988 492 1013 l 513 988 l 1031 351 q 1042 344 1036 344 l 1042 344 q 1049 360 1049 344 l 1049 360 l 1049 585 q 1039 751 1049 683 q 1006 851 1029 819 l 1006 851 q 947 915 986 876 l 947 915 q 920 945 928 935 q 913 975 913 956 l 913 975 q 935 1024 913 1006 q 997 1042 958 1042 l 997 1042 q 1050 1036 1017 1042 l 1050 1036 q 1115 1031 1086 1031 l 1115 1031 q 1172 1036 1142 1031 l 1172 1036 q 1233 1042 1203 1042 l 1233 1042 q 1295 1024 1272 1042 q 1318 975 1318 1006 l 1318 975 q 1310 945 1318 956 q 1283 915 1303 935 l 1283 915 q 1225 851 1244 876 l 1225 851 q 1192 751 1201 819 q 1182 585 1182 683 l 1182 585 l 1182 26 q 1156 -173 1181 -107 q 1075 -271 1131 -239 l 1075 -271 z "},"O":{"ha":1225,"x_min":42,"x_max":1183,"o":"m 613 -19 q 325 51 456 -19 q 118 244 194 121 q 42 518 42 367 l 42 518 q 118 788 42 664 q 326 983 194 911 q 613 1056 457 1056 l 613 1056 q 900 985 769 1056 q 1107 792 1031 915 q 1183 518 1183 669 l 1183 518 q 1107 249 1183 372 q 899 53 1031 125 q 613 -19 768 -19 l 613 -19 z m 660 149 q 798 186 738 149 q 892 290 858 224 q 925 438 925 356 l 925 438 q 880 665 925 554 q 752 846 835 776 q 565 915 669 915 l 565 915 q 427 878 488 915 q 333 775 367 840 q 300 628 300 710 l 300 628 q 345 400 300 511 q 473 219 390 289 q 660 149 556 149 l 660 149 z "},"Ó":{"ha":1225,"x_min":42,"x_max":1183,"o":"m 613 -19 q 325 51 456 -19 q 118 244 194 121 q 42 518 42 367 l 42 518 q 118 788 42 664 q 326 983 194 911 q 613 1056 457 1056 l 613 1056 q 900 985 769 1056 q 1107 792 1031 915 q 1183 518 1183 669 l 1183 518 q 1107 249 1183 372 q 899 53 1031 125 q 613 -19 768 -19 l 613 -19 z m 660 149 q 798 186 738 149 q 892 290 858 224 q 925 438 925 356 l 925 438 q 880 665 925 554 q 752 846 835 776 q 565 915 669 915 l 565 915 q 427 878 488 915 q 333 775 367 840 q 300 628 300 710 l 300 628 q 345 400 300 511 q 473 219 390 289 q 660 149 556 149 l 660 149 z m 471 1156 q 468 1168 468 1160 l 468 1168 q 502 1241 468 1194 q 584 1333 536 1288 q 667 1397 632 1378 l 667 1397 q 736 1418 704 1418 l 736 1418 q 817 1375 789 1418 l 817 1375 q 833 1322 833 1350 l 833 1322 q 820 1275 833 1297 q 781 1236 807 1253 l 781 1236 q 645 1174 732 1206 q 508 1143 558 1143 l 508 1143 q 471 1156 479 1143 l 471 1156 z "},"Ǒ":{"ha":1225,"x_min":42,"x_max":1183,"o":"m 613 -19 q 325 51 456 -19 q 118 244 194 121 q 42 518 42 367 l 42 518 q 118 788 42 664 q 326 983 194 911 q 613 1056 457 1056 l 613 1056 q 900 985 769 1056 q 1107 792 1031 915 q 1183 518 1183 669 l 1183 518 q 1107 249 1183 372 q 899 53 1031 125 q 613 -19 768 -19 l 613 -19 z m 660 149 q 798 186 738 149 q 892 290 858 224 q 925 438 925 356 l 925 438 q 880 665 925 554 q 752 846 835 776 q 565 915 669 915 l 565 915 q 427 878 488 915 q 333 775 367 840 q 300 628 300 710 l 300 628 q 345 400 300 511 q 473 219 390 289 q 660 149 556 149 l 660 149 z m 365 1396 q 389 1406 374 1406 l 389 1406 q 458 1375 419 1406 l 458 1375 q 607 1293 565 1293 l 607 1293 q 667 1312 629 1293 q 750 1365 704 1331 l 750 1365 q 833 1406 804 1406 l 833 1406 q 857 1397 849 1406 l 857 1397 q 869 1369 869 1385 l 869 1369 q 831 1303 869 1342 l 831 1303 l 683 1156 q 640 1116 656 1128 q 610 1104 624 1104 l 610 1104 q 578 1116 594 1104 q 538 1156 563 1128 l 538 1156 l 389 1311 q 357 1372 357 1344 l 357 1372 q 365 1396 357 1386 l 365 1396 z "},"Ô":{"ha":1225,"x_min":42,"x_max":1183,"o":"m 613 -19 q 325 51 456 -19 q 118 244 194 121 q 42 518 42 367 l 42 518 q 118 788 42 664 q 326 983 194 911 q 613 1056 457 1056 l 613 1056 q 900 985 769 1056 q 1107 792 1031 915 q 1183 518 1183 669 l 1183 518 q 1107 249 1183 372 q 899 53 1031 125 q 613 -19 768 -19 l 613 -19 z m 660 149 q 798 186 738 149 q 892 290 858 224 q 925 438 925 356 l 925 438 q 880 665 925 554 q 752 846 835 776 q 565 915 669 915 l 565 915 q 427 878 488 915 q 333 775 367 840 q 300 628 300 710 l 300 628 q 345 400 300 511 q 473 219 390 289 q 660 149 556 149 l 660 149 z m 365 1119 q 357 1143 357 1131 l 357 1143 q 389 1204 357 1171 l 389 1204 l 538 1360 q 578 1399 563 1388 q 610 1411 594 1411 l 610 1411 q 640 1399 624 1411 q 683 1360 656 1388 l 683 1360 l 831 1213 q 869 1146 869 1174 l 869 1146 q 857 1118 869 1131 l 857 1118 q 833 1110 849 1110 l 833 1110 q 750 1150 804 1110 l 750 1150 q 667 1203 704 1185 q 607 1222 629 1222 l 607 1222 q 458 1140 565 1222 l 458 1140 q 389 1110 419 1110 l 389 1110 q 365 1119 374 1110 l 365 1119 z "},"Ö":{"ha":1225,"x_min":42,"x_max":1183,"o":"m 613 -19 q 325 51 456 -19 q 118 244 194 121 q 42 518 42 367 l 42 518 q 118 788 42 664 q 326 983 194 911 q 613 1056 457 1056 l 613 1056 q 900 985 769 1056 q 1107 792 1031 915 q 1183 518 1183 669 l 1183 518 q 1107 249 1183 372 q 899 53 1031 125 q 613 -19 768 -19 l 613 -19 z m 660 149 q 798 186 738 149 q 892 290 858 224 q 925 438 925 356 l 925 438 q 880 665 925 554 q 752 846 835 776 q 565 915 669 915 l 565 915 q 427 878 488 915 q 333 775 367 840 q 300 628 300 710 l 300 628 q 345 400 300 511 q 473 219 390 289 q 660 149 556 149 l 660 149 z m 783 1124 q 703 1157 736 1124 q 669 1238 669 1190 l 669 1238 q 703 1317 669 1283 q 783 1350 736 1350 l 783 1350 q 863 1317 831 1350 q 896 1238 896 1283 l 896 1238 q 863 1157 896 1190 q 783 1124 831 1124 l 783 1124 z m 446 1124 q 365 1157 399 1124 q 332 1238 332 1190 l 332 1238 q 365 1317 332 1283 q 446 1350 399 1350 l 446 1350 q 526 1317 493 1350 q 558 1238 558 1283 l 558 1238 q 526 1157 558 1190 q 446 1124 493 1124 l 446 1124 z "},"Ò":{"ha":1225,"x_min":42,"x_max":1183,"o":"m 613 -19 q 325 51 456 -19 q 118 244 194 121 q 42 518 42 367 l 42 518 q 118 788 42 664 q 326 983 194 911 q 613 1056 457 1056 l 613 1056 q 900 985 769 1056 q 1107 792 1031 915 q 1183 518 1183 669 l 1183 518 q 1107 249 1183 372 q 899 53 1031 125 q 613 -19 768 -19 l 613 -19 z m 660 149 q 798 186 738 149 q 892 290 858 224 q 925 438 925 356 l 925 438 q 880 665 925 554 q 752 846 835 776 q 565 915 669 915 l 565 915 q 427 878 488 915 q 333 775 367 840 q 300 628 300 710 l 300 628 q 345 400 300 511 q 473 219 390 289 q 660 149 556 149 l 660 149 z m 792 1128 q 754 1115 783 1115 l 754 1115 q 617 1147 704 1115 q 482 1208 531 1178 l 482 1208 q 442 1247 456 1225 q 429 1294 429 1269 l 429 1294 q 446 1347 429 1322 l 446 1347 q 526 1390 474 1390 l 526 1390 q 596 1369 558 1390 l 596 1369 q 678 1305 631 1350 q 760 1213 726 1260 q 794 1140 794 1167 l 794 1140 q 792 1128 794 1132 l 792 1128 z "},"Ő":{"ha":1225,"x_min":42,"x_max":1183,"o":"m 613 -19 q 325 51 456 -19 q 118 244 194 121 q 42 518 42 367 l 42 518 q 118 788 42 664 q 326 983 194 911 q 613 1056 457 1056 l 613 1056 q 900 985 769 1056 q 1107 792 1031 915 q 1183 518 1183 669 l 1183 518 q 1107 249 1183 372 q 899 53 1031 125 q 613 -19 768 -19 l 613 -19 z m 660 149 q 798 186 738 149 q 892 290 858 224 q 925 438 925 356 l 925 438 q 880 665 925 554 q 752 846 835 776 q 565 915 669 915 l 565 915 q 427 878 488 915 q 333 775 367 840 q 300 628 300 710 l 300 628 q 345 400 300 511 q 473 219 390 289 q 660 149 556 149 l 660 149 z m 478 1117 q 467 1144 467 1124 l 467 1144 q 503 1267 467 1188 q 576 1388 540 1346 l 576 1388 q 676 1439 622 1439 l 676 1439 q 722 1426 701 1439 l 722 1426 q 761 1361 761 1403 l 761 1361 q 736 1299 761 1331 l 736 1299 q 610 1180 693 1246 q 490 1114 526 1114 l 490 1114 q 478 1117 483 1114 l 478 1117 z m 767 1117 q 756 1144 756 1124 l 756 1144 q 792 1267 756 1188 q 865 1388 829 1346 l 865 1388 q 965 1439 911 1439 l 965 1439 q 1011 1426 990 1439 l 1011 1426 q 1050 1361 1050 1403 l 1050 1361 q 1025 1299 1050 1331 l 1025 1299 q 899 1180 982 1246 q 779 1114 815 1114 l 779 1114 q 767 1117 772 1114 l 767 1117 z "},"Ō":{"ha":1225,"x_min":42,"x_max":1183,"o":"m 613 -19 q 325 51 456 -19 q 118 244 194 121 q 42 518 42 367 l 42 518 q 118 788 42 664 q 326 983 194 911 q 613 1056 457 1056 l 613 1056 q 900 985 769 1056 q 1107 792 1031 915 q 1183 518 1183 669 l 1183 518 q 1107 249 1183 372 q 899 53 1031 125 q 613 -19 768 -19 l 613 -19 z m 660 149 q 798 186 738 149 q 892 290 858 224 q 925 438 925 356 l 925 438 q 880 665 925 554 q 752 846 835 776 q 565 915 669 915 l 565 915 q 427 878 488 915 q 333 775 367 840 q 300 628 300 710 l 300 628 q 345 400 300 511 q 473 219 390 289 q 660 149 556 149 l 660 149 z m 390 1317 q 447 1315 417 1317 q 493 1313 478 1314 l 493 1313 q 610 1307 563 1307 l 610 1307 q 729 1313 660 1307 l 729 1313 q 777 1315 746 1314 q 835 1317 808 1317 l 835 1317 q 880 1292 863 1317 q 897 1228 897 1268 l 897 1228 q 880 1161 897 1186 q 835 1136 863 1136 l 835 1136 q 777 1138 808 1136 q 729 1140 746 1139 l 729 1140 q 610 1146 660 1146 l 610 1146 q 493 1140 563 1146 l 493 1140 q 447 1138 478 1139 q 390 1136 417 1136 l 390 1136 q 345 1161 363 1136 q 328 1228 328 1186 l 328 1228 q 345 1292 328 1268 q 390 1317 363 1317 l 390 1317 z "},"Ø":{"ha":1225,"x_min":42,"x_max":1183,"o":"m 128 35 q 103 92 103 57 l 103 92 q 131 153 103 125 l 131 153 l 161 183 q 73 338 104 253 q 42 518 42 422 l 42 518 q 118 788 42 664 q 326 983 194 911 q 613 1056 457 1056 l 613 1056 q 785 1032 703 1056 q 938 964 868 1008 l 938 964 l 979 1007 q 1044 1038 1010 1038 l 1044 1038 q 1097 1014 1074 1038 l 1097 1014 q 1124 953 1124 985 l 1124 953 q 1096 893 1124 921 l 1096 893 l 1061 857 q 1151 701 1119 788 q 1183 518 1183 615 l 1183 518 q 1107 249 1183 372 q 899 53 1031 125 q 613 -19 768 -19 l 613 -19 q 438 5 522 -19 q 283 75 354 29 l 283 75 l 249 38 q 188 8 219 8 l 188 8 q 128 35 157 8 l 128 35 z m 660 149 q 798 186 738 149 q 892 290 858 224 q 925 438 925 356 l 925 438 q 872 682 925 568 l 872 682 q 654 478 733 557 l 654 478 q 440 250 571 394 l 440 250 q 541 175 485 201 q 660 149 597 149 l 660 149 z m 300 628 q 361 367 300 486 l 361 367 q 568 563 492 486 l 568 563 q 793 806 667 661 l 793 806 q 565 915 694 915 l 565 915 q 427 878 488 915 q 333 775 367 840 q 300 628 300 710 l 300 628 z "},"Õ":{"ha":1225,"x_min":42,"x_max":1183,"o":"m 613 -19 q 325 51 456 -19 q 118 244 194 121 q 42 518 42 367 l 42 518 q 118 788 42 664 q 326 983 194 911 q 613 1056 457 1056 l 613 1056 q 900 985 769 1056 q 1107 792 1031 915 q 1183 518 1183 669 l 1183 518 q 1107 249 1183 372 q 899 53 1031 125 q 613 -19 768 -19 l 613 -19 z m 660 149 q 798 186 738 149 q 892 290 858 224 q 925 438 925 356 l 925 438 q 880 665 925 554 q 752 846 835 776 q 565 915 669 915 l 565 915 q 427 878 488 915 q 333 775 367 840 q 300 628 300 710 l 300 628 q 345 400 300 511 q 473 219 390 289 q 660 149 556 149 l 660 149 z m 533 1353 q 428 1301 467 1353 q 390 1174 390 1249 l 390 1174 q 393 1139 390 1161 l 393 1139 q 406 1108 396 1117 q 429 1099 417 1099 l 429 1099 q 449 1106 440 1099 q 457 1131 457 1114 l 457 1131 q 467 1177 457 1156 q 511 1199 478 1199 l 511 1199 q 543 1188 528 1199 q 581 1154 558 1178 l 581 1154 q 646 1099 615 1118 q 724 1079 676 1079 l 724 1079 q 829 1132 789 1079 q 869 1256 869 1185 l 869 1256 q 865 1297 869 1276 l 865 1297 q 851 1328 861 1318 q 831 1338 840 1338 l 831 1338 q 810 1329 819 1338 q 801 1306 801 1321 l 801 1306 q 746 1238 801 1238 l 746 1238 q 722 1245 733 1238 q 700 1263 711 1253 q 686 1276 689 1274 l 686 1276 q 617 1333 650 1313 q 533 1353 585 1353 l 533 1353 z "},"Œ":{"ha":1964,"x_min":42,"x_max":1936,"o":"m 1464 -19 q 1235 33 1340 -19 q 1056 179 1129 86 l 1056 179 q 860 33 976 86 q 613 -19 744 -19 l 613 -19 q 325 51 456 -19 q 118 244 194 121 q 42 518 42 367 l 42 518 q 118 788 42 664 q 326 983 194 911 q 613 1056 457 1056 l 613 1056 q 864 1003 747 1056 q 1060 857 981 950 l 1060 857 q 1240 1002 1133 949 q 1464 1056 1346 1056 l 1464 1056 q 1561 1049 1522 1056 q 1646 1028 1600 1042 l 1646 1028 q 1732 1011 1696 1011 l 1732 1011 q 1761 1014 1739 1011 l 1761 1014 q 1829 1021 1807 1021 l 1829 1021 q 1876 1007 1863 1021 q 1889 958 1889 993 l 1889 958 q 1872 817 1889 911 q 1839 700 1856 722 l 1839 700 q 1789 671 1817 671 l 1789 671 q 1711 732 1750 671 l 1711 732 q 1586 870 1654 824 q 1426 917 1518 917 l 1426 917 q 1268 865 1336 917 q 1169 728 1200 813 l 1169 728 q 1161 669 1160 690 l 1161 669 l 1165 656 q 1196 632 1175 638 q 1265 622 1217 626 l 1265 622 q 1314 621 1283 621 l 1314 621 q 1424 638 1389 621 q 1488 686 1460 656 l 1488 686 q 1517 713 1504 704 q 1551 721 1531 721 l 1551 721 q 1635 669 1603 721 q 1676 543 1667 618 l 1676 543 q 1682 453 1682 499 l 1682 453 q 1640 336 1682 349 l 1640 336 q 1618 333 1633 333 l 1618 333 q 1522 415 1567 333 l 1522 415 q 1459 472 1501 454 q 1335 490 1417 490 l 1335 490 q 1279 489 1300 490 l 1279 489 q 1208 479 1231 486 q 1186 447 1186 472 l 1186 447 q 1194 414 1186 435 l 1194 414 q 1336 256 1243 315 q 1544 197 1429 197 l 1544 197 q 1712 240 1638 197 q 1836 356 1786 283 l 1836 356 q 1872 400 1858 386 q 1901 414 1886 414 l 1901 414 q 1921 410 1911 414 l 1921 410 q 1936 375 1936 401 l 1936 375 q 1924 319 1936 351 l 1924 319 q 1750 74 1863 168 q 1464 -19 1638 -19 l 1464 -19 z m 660 149 q 798 186 738 149 q 892 290 858 224 q 925 438 925 356 l 925 438 q 880 665 925 554 q 752 846 835 776 q 565 915 669 915 l 565 915 q 427 878 488 915 q 333 775 367 840 q 300 628 300 710 l 300 628 q 345 400 300 511 q 473 219 390 289 q 660 149 556 149 l 660 149 z "},"P":{"ha":1053,"x_min":83,"x_max":1025,"o":"m 168 -7 q 106 10 129 -7 q 83 54 83 26 l 83 54 q 93 92 83 79 q 125 122 103 106 l 125 122 q 160 150 146 138 q 190 183 175 163 l 190 183 q 224 283 214 215 q 233 450 233 351 l 233 450 l 233 585 q 224 751 233 683 q 190 851 214 819 l 190 851 q 132 915 171 876 l 132 915 q 105 945 113 935 q 97 975 97 956 l 97 975 q 120 1024 97 1006 q 182 1042 143 1042 l 182 1042 q 231 1038 194 1042 q 292 1032 267 1035 l 292 1032 q 440 1018 403 1018 l 440 1018 q 543 1028 490 1018 q 604 1039 596 1038 l 604 1039 q 698 1056 658 1050 q 778 1061 738 1061 l 778 1061 q 897 1031 840 1061 q 990 939 954 1000 q 1025 793 1025 878 l 1025 793 q 971 582 1025 674 q 820 440 917 490 q 599 389 724 389 l 599 389 q 542 392 581 389 l 542 392 q 507 393 529 393 l 507 393 q 453 380 468 393 q 438 336 438 367 l 438 336 q 479 183 438 240 l 479 183 q 509 150 494 163 q 544 122 524 138 l 544 122 q 576 92 567 106 q 586 54 586 79 l 586 54 q 563 10 586 26 q 501 -7 540 -7 l 501 -7 q 421 -1 474 -7 l 421 -1 q 335 4 365 4 l 335 4 q 260 -1 307 4 l 260 -1 q 168 -7 207 -7 l 168 -7 z m 490 519 q 556 510 519 510 l 556 510 q 678 540 618 510 q 776 628 738 571 q 814 761 814 685 l 814 761 q 774 876 814 836 q 672 917 735 917 l 672 917 q 638 914 660 917 l 638 914 q 505 858 549 899 q 449 760 461 817 q 436 613 436 703 l 436 613 q 448 549 436 568 q 490 519 460 529 l 490 519 z "},"Þ":{"ha":1050,"x_min":83,"x_max":1022,"o":"m 168 -7 q 106 10 129 -7 q 83 54 83 26 l 83 54 q 93 92 83 79 q 125 122 103 106 l 125 122 q 160 150 146 138 q 190 183 175 163 l 190 183 q 224 283 214 215 q 233 450 233 351 l 233 450 l 233 585 q 224 751 233 683 q 190 851 214 819 l 190 851 q 132 915 171 876 l 132 915 q 105 945 113 935 q 97 975 97 956 l 97 975 q 120 1024 97 1006 q 182 1042 143 1042 l 182 1042 q 217 1040 200 1042 q 246 1038 233 1039 l 246 1038 q 335 1031 292 1031 l 335 1031 q 413 1036 365 1031 l 413 1036 q 488 1042 460 1042 l 488 1042 q 549 1024 526 1042 q 572 975 572 1006 l 572 975 q 565 945 572 956 q 538 915 557 935 l 538 915 q 479 851 499 876 l 479 851 q 453 790 463 829 l 453 790 q 671 839 553 839 l 671 839 q 855 799 775 839 q 978 685 935 758 q 1022 517 1022 613 l 1022 517 q 978 348 1022 421 q 855 235 935 275 q 671 194 775 194 l 671 194 q 454 240 557 194 l 454 240 q 479 183 463 204 l 479 183 q 509 150 494 163 q 544 122 524 138 l 544 122 q 576 92 567 106 q 586 54 586 79 l 586 54 q 563 10 586 26 q 501 -7 540 -7 l 501 -7 q 421 -1 474 -7 l 421 -1 q 335 4 365 4 l 335 4 q 260 -1 307 4 l 260 -1 q 168 -7 207 -7 l 168 -7 z m 543 328 q 690 378 636 328 q 743 517 743 428 l 743 517 q 690 657 743 608 q 543 706 636 706 l 543 706 q 470 699 490 706 q 443 668 450 692 q 436 585 436 644 l 436 585 l 436 450 q 442 364 436 388 q 467 334 447 340 q 543 328 488 328 l 543 328 z "},"Q":{"ha":1225,"x_min":42,"x_max":1183,"o":"m 967 -261 q 819 -235 911 -261 q 604 -167 726 -208 l 604 -167 l 529 -142 q 365 -115 442 -115 l 365 -115 q 282 -125 324 -115 l 282 -125 q 233 -132 251 -132 l 233 -132 q 165 -96 181 -132 l 165 -96 q 161 -78 161 -87 l 161 -78 q 238 0 161 -35 l 238 0 q 300 22 268 14 q 388 35 332 29 l 388 35 q 403 39 403 38 l 403 39 q 390 47 403 43 l 390 47 q 131 235 219 113 q 42 518 42 358 l 42 518 q 118 788 42 664 q 326 983 194 911 q 613 1056 457 1056 l 613 1056 q 900 985 769 1056 q 1107 792 1031 915 q 1183 518 1183 669 l 1183 518 q 1127 283 1183 393 q 978 101 1071 174 q 782 8 886 28 l 782 8 q 744 2 764 4 q 714 -1 724 0 l 714 -1 q 688 -4 699 -1 q 676 -11 678 -7 l 676 -11 q 686 -21 675 -18 q 726 -26 697 -24 l 726 -26 q 961 -35 833 -35 l 961 -35 l 1064 -33 q 1113 -37 1096 -33 q 1136 -49 1131 -40 l 1136 -49 q 1140 -74 1140 -57 l 1140 -74 q 1122 -153 1140 -108 q 1063 -229 1103 -197 q 967 -261 1024 -261 l 967 -261 z m 660 149 q 798 186 738 149 q 892 290 858 224 q 925 438 925 356 l 925 438 q 880 665 925 554 q 752 846 835 776 q 565 915 669 915 l 565 915 q 427 878 488 915 q 333 775 367 840 q 300 628 300 710 l 300 628 q 345 400 300 511 q 473 219 390 289 q 660 149 556 149 l 660 149 z "},"R":{"ha":1211,"x_min":83,"x_max":1197,"o":"m 918 -8 q 790 23 839 -8 q 713 100 740 54 q 656 221 686 146 l 656 221 q 597 342 624 299 q 524 408 569 385 l 524 408 q 474 424 490 424 l 474 424 q 438 365 438 424 l 438 365 q 448 265 438 318 q 479 183 458 211 l 479 183 q 509 150 494 163 q 544 122 524 138 l 544 122 q 576 92 567 106 q 586 54 586 79 l 586 54 q 563 10 586 26 q 501 -7 540 -7 l 501 -7 q 421 -1 474 -7 l 421 -1 q 335 4 365 4 l 335 4 q 260 -1 307 4 l 260 -1 q 168 -7 207 -7 l 168 -7 q 106 10 129 -7 q 83 54 83 26 l 83 54 q 93 92 83 79 q 125 122 103 106 l 125 122 q 160 150 146 138 q 190 183 175 163 l 190 183 q 224 283 214 215 q 233 450 233 351 l 233 450 l 233 585 q 224 751 233 683 q 190 851 214 819 l 190 851 q 132 915 171 876 l 132 915 q 105 945 113 935 q 97 975 97 956 l 97 975 q 120 1024 97 1006 q 182 1042 143 1042 l 182 1042 q 297 1025 197 1042 l 297 1025 q 454 1004 425 1004 l 454 1004 q 525 1011 492 1004 q 611 1032 558 1018 l 611 1032 q 703 1054 669 1047 q 778 1061 738 1061 l 778 1061 q 896 1033 839 1061 q 989 957 953 1006 q 1025 849 1025 908 l 1025 849 q 936 622 1025 719 q 625 475 847 524 l 625 475 q 769 432 715 472 q 849 341 824 392 q 899 214 875 290 l 899 214 q 928 135 915 160 q 964 111 942 111 l 964 111 q 1001 160 1001 111 l 1001 160 q 926 385 1001 231 l 926 385 q 914 436 914 410 l 914 436 q 948 508 914 479 q 1046 538 982 538 l 1046 538 q 1157 493 1117 538 q 1197 365 1197 449 l 1197 365 q 1124 78 1197 164 q 918 -8 1051 -8 l 918 -8 z m 464 558 q 712 642 610 579 q 814 803 814 704 l 814 803 q 776 877 814 850 q 681 904 739 904 l 681 904 q 638 900 661 904 l 638 900 q 504 845 547 883 q 449 748 461 807 q 436 585 436 689 l 436 585 q 442 561 436 567 q 464 558 449 556 l 464 558 z "},"Ŕ":{"ha":1211,"x_min":83,"x_max":1197,"o":"m 918 -8 q 790 23 839 -8 q 713 100 740 54 q 656 221 686 146 l 656 221 q 597 342 624 299 q 524 408 569 385 l 524 408 q 474 424 490 424 l 474 424 q 438 365 438 424 l 438 365 q 448 265 438 318 q 479 183 458 211 l 479 183 q 509 150 494 163 q 544 122 524 138 l 544 122 q 576 92 567 106 q 586 54 586 79 l 586 54 q 563 10 586 26 q 501 -7 540 -7 l 501 -7 q 421 -1 474 -7 l 421 -1 q 335 4 365 4 l 335 4 q 260 -1 307 4 l 260 -1 q 168 -7 207 -7 l 168 -7 q 106 10 129 -7 q 83 54 83 26 l 83 54 q 93 92 83 79 q 125 122 103 106 l 125 122 q 160 150 146 138 q 190 183 175 163 l 190 183 q 224 283 214 215 q 233 450 233 351 l 233 450 l 233 585 q 224 751 233 683 q 190 851 214 819 l 190 851 q 132 915 171 876 l 132 915 q 105 945 113 935 q 97 975 97 956 l 97 975 q 120 1024 97 1006 q 182 1042 143 1042 l 182 1042 q 297 1025 197 1042 l 297 1025 q 454 1004 425 1004 l 454 1004 q 525 1011 492 1004 q 611 1032 558 1018 l 611 1032 q 703 1054 669 1047 q 778 1061 738 1061 l 778 1061 q 896 1033 839 1061 q 989 957 953 1006 q 1025 849 1025 908 l 1025 849 q 936 622 1025 719 q 625 475 847 524 l 625 475 q 769 432 715 472 q 849 341 824 392 q 899 214 875 290 l 899 214 q 928 135 915 160 q 964 111 942 111 l 964 111 q 1001 160 1001 111 l 1001 160 q 926 385 1001 231 l 926 385 q 914 436 914 410 l 914 436 q 948 508 914 479 q 1046 538 982 538 l 1046 538 q 1157 493 1117 538 q 1197 365 1197 449 l 1197 365 q 1124 78 1197 164 q 918 -8 1051 -8 l 918 -8 z m 464 558 q 712 642 610 579 q 814 803 814 704 l 814 803 q 776 877 814 850 q 681 904 739 904 l 681 904 q 638 900 661 904 l 638 900 q 504 845 547 883 q 449 748 461 807 q 436 585 436 689 l 436 585 q 442 561 436 567 q 464 558 449 556 l 464 558 z m 464 1142 q 461 1154 461 1146 l 461 1154 q 495 1227 461 1181 q 577 1319 529 1274 q 660 1383 625 1364 l 660 1383 q 729 1404 697 1404 l 729 1404 q 810 1361 782 1404 l 810 1361 q 826 1308 826 1336 l 826 1308 q 813 1261 826 1283 q 774 1222 800 1239 l 774 1222 q 638 1160 725 1192 q 501 1129 551 1129 l 501 1129 q 464 1142 472 1129 l 464 1142 z "},"Ř":{"ha":1211,"x_min":83,"x_max":1197,"o":"m 918 -8 q 790 23 839 -8 q 713 100 740 54 q 656 221 686 146 l 656 221 q 597 342 624 299 q 524 408 569 385 l 524 408 q 474 424 490 424 l 474 424 q 438 365 438 424 l 438 365 q 448 265 438 318 q 479 183 458 211 l 479 183 q 509 150 494 163 q 544 122 524 138 l 544 122 q 576 92 567 106 q 586 54 586 79 l 586 54 q 563 10 586 26 q 501 -7 540 -7 l 501 -7 q 421 -1 474 -7 l 421 -1 q 335 4 365 4 l 335 4 q 260 -1 307 4 l 260 -1 q 168 -7 207 -7 l 168 -7 q 106 10 129 -7 q 83 54 83 26 l 83 54 q 93 92 83 79 q 125 122 103 106 l 125 122 q 160 150 146 138 q 190 183 175 163 l 190 183 q 224 283 214 215 q 233 450 233 351 l 233 450 l 233 585 q 224 751 233 683 q 190 851 214 819 l 190 851 q 132 915 171 876 l 132 915 q 105 945 113 935 q 97 975 97 956 l 97 975 q 120 1024 97 1006 q 182 1042 143 1042 l 182 1042 q 297 1025 197 1042 l 297 1025 q 454 1004 425 1004 l 454 1004 q 525 1011 492 1004 q 611 1032 558 1018 l 611 1032 q 703 1054 669 1047 q 778 1061 738 1061 l 778 1061 q 896 1033 839 1061 q 989 957 953 1006 q 1025 849 1025 908 l 1025 849 q 936 622 1025 719 q 625 475 847 524 l 625 475 q 769 432 715 472 q 849 341 824 392 q 899 214 875 290 l 899 214 q 928 135 915 160 q 964 111 942 111 l 964 111 q 1001 160 1001 111 l 1001 160 q 926 385 1001 231 l 926 385 q 914 436 914 410 l 914 436 q 948 508 914 479 q 1046 538 982 538 l 1046 538 q 1157 493 1117 538 q 1197 365 1197 449 l 1197 365 q 1124 78 1197 164 q 918 -8 1051 -8 l 918 -8 z m 464 558 q 712 642 610 579 q 814 803 814 704 l 814 803 q 776 877 814 850 q 681 904 739 904 l 681 904 q 638 900 661 904 l 638 900 q 504 845 547 883 q 449 748 461 807 q 436 585 436 689 l 436 585 q 442 561 436 567 q 464 558 449 556 l 464 558 z m 358 1382 q 382 1392 367 1392 l 382 1392 q 451 1361 413 1392 l 451 1361 q 600 1279 558 1279 l 600 1279 q 660 1298 622 1279 q 743 1351 697 1317 l 743 1351 q 826 1392 797 1392 l 826 1392 q 850 1383 842 1392 l 850 1383 q 863 1356 863 1371 l 863 1356 q 824 1289 863 1328 l 824 1289 l 676 1142 q 633 1102 649 1114 q 603 1090 617 1090 l 603 1090 q 572 1102 588 1090 q 531 1142 556 1114 l 531 1142 l 382 1297 q 350 1358 350 1331 l 350 1358 q 358 1382 350 1372 l 358 1382 z "},"Ŗ":{"ha":1211,"x_min":83,"x_max":1197,"o":"m 918 -8 q 790 23 839 -8 q 713 100 740 54 q 656 221 686 146 l 656 221 q 597 342 624 299 q 524 408 569 385 l 524 408 q 474 424 490 424 l 474 424 q 438 365 438 424 l 438 365 q 448 265 438 318 q 479 183 458 211 l 479 183 q 509 150 494 163 q 544 122 524 138 l 544 122 q 576 92 567 106 q 586 54 586 79 l 586 54 q 563 10 586 26 q 501 -7 540 -7 l 501 -7 q 421 -1 474 -7 l 421 -1 q 335 4 365 4 l 335 4 q 260 -1 307 4 l 260 -1 q 168 -7 207 -7 l 168 -7 q 106 10 129 -7 q 83 54 83 26 l 83 54 q 93 92 83 79 q 125 122 103 106 l 125 122 q 160 150 146 138 q 190 183 175 163 l 190 183 q 224 283 214 215 q 233 450 233 351 l 233 450 l 233 585 q 224 751 233 683 q 190 851 214 819 l 190 851 q 132 915 171 876 l 132 915 q 105 945 113 935 q 97 975 97 956 l 97 975 q 120 1024 97 1006 q 182 1042 143 1042 l 182 1042 q 297 1025 197 1042 l 297 1025 q 454 1004 425 1004 l 454 1004 q 525 1011 492 1004 q 611 1032 558 1018 l 611 1032 q 703 1054 669 1047 q 778 1061 738 1061 l 778 1061 q 896 1033 839 1061 q 989 957 953 1006 q 1025 849 1025 908 l 1025 849 q 936 622 1025 719 q 625 475 847 524 l 625 475 q 769 432 715 472 q 849 341 824 392 q 899 214 875 290 l 899 214 q 928 135 915 160 q 964 111 942 111 l 964 111 q 1001 160 1001 111 l 1001 160 q 926 385 1001 231 l 926 385 q 914 436 914 410 l 914 436 q 948 508 914 479 q 1046 538 982 538 l 1046 538 q 1157 493 1117 538 q 1197 365 1197 449 l 1197 365 q 1124 78 1197 164 q 918 -8 1051 -8 l 918 -8 z m 464 558 q 712 642 610 579 q 814 803 814 704 l 814 803 q 776 877 814 850 q 681 904 739 904 l 681 904 q 638 900 661 904 l 638 900 q 504 845 547 883 q 449 748 461 807 q 436 585 436 689 l 436 585 q 442 561 436 567 q 464 558 449 556 l 464 558 z m 543 -418 q 494 -429 514 -429 l 494 -429 q 457 -408 468 -429 l 457 -408 q 464 -377 450 -393 q 514 -339 478 -361 l 514 -339 q 563 -301 547 -318 q 579 -260 579 -283 l 579 -260 q 565 -226 579 -242 q 526 -193 551 -211 l 526 -193 q 489 -160 501 -174 q 476 -129 476 -146 l 476 -129 q 513 -76 476 -106 l 513 -76 q 621 -35 565 -35 l 621 -35 q 728 -76 676 -35 l 728 -76 q 782 -174 782 -121 l 782 -174 q 758 -251 782 -208 l 758 -251 q 671 -344 736 -293 q 543 -418 606 -396 l 543 -418 z "},"S":{"ha":1076,"x_min":56,"x_max":1035,"o":"m 526 -19 q 157 53 321 -19 l 157 53 q 98 87 118 69 q 67 139 78 104 q 56 239 56 174 l 56 239 q 83 382 56 328 q 150 436 110 436 l 150 436 q 188 424 174 436 q 214 391 203 413 q 254 308 225 369 l 254 308 q 376 175 294 225 q 582 125 458 125 l 582 125 q 719 145 665 125 q 799 197 774 165 q 825 265 825 229 l 825 265 q 800 323 825 300 q 714 363 775 346 q 542 393 653 379 l 542 393 q 278 449 376 414 q 133 545 181 485 q 86 703 86 606 l 86 703 q 151 883 86 804 q 322 1006 215 963 q 553 1049 429 1049 l 553 1049 q 685 1037 633 1049 q 794 1004 738 1025 l 794 1004 q 856 983 829 990 q 915 972 883 975 l 915 972 q 963 954 950 969 q 976 907 976 939 l 976 907 q 969 832 976 881 l 969 832 l 964 776 q 942 681 957 710 q 890 651 926 651 l 890 651 q 857 662 869 651 q 833 698 844 672 q 807 757 821 724 l 807 757 q 710 879 772 839 q 538 919 649 919 l 538 919 q 417 899 471 919 q 334 846 364 879 q 304 774 304 813 l 304 774 q 333 719 304 742 q 434 681 363 697 q 635 649 506 664 l 635 649 q 931 546 828 625 q 1035 329 1035 467 l 1035 329 q 960 136 1035 215 q 770 19 886 57 q 526 -19 654 -19 l 526 -19 z "},"Ś":{"ha":1076,"x_min":56,"x_max":1035,"o":"m 526 -19 q 157 53 321 -19 l 157 53 q 98 87 118 69 q 67 139 78 104 q 56 239 56 174 l 56 239 q 83 382 56 328 q 150 436 110 436 l 150 436 q 188 424 174 436 q 214 391 203 413 q 254 308 225 369 l 254 308 q 376 175 294 225 q 582 125 458 125 l 582 125 q 719 145 665 125 q 799 197 774 165 q 825 265 825 229 l 825 265 q 800 323 825 300 q 714 363 775 346 q 542 393 653 379 l 542 393 q 278 449 376 414 q 133 545 181 485 q 86 703 86 606 l 86 703 q 151 883 86 804 q 322 1006 215 963 q 553 1049 429 1049 l 553 1049 q 685 1037 633 1049 q 794 1004 738 1025 l 794 1004 q 856 983 829 990 q 915 972 883 975 l 915 972 q 963 954 950 969 q 976 907 976 939 l 976 907 q 969 832 976 881 l 969 832 l 964 776 q 942 681 957 710 q 890 651 926 651 l 890 651 q 857 662 869 651 q 833 698 844 672 q 807 757 821 724 l 807 757 q 710 879 772 839 q 538 919 649 919 l 538 919 q 417 899 471 919 q 334 846 364 879 q 304 774 304 813 l 304 774 q 333 719 304 742 q 434 681 363 697 q 635 649 506 664 l 635 649 q 931 546 828 625 q 1035 329 1035 467 l 1035 329 q 960 136 1035 215 q 770 19 886 57 q 526 -19 654 -19 l 526 -19 z m 408 1142 q 406 1154 406 1146 l 406 1154 q 440 1227 406 1181 q 522 1319 474 1274 q 604 1383 569 1364 l 604 1383 q 674 1404 642 1404 l 674 1404 q 754 1361 726 1404 l 754 1361 q 771 1308 771 1336 l 771 1308 q 758 1261 771 1283 q 718 1222 744 1239 l 718 1222 q 583 1160 669 1192 q 446 1129 496 1129 l 446 1129 q 408 1142 417 1129 l 408 1142 z "},"Š":{"ha":1076,"x_min":56,"x_max":1035,"o":"m 526 -19 q 157 53 321 -19 l 157 53 q 98 87 118 69 q 67 139 78 104 q 56 239 56 174 l 56 239 q 83 382 56 328 q 150 436 110 436 l 150 436 q 188 424 174 436 q 214 391 203 413 q 254 308 225 369 l 254 308 q 376 175 294 225 q 582 125 458 125 l 582 125 q 719 145 665 125 q 799 197 774 165 q 825 265 825 229 l 825 265 q 800 323 825 300 q 714 363 775 346 q 542 393 653 379 l 542 393 q 278 449 376 414 q 133 545 181 485 q 86 703 86 606 l 86 703 q 151 883 86 804 q 322 1006 215 963 q 553 1049 429 1049 l 553 1049 q 685 1037 633 1049 q 794 1004 738 1025 l 794 1004 q 856 983 829 990 q 915 972 883 975 l 915 972 q 963 954 950 969 q 976 907 976 939 l 976 907 q 969 832 976 881 l 969 832 l 964 776 q 942 681 957 710 q 890 651 926 651 l 890 651 q 857 662 869 651 q 833 698 844 672 q 807 757 821 724 l 807 757 q 710 879 772 839 q 538 919 649 919 l 538 919 q 417 899 471 919 q 334 846 364 879 q 304 774 304 813 l 304 774 q 333 719 304 742 q 434 681 363 697 q 635 649 506 664 l 635 649 q 931 546 828 625 q 1035 329 1035 467 l 1035 329 q 960 136 1035 215 q 770 19 886 57 q 526 -19 654 -19 l 526 -19 z m 303 1382 q 326 1392 311 1392 l 326 1392 q 396 1361 357 1392 l 396 1361 q 544 1279 503 1279 l 544 1279 q 604 1298 567 1279 q 688 1351 642 1317 l 688 1351 q 771 1392 742 1392 l 771 1392 q 794 1383 786 1392 l 794 1383 q 807 1356 807 1371 l 807 1356 q 768 1289 807 1328 l 768 1289 l 621 1142 q 577 1102 593 1114 q 547 1090 561 1090 l 547 1090 q 516 1102 532 1090 q 475 1142 500 1114 l 475 1142 l 326 1297 q 294 1358 294 1331 l 294 1358 q 303 1382 294 1372 l 303 1382 z "},"Ş":{"ha":1076,"x_min":56,"x_max":1035,"o":"m 519 -294 q 410 -278 456 -294 q 341 -241 364 -262 q 318 -201 318 -219 l 318 -201 q 324 -187 318 -192 l 324 -187 q 340 -186 329 -183 q 363 -194 350 -189 l 363 -194 q 429 -215 399 -210 l 429 -215 q 471 -219 453 -219 l 471 -219 q 519 -208 501 -219 q 536 -175 536 -196 l 536 -175 q 525 -160 536 -164 q 489 -154 514 -157 l 489 -154 q 449 -147 461 -151 q 436 -128 436 -143 l 436 -128 q 460 -78 436 -108 q 519 -19 485 -49 l 519 -19 q 157 53 314 -18 l 157 53 q 98 87 118 69 q 67 139 78 104 q 56 239 56 174 l 56 239 q 83 382 56 328 q 150 436 110 436 l 150 436 q 188 424 174 436 q 214 391 203 413 q 254 308 225 369 l 254 308 q 376 175 294 225 q 582 125 458 125 l 582 125 q 719 145 665 125 q 799 197 774 165 q 825 265 825 229 l 825 265 q 800 323 825 300 q 714 363 775 346 q 542 393 653 379 l 542 393 q 278 449 376 414 q 133 545 181 485 q 86 703 86 606 l 86 703 q 151 883 86 804 q 322 1006 215 963 q 553 1049 429 1049 l 553 1049 q 685 1037 633 1049 q 794 1004 738 1025 l 794 1004 q 856 983 829 990 q 915 972 883 975 l 915 972 q 963 954 950 969 q 976 907 976 939 l 976 907 q 969 832 976 881 l 969 832 l 964 776 q 942 681 957 710 q 890 651 926 651 l 890 651 q 857 662 869 651 q 833 698 844 672 q 807 757 821 724 l 807 757 q 710 879 772 839 q 538 919 649 919 l 538 919 q 417 899 471 919 q 334 846 364 879 q 304 774 304 813 l 304 774 q 333 719 304 742 q 434 681 363 697 q 635 649 506 664 l 635 649 q 931 546 828 625 q 1035 329 1035 467 l 1035 329 q 972 149 1035 224 q 808 33 910 74 q 590 -17 707 -8 l 590 -17 q 565 -85 565 -69 l 565 -85 q 569 -99 565 -93 l 569 -99 q 592 -109 575 -106 q 631 -115 610 -112 l 631 -115 q 708 -131 682 -121 q 735 -172 735 -142 l 735 -172 q 707 -230 735 -201 q 631 -276 679 -258 q 519 -294 582 -294 l 519 -294 z "},"Ș":{"ha":1076,"x_min":56,"x_max":1035,"o":"m 526 -19 q 157 53 321 -19 l 157 53 q 98 87 118 69 q 67 139 78 104 q 56 239 56 174 l 56 239 q 83 382 56 328 q 150 436 110 436 l 150 436 q 188 424 174 436 q 214 391 203 413 q 254 308 225 369 l 254 308 q 376 175 294 225 q 582 125 458 125 l 582 125 q 719 145 665 125 q 799 197 774 165 q 825 265 825 229 l 825 265 q 800 323 825 300 q 714 363 775 346 q 542 393 653 379 l 542 393 q 278 449 376 414 q 133 545 181 485 q 86 703 86 606 l 86 703 q 151 883 86 804 q 322 1006 215 963 q 553 1049 429 1049 l 553 1049 q 685 1037 633 1049 q 794 1004 738 1025 l 794 1004 q 856 983 829 990 q 915 972 883 975 l 915 972 q 963 954 950 969 q 976 907 976 939 l 976 907 q 969 832 976 881 l 969 832 l 964 776 q 942 681 957 710 q 890 651 926 651 l 890 651 q 857 662 869 651 q 833 698 844 672 q 807 757 821 724 l 807 757 q 710 879 772 839 q 538 919 649 919 l 538 919 q 417 899 471 919 q 334 846 364 879 q 304 774 304 813 l 304 774 q 333 719 304 742 q 434 681 363 697 q 635 649 506 664 l 635 649 q 931 546 828 625 q 1035 329 1035 467 l 1035 329 q 960 136 1035 215 q 770 19 886 57 q 526 -19 654 -19 l 526 -19 z m 407 -435 q 358 -446 378 -446 l 358 -446 q 321 -425 332 -446 l 321 -425 q 328 -394 314 -410 q 378 -356 342 -378 l 378 -356 q 427 -317 411 -335 q 443 -276 443 -300 l 443 -276 q 429 -243 443 -258 q 390 -210 415 -228 l 390 -210 q 353 -176 365 -190 q 340 -146 340 -162 l 340 -146 q 376 -93 340 -122 l 376 -93 q 485 -51 429 -51 l 485 -51 q 592 -93 540 -51 l 592 -93 q 646 -190 646 -137 l 646 -190 q 622 -268 646 -225 l 622 -268 q 535 -361 600 -310 q 407 -435 469 -412 l 407 -435 z "},"T":{"ha":1031,"x_min":0,"x_max":1031,"o":"m 346 -7 q 282 11 303 -7 q 261 54 261 29 l 261 54 q 271 92 261 79 q 303 122 281 106 l 303 122 q 338 150 324 138 q 368 183 353 163 l 368 183 q 401 283 392 215 q 411 450 411 351 l 411 450 l 413 761 q 304 879 413 879 l 304 879 q 217 856 253 879 q 147 771 181 833 l 147 771 q 124 725 143 763 q 87 676 104 688 q 47 665 69 664 l 47 665 q 11 697 22 667 q 0 781 0 726 l 0 781 q 7 890 0 824 l 7 890 q 49 1028 18 988 q 136 1068 79 1068 l 136 1068 q 232 1053 164 1068 l 232 1053 q 365 1029 301 1038 q 515 1021 428 1021 l 515 1021 q 666 1029 603 1021 q 799 1053 729 1038 l 799 1053 q 894 1068 868 1068 l 894 1068 q 982 1028 951 1068 q 1024 890 1013 988 l 1024 890 q 1031 781 1031 824 l 1031 781 q 1019 697 1031 726 q 983 665 1008 667 l 983 665 q 947 674 961 664 q 921 703 932 685 q 883 771 910 721 l 883 771 q 812 857 849 835 q 719 879 775 879 l 719 879 q 613 761 613 879 l 613 761 l 614 450 q 624 283 614 351 q 657 183 633 215 l 657 183 q 687 150 672 163 q 722 122 701 138 l 722 122 q 754 92 744 106 q 764 54 764 79 l 764 54 q 743 11 764 29 q 679 -7 722 -7 l 679 -7 q 596 -3 638 -7 l 596 -3 q 513 0 540 0 l 513 0 l 457 -3 q 346 -7 365 -7 l 346 -7 z "},"Ŧ":{"ha":1031,"x_min":0,"x_max":1031,"o":"m 257 421 q 204 440 222 421 q 186 492 186 460 l 186 492 q 206 539 186 521 q 257 557 225 557 l 257 557 q 361 554 297 557 l 361 554 l 411 553 l 413 761 q 304 879 413 879 l 304 879 q 217 856 253 879 q 147 771 181 833 l 147 771 q 124 725 143 763 q 87 676 104 688 q 47 665 69 664 l 47 665 q 11 697 22 667 q 0 781 0 726 l 0 781 q 7 890 0 824 l 7 890 q 49 1028 18 988 q 136 1068 79 1068 l 136 1068 q 232 1053 164 1068 l 232 1053 q 365 1029 301 1038 q 515 1021 428 1021 l 515 1021 q 666 1029 603 1021 q 799 1053 729 1038 l 799 1053 q 894 1068 868 1068 l 894 1068 q 982 1028 951 1068 q 1024 890 1013 988 l 1024 890 q 1031 781 1031 824 l 1031 781 q 1019 697 1031 726 q 983 665 1008 667 l 983 665 q 947 674 961 664 q 921 703 932 685 q 883 771 910 721 l 883 771 q 812 857 849 835 q 719 879 775 879 l 719 879 q 613 761 613 879 l 613 761 l 614 556 q 768 561 717 561 l 768 561 q 822 544 801 561 q 842 499 842 528 l 842 499 q 823 446 842 465 q 769 425 804 426 l 769 425 q 614 429 717 424 l 614 429 q 657 183 617 238 l 657 183 q 687 150 672 163 q 722 122 701 138 l 722 122 q 754 92 744 106 q 764 54 764 79 l 764 54 q 743 11 764 29 q 679 -7 722 -7 l 679 -7 q 596 -3 638 -7 l 596 -3 q 513 0 540 0 l 513 0 l 457 -3 q 346 -7 365 -7 l 346 -7 q 282 11 303 -7 q 261 54 261 29 l 261 54 q 271 92 261 79 q 303 122 281 106 l 303 122 q 338 150 324 138 q 368 183 353 163 l 368 183 q 411 428 408 238 l 411 428 l 368 425 q 318 422 351 424 q 257 421 285 421 l 257 421 z "},"Ť":{"ha":1031,"x_min":0,"x_max":1031,"o":"m 346 -7 q 282 11 303 -7 q 261 54 261 29 l 261 54 q 271 92 261 79 q 303 122 281 106 l 303 122 q 338 150 324 138 q 368 183 353 163 l 368 183 q 401 283 392 215 q 411 450 411 351 l 411 450 l 413 761 q 304 879 413 879 l 304 879 q 217 856 253 879 q 147 771 181 833 l 147 771 q 124 725 143 763 q 87 676 104 688 q 47 665 69 664 l 47 665 q 11 697 22 667 q 0 781 0 726 l 0 781 q 7 890 0 824 l 7 890 q 49 1028 18 988 q 136 1068 79 1068 l 136 1068 q 232 1053 164 1068 l 232 1053 q 365 1029 301 1038 q 515 1021 428 1021 l 515 1021 q 666 1029 603 1021 q 799 1053 729 1038 l 799 1053 q 894 1068 868 1068 l 894 1068 q 982 1028 951 1068 q 1024 890 1013 988 l 1024 890 q 1031 781 1031 824 l 1031 781 q 1019 697 1031 726 q 983 665 1008 667 l 983 665 q 947 674 961 664 q 921 703 932 685 q 883 771 910 721 l 883 771 q 812 857 849 835 q 719 879 775 879 l 719 879 q 613 761 613 879 l 613 761 l 614 450 q 624 283 614 351 q 657 183 633 215 l 657 183 q 687 150 672 163 q 722 122 701 138 l 722 122 q 754 92 744 106 q 764 54 764 79 l 764 54 q 743 11 764 29 q 679 -7 722 -7 l 679 -7 q 596 -3 638 -7 l 596 -3 q 513 0 540 0 l 513 0 l 457 -3 q 346 -7 365 -7 l 346 -7 z m 268 1382 q 292 1392 276 1392 l 292 1392 q 361 1361 322 1392 l 361 1361 q 510 1279 468 1279 l 510 1279 q 569 1298 532 1279 q 653 1351 607 1317 l 653 1351 q 736 1392 707 1392 l 736 1392 q 760 1383 751 1392 l 760 1383 q 772 1356 772 1371 l 772 1356 q 733 1289 772 1328 l 733 1289 l 586 1142 q 542 1102 558 1114 q 513 1090 526 1090 l 513 1090 q 481 1102 497 1090 q 440 1142 465 1114 l 440 1142 l 292 1297 q 260 1358 260 1331 l 260 1358 q 268 1382 260 1372 l 268 1382 z "},"Ţ":{"ha":1031,"x_min":0,"x_max":1031,"o":"m 346 -7 q 282 11 303 -7 q 261 54 261 29 l 261 54 q 271 92 261 79 q 303 122 281 106 l 303 122 q 338 150 324 138 q 368 183 353 163 l 368 183 q 401 283 392 215 q 411 450 411 351 l 411 450 l 413 761 q 304 879 413 879 l 304 879 q 217 856 253 879 q 147 771 181 833 l 147 771 q 124 725 143 763 q 87 676 104 688 q 47 665 69 664 l 47 665 q 11 697 22 667 q 0 781 0 726 l 0 781 q 7 890 0 824 l 7 890 q 49 1028 18 988 q 136 1068 79 1068 l 136 1068 q 232 1053 164 1068 l 232 1053 q 365 1029 301 1038 q 515 1021 428 1021 l 515 1021 q 666 1029 603 1021 q 799 1053 729 1038 l 799 1053 q 894 1068 868 1068 l 894 1068 q 982 1028 951 1068 q 1024 890 1013 988 l 1024 890 q 1031 781 1031 824 l 1031 781 q 1019 697 1031 726 q 983 665 1008 667 l 983 665 q 947 674 961 664 q 921 703 932 685 q 883 771 910 721 l 883 771 q 812 857 849 835 q 719 879 775 879 l 719 879 q 613 761 613 879 l 613 761 l 614 450 q 624 283 614 351 q 657 183 633 215 l 657 183 q 687 150 672 163 q 722 122 701 138 l 722 122 q 754 92 744 106 q 764 54 764 79 l 764 54 q 743 11 764 29 q 679 -7 722 -7 l 679 -7 q 603 -4 653 -7 l 603 -4 q 551 -1 569 -1 l 551 -1 q 535 -40 542 -22 q 528 -68 528 -58 l 528 -68 q 532 -82 528 -76 l 532 -82 q 555 -92 538 -89 q 593 -99 572 -96 l 593 -99 q 671 -115 644 -104 q 697 -156 697 -125 l 697 -156 q 669 -213 697 -185 q 593 -260 642 -242 q 482 -278 544 -278 l 482 -278 q 372 -262 418 -278 q 303 -224 326 -246 q 281 -185 281 -203 l 281 -185 q 286 -171 281 -175 l 286 -171 q 302 -169 292 -167 q 325 -178 313 -172 l 325 -178 q 392 -199 361 -193 l 392 -199 q 433 -203 415 -203 l 433 -203 q 481 -191 464 -203 q 499 -158 499 -179 l 499 -158 q 486 -143 499 -147 q 451 -137 474 -139 l 451 -137 q 412 -130 425 -135 q 399 -111 399 -125 l 399 -111 q 424 -61 399 -92 q 483 -1 449 -31 l 483 -1 l 447 -3 q 346 -7 404 -7 l 346 -7 z "},"Ț":{"ha":1031,"x_min":0,"x_max":1031,"o":"m 346 -7 q 282 11 303 -7 q 261 54 261 29 l 261 54 q 271 92 261 79 q 303 122 281 106 l 303 122 q 338 150 324 138 q 368 183 353 163 l 368 183 q 401 283 392 215 q 411 450 411 351 l 411 450 l 413 761 q 304 879 413 879 l 304 879 q 217 856 253 879 q 147 771 181 833 l 147 771 q 124 725 143 763 q 87 676 104 688 q 47 665 69 664 l 47 665 q 11 697 22 667 q 0 781 0 726 l 0 781 q 7 890 0 824 l 7 890 q 49 1028 18 988 q 136 1068 79 1068 l 136 1068 q 232 1053 164 1068 l 232 1053 q 365 1029 301 1038 q 515 1021 428 1021 l 515 1021 q 666 1029 603 1021 q 799 1053 729 1038 l 799 1053 q 894 1068 868 1068 l 894 1068 q 982 1028 951 1068 q 1024 890 1013 988 l 1024 890 q 1031 781 1031 824 l 1031 781 q 1019 697 1031 726 q 983 665 1008 667 l 983 665 q 947 674 961 664 q 921 703 932 685 q 883 771 910 721 l 883 771 q 812 857 849 835 q 719 879 775 879 l 719 879 q 613 761 613 879 l 613 761 l 614 450 q 624 283 614 351 q 657 183 633 215 l 657 183 q 687 150 672 163 q 722 122 701 138 l 722 122 q 754 92 744 106 q 764 54 764 79 l 764 54 q 743 11 764 29 q 679 -7 722 -7 l 679 -7 q 596 -3 638 -7 l 596 -3 q 513 0 540 0 l 513 0 l 457 -3 q 346 -7 365 -7 l 346 -7 z m 397 -418 q 349 -429 368 -429 l 349 -429 q 311 -408 322 -429 l 311 -408 q 318 -377 304 -393 q 368 -339 332 -361 l 368 -339 q 417 -301 401 -318 q 433 -260 433 -283 l 433 -260 q 419 -226 433 -242 q 381 -193 406 -211 l 381 -193 q 343 -160 356 -174 q 331 -129 331 -146 l 331 -129 q 367 -76 331 -106 l 367 -76 q 475 -35 419 -35 l 475 -35 q 582 -76 531 -35 l 582 -76 q 636 -174 636 -121 l 636 -174 q 613 -251 636 -208 l 613 -251 q 525 -344 590 -293 q 397 -418 460 -396 l 397 -418 z "},"U":{"ha":1283,"x_min":56,"x_max":1228,"o":"m 643 -14 q 291 92 407 -14 q 175 385 175 199 l 175 385 q 178 450 175 428 l 178 450 q 193 672 193 594 l 193 672 q 183 778 193 736 q 149 851 172 821 l 149 851 q 90 915 129 876 l 90 915 q 63 945 71 935 q 56 975 56 956 l 56 975 q 78 1024 56 1006 q 140 1042 101 1042 l 140 1042 q 175 1040 158 1042 q 204 1038 192 1039 l 204 1038 q 293 1031 250 1031 l 293 1031 q 371 1036 324 1031 l 371 1036 q 446 1042 418 1042 l 446 1042 q 508 1024 485 1042 q 531 975 531 1006 l 531 975 q 523 945 531 956 q 496 915 515 935 l 496 915 q 438 851 457 876 l 438 851 q 403 742 411 817 q 394 492 394 668 l 394 492 q 452 217 394 303 q 643 131 510 131 l 643 131 q 832 217 775 131 q 889 492 889 304 l 889 492 q 881 743 889 669 q 846 851 872 817 l 846 851 q 788 915 826 876 l 788 915 q 760 945 768 935 q 753 975 753 956 l 753 975 q 776 1024 753 1006 q 838 1042 799 1042 l 838 1042 q 872 1040 856 1042 q 901 1038 889 1039 l 901 1038 q 990 1031 947 1031 l 990 1031 q 1068 1036 1021 1031 l 1068 1036 q 1143 1042 1115 1042 l 1143 1042 q 1205 1024 1182 1042 q 1228 975 1228 1006 l 1228 975 q 1220 945 1228 956 q 1193 915 1213 935 l 1193 915 q 1135 851 1154 876 l 1135 851 q 1101 777 1111 819 q 1090 672 1090 735 l 1090 672 q 1106 450 1090 594 l 1106 450 q 1110 383 1110 417 l 1110 383 q 994 92 1110 199 q 643 -14 878 -14 l 643 -14 z "},"Ú":{"ha":1283,"x_min":56,"x_max":1228,"o":"m 643 -14 q 291 92 407 -14 q 175 385 175 199 l 175 385 q 178 450 175 428 l 178 450 q 193 672 193 594 l 193 672 q 183 778 193 736 q 149 851 172 821 l 149 851 q 90 915 129 876 l 90 915 q 63 945 71 935 q 56 975 56 956 l 56 975 q 78 1024 56 1006 q 140 1042 101 1042 l 140 1042 q 175 1040 158 1042 q 204 1038 192 1039 l 204 1038 q 293 1031 250 1031 l 293 1031 q 371 1036 324 1031 l 371 1036 q 446 1042 418 1042 l 446 1042 q 508 1024 485 1042 q 531 975 531 1006 l 531 975 q 523 945 531 956 q 496 915 515 935 l 496 915 q 438 851 457 876 l 438 851 q 403 742 411 817 q 394 492 394 668 l 394 492 q 452 217 394 303 q 643 131 510 131 l 643 131 q 832 217 775 131 q 889 492 889 304 l 889 492 q 881 743 889 669 q 846 851 872 817 l 846 851 q 788 915 826 876 l 788 915 q 760 945 768 935 q 753 975 753 956 l 753 975 q 776 1024 753 1006 q 838 1042 799 1042 l 838 1042 q 872 1040 856 1042 q 901 1038 889 1039 l 901 1038 q 990 1031 947 1031 l 990 1031 q 1068 1036 1021 1031 l 1068 1036 q 1143 1042 1115 1042 l 1143 1042 q 1205 1024 1182 1042 q 1228 975 1228 1006 l 1228 975 q 1220 945 1228 956 q 1193 915 1213 935 l 1193 915 q 1135 851 1154 876 l 1135 851 q 1101 777 1111 819 q 1090 672 1090 735 l 1090 672 q 1106 450 1090 594 l 1106 450 q 1110 383 1110 417 l 1110 383 q 994 92 1110 199 q 643 -14 878 -14 l 643 -14 z m 500 1142 q 497 1154 497 1146 l 497 1154 q 531 1227 497 1181 q 613 1319 565 1274 q 696 1383 661 1364 l 696 1383 q 765 1404 733 1404 l 765 1404 q 846 1361 818 1404 l 846 1361 q 863 1308 863 1336 l 863 1308 q 849 1261 863 1283 q 810 1222 836 1239 l 810 1222 q 674 1160 761 1192 q 538 1129 588 1129 l 538 1129 q 500 1142 508 1129 l 500 1142 z "},"Ǔ":{"ha":1283,"x_min":56,"x_max":1228,"o":"m 643 -14 q 291 92 407 -14 q 175 385 175 199 l 175 385 q 178 450 175 428 l 178 450 q 193 672 193 594 l 193 672 q 183 778 193 736 q 149 851 172 821 l 149 851 q 90 915 129 876 l 90 915 q 63 945 71 935 q 56 975 56 956 l 56 975 q 78 1024 56 1006 q 140 1042 101 1042 l 140 1042 q 175 1040 158 1042 q 204 1038 192 1039 l 204 1038 q 293 1031 250 1031 l 293 1031 q 371 1036 324 1031 l 371 1036 q 446 1042 418 1042 l 446 1042 q 508 1024 485 1042 q 531 975 531 1006 l 531 975 q 523 945 531 956 q 496 915 515 935 l 496 915 q 438 851 457 876 l 438 851 q 403 742 411 817 q 394 492 394 668 l 394 492 q 452 217 394 303 q 643 131 510 131 l 643 131 q 832 217 775 131 q 889 492 889 304 l 889 492 q 881 743 889 669 q 846 851 872 817 l 846 851 q 788 915 826 876 l 788 915 q 760 945 768 935 q 753 975 753 956 l 753 975 q 776 1024 753 1006 q 838 1042 799 1042 l 838 1042 q 872 1040 856 1042 q 901 1038 889 1039 l 901 1038 q 990 1031 947 1031 l 990 1031 q 1068 1036 1021 1031 l 1068 1036 q 1143 1042 1115 1042 l 1143 1042 q 1205 1024 1182 1042 q 1228 975 1228 1006 l 1228 975 q 1220 945 1228 956 q 1193 915 1213 935 l 1193 915 q 1135 851 1154 876 l 1135 851 q 1101 777 1111 819 q 1090 672 1090 735 l 1090 672 q 1106 450 1090 594 l 1106 450 q 1110 383 1110 417 l 1110 383 q 994 92 1110 199 q 643 -14 878 -14 l 643 -14 z m 394 1382 q 418 1392 403 1392 l 418 1392 q 488 1361 449 1392 l 488 1361 q 636 1279 594 1279 l 636 1279 q 696 1298 658 1279 q 779 1351 733 1317 l 779 1351 q 863 1392 833 1392 l 863 1392 q 886 1383 878 1392 l 886 1383 q 899 1356 899 1371 l 899 1356 q 860 1289 899 1328 l 860 1289 l 713 1142 q 669 1102 685 1114 q 639 1090 653 1090 l 639 1090 q 608 1102 624 1090 q 567 1142 592 1114 l 567 1142 l 418 1297 q 386 1358 386 1331 l 386 1358 q 394 1382 386 1372 l 394 1382 z "},"Û":{"ha":1283,"x_min":56,"x_max":1228,"o":"m 643 -14 q 291 92 407 -14 q 175 385 175 199 l 175 385 q 178 450 175 428 l 178 450 q 193 672 193 594 l 193 672 q 183 778 193 736 q 149 851 172 821 l 149 851 q 90 915 129 876 l 90 915 q 63 945 71 935 q 56 975 56 956 l 56 975 q 78 1024 56 1006 q 140 1042 101 1042 l 140 1042 q 175 1040 158 1042 q 204 1038 192 1039 l 204 1038 q 293 1031 250 1031 l 293 1031 q 371 1036 324 1031 l 371 1036 q 446 1042 418 1042 l 446 1042 q 508 1024 485 1042 q 531 975 531 1006 l 531 975 q 523 945 531 956 q 496 915 515 935 l 496 915 q 438 851 457 876 l 438 851 q 403 742 411 817 q 394 492 394 668 l 394 492 q 452 217 394 303 q 643 131 510 131 l 643 131 q 832 217 775 131 q 889 492 889 304 l 889 492 q 881 743 889 669 q 846 851 872 817 l 846 851 q 788 915 826 876 l 788 915 q 760 945 768 935 q 753 975 753 956 l 753 975 q 776 1024 753 1006 q 838 1042 799 1042 l 838 1042 q 872 1040 856 1042 q 901 1038 889 1039 l 901 1038 q 990 1031 947 1031 l 990 1031 q 1068 1036 1021 1031 l 1068 1036 q 1143 1042 1115 1042 l 1143 1042 q 1205 1024 1182 1042 q 1228 975 1228 1006 l 1228 975 q 1220 945 1228 956 q 1193 915 1213 935 l 1193 915 q 1135 851 1154 876 l 1135 851 q 1101 777 1111 819 q 1090 672 1090 735 l 1090 672 q 1106 450 1090 594 l 1106 450 q 1110 383 1110 417 l 1110 383 q 994 92 1110 199 q 643 -14 878 -14 l 643 -14 z m 394 1106 q 386 1129 386 1117 l 386 1129 q 418 1190 386 1157 l 418 1190 l 567 1346 q 608 1385 592 1374 q 639 1397 624 1397 l 639 1397 q 669 1385 653 1397 q 713 1346 685 1374 l 713 1346 l 860 1199 q 899 1132 899 1160 l 899 1132 q 886 1104 899 1117 l 886 1104 q 863 1096 878 1096 l 863 1096 q 779 1136 833 1096 l 779 1136 q 696 1190 733 1171 q 636 1208 658 1208 l 636 1208 q 488 1126 594 1208 l 488 1126 q 418 1096 449 1096 l 418 1096 q 394 1106 403 1096 l 394 1106 z "},"Ü":{"ha":1283,"x_min":56,"x_max":1228,"o":"m 643 -14 q 291 92 407 -14 q 175 385 175 199 l 175 385 q 178 450 175 428 l 178 450 q 193 672 193 594 l 193 672 q 183 778 193 736 q 149 851 172 821 l 149 851 q 90 915 129 876 l 90 915 q 63 945 71 935 q 56 975 56 956 l 56 975 q 78 1024 56 1006 q 140 1042 101 1042 l 140 1042 q 175 1040 158 1042 q 204 1038 192 1039 l 204 1038 q 293 1031 250 1031 l 293 1031 q 371 1036 324 1031 l 371 1036 q 446 1042 418 1042 l 446 1042 q 508 1024 485 1042 q 531 975 531 1006 l 531 975 q 523 945 531 956 q 496 915 515 935 l 496 915 q 438 851 457 876 l 438 851 q 403 742 411 817 q 394 492 394 668 l 394 492 q 452 217 394 303 q 643 131 510 131 l 643 131 q 832 217 775 131 q 889 492 889 304 l 889 492 q 881 743 889 669 q 846 851 872 817 l 846 851 q 788 915 826 876 l 788 915 q 760 945 768 935 q 753 975 753 956 l 753 975 q 776 1024 753 1006 q 838 1042 799 1042 l 838 1042 q 872 1040 856 1042 q 901 1038 889 1039 l 901 1038 q 990 1031 947 1031 l 990 1031 q 1068 1036 1021 1031 l 1068 1036 q 1143 1042 1115 1042 l 1143 1042 q 1205 1024 1182 1042 q 1228 975 1228 1006 l 1228 975 q 1220 945 1228 956 q 1193 915 1213 935 l 1193 915 q 1135 851 1154 876 l 1135 851 q 1101 777 1111 819 q 1090 672 1090 735 l 1090 672 q 1106 450 1090 594 l 1106 450 q 1110 383 1110 417 l 1110 383 q 994 92 1110 199 q 643 -14 878 -14 l 643 -14 z m 813 1110 q 732 1143 765 1110 q 699 1224 699 1176 l 699 1224 q 732 1303 699 1269 q 813 1336 765 1336 l 813 1336 q 892 1303 860 1336 q 925 1224 925 1269 l 925 1224 q 892 1143 925 1176 q 813 1110 860 1110 l 813 1110 z m 475 1110 q 394 1143 428 1110 q 361 1224 361 1176 l 361 1224 q 394 1303 361 1269 q 475 1336 428 1336 l 475 1336 q 555 1303 522 1336 q 588 1224 588 1269 l 588 1224 q 555 1143 588 1176 q 475 1110 522 1110 l 475 1110 z "},"Ǘ":{"ha":1283,"x_min":56,"x_max":1228,"o":"m 643 -14 q 291 92 407 -14 q 175 385 175 199 l 175 385 q 178 450 175 428 l 178 450 q 193 672 193 594 l 193 672 q 183 778 193 736 q 149 851 172 821 l 149 851 q 90 915 129 876 l 90 915 q 63 945 71 935 q 56 975 56 956 l 56 975 q 78 1024 56 1006 q 140 1042 101 1042 l 140 1042 q 175 1040 158 1042 q 204 1038 192 1039 l 204 1038 q 293 1031 250 1031 l 293 1031 q 371 1036 324 1031 l 371 1036 q 446 1042 418 1042 l 446 1042 q 508 1024 485 1042 q 531 975 531 1006 l 531 975 q 523 945 531 956 q 496 915 515 935 l 496 915 q 438 851 457 876 l 438 851 q 403 742 411 817 q 394 492 394 668 l 394 492 q 452 217 394 303 q 643 131 510 131 l 643 131 q 832 217 775 131 q 889 492 889 304 l 889 492 q 881 743 889 669 q 846 851 872 817 l 846 851 q 788 915 826 876 l 788 915 q 760 945 768 935 q 753 975 753 956 l 753 975 q 776 1024 753 1006 q 838 1042 799 1042 l 838 1042 q 872 1040 856 1042 q 901 1038 889 1039 l 901 1038 q 990 1031 947 1031 l 990 1031 q 1068 1036 1021 1031 l 1068 1036 q 1143 1042 1115 1042 l 1143 1042 q 1205 1024 1182 1042 q 1228 975 1228 1006 l 1228 975 q 1220 945 1228 956 q 1193 915 1213 935 l 1193 915 q 1135 851 1154 876 l 1135 851 q 1101 777 1111 819 q 1090 672 1090 735 l 1090 672 q 1106 450 1090 594 l 1106 450 q 1110 383 1110 417 l 1110 383 q 994 92 1110 199 q 643 -14 878 -14 l 643 -14 z m 813 1110 q 732 1143 765 1110 q 699 1224 699 1176 l 699 1224 q 732 1303 699 1269 q 813 1336 765 1336 l 813 1336 q 892 1303 860 1336 q 925 1224 925 1269 l 925 1224 q 892 1143 925 1176 q 813 1110 860 1110 l 813 1110 z m 475 1110 q 394 1143 428 1110 q 361 1224 361 1176 l 361 1224 q 394 1303 361 1269 q 475 1336 428 1336 l 475 1336 q 555 1303 522 1336 q 588 1224 588 1269 l 588 1224 q 555 1143 588 1176 q 475 1110 522 1110 l 475 1110 z m 500 1429 q 497 1442 497 1433 l 497 1442 q 531 1515 497 1468 q 613 1606 565 1561 q 696 1671 661 1651 l 696 1671 q 765 1692 733 1692 l 765 1692 q 846 1649 818 1692 l 846 1649 q 863 1596 863 1624 l 863 1596 q 849 1549 863 1571 q 810 1510 836 1526 l 810 1510 q 674 1448 761 1479 q 538 1417 588 1417 l 538 1417 q 500 1429 508 1417 l 500 1429 z "},"Ǚ":{"ha":1283,"x_min":56,"x_max":1228,"o":"m 643 -14 q 291 92 407 -14 q 175 385 175 199 l 175 385 q 178 450 175 428 l 178 450 q 193 672 193 594 l 193 672 q 183 778 193 736 q 149 851 172 821 l 149 851 q 90 915 129 876 l 90 915 q 63 945 71 935 q 56 975 56 956 l 56 975 q 78 1024 56 1006 q 140 1042 101 1042 l 140 1042 q 175 1040 158 1042 q 204 1038 192 1039 l 204 1038 q 293 1031 250 1031 l 293 1031 q 371 1036 324 1031 l 371 1036 q 446 1042 418 1042 l 446 1042 q 508 1024 485 1042 q 531 975 531 1006 l 531 975 q 523 945 531 956 q 496 915 515 935 l 496 915 q 438 851 457 876 l 438 851 q 403 742 411 817 q 394 492 394 668 l 394 492 q 452 217 394 303 q 643 131 510 131 l 643 131 q 832 217 775 131 q 889 492 889 304 l 889 492 q 881 743 889 669 q 846 851 872 817 l 846 851 q 788 915 826 876 l 788 915 q 760 945 768 935 q 753 975 753 956 l 753 975 q 776 1024 753 1006 q 838 1042 799 1042 l 838 1042 q 872 1040 856 1042 q 901 1038 889 1039 l 901 1038 q 990 1031 947 1031 l 990 1031 q 1068 1036 1021 1031 l 1068 1036 q 1143 1042 1115 1042 l 1143 1042 q 1205 1024 1182 1042 q 1228 975 1228 1006 l 1228 975 q 1220 945 1228 956 q 1193 915 1213 935 l 1193 915 q 1135 851 1154 876 l 1135 851 q 1101 777 1111 819 q 1090 672 1090 735 l 1090 672 q 1106 450 1090 594 l 1106 450 q 1110 383 1110 417 l 1110 383 q 994 92 1110 199 q 643 -14 878 -14 l 643 -14 z m 813 1110 q 732 1143 765 1110 q 699 1224 699 1176 l 699 1224 q 732 1303 699 1269 q 813 1336 765 1336 l 813 1336 q 892 1303 860 1336 q 925 1224 925 1269 l 925 1224 q 892 1143 925 1176 q 813 1110 860 1110 l 813 1110 z m 475 1110 q 394 1143 428 1110 q 361 1224 361 1176 l 361 1224 q 394 1303 361 1269 q 475 1336 428 1336 l 475 1336 q 555 1303 522 1336 q 588 1224 588 1269 l 588 1224 q 555 1143 588 1176 q 475 1110 522 1110 l 475 1110 z m 394 1669 q 418 1679 403 1679 l 418 1679 q 488 1649 449 1679 l 488 1649 q 636 1567 594 1567 l 636 1567 q 696 1585 658 1567 q 779 1639 733 1604 l 779 1639 q 863 1679 833 1679 l 863 1679 q 886 1671 878 1679 l 886 1671 q 899 1643 899 1658 l 899 1643 q 860 1576 899 1615 l 860 1576 l 713 1429 q 669 1390 685 1401 q 639 1378 653 1378 l 639 1378 q 608 1390 624 1378 q 567 1429 592 1401 l 567 1429 l 418 1585 q 386 1646 386 1618 l 386 1646 q 394 1669 386 1660 l 394 1669 z "},"Ǜ":{"ha":1283,"x_min":56,"x_max":1228,"o":"m 643 -14 q 291 92 407 -14 q 175 385 175 199 l 175 385 q 178 450 175 428 l 178 450 q 193 672 193 594 l 193 672 q 183 778 193 736 q 149 851 172 821 l 149 851 q 90 915 129 876 l 90 915 q 63 945 71 935 q 56 975 56 956 l 56 975 q 78 1024 56 1006 q 140 1042 101 1042 l 140 1042 q 175 1040 158 1042 q 204 1038 192 1039 l 204 1038 q 293 1031 250 1031 l 293 1031 q 371 1036 324 1031 l 371 1036 q 446 1042 418 1042 l 446 1042 q 508 1024 485 1042 q 531 975 531 1006 l 531 975 q 523 945 531 956 q 496 915 515 935 l 496 915 q 438 851 457 876 l 438 851 q 403 742 411 817 q 394 492 394 668 l 394 492 q 452 217 394 303 q 643 131 510 131 l 643 131 q 832 217 775 131 q 889 492 889 304 l 889 492 q 881 743 889 669 q 846 851 872 817 l 846 851 q 788 915 826 876 l 788 915 q 760 945 768 935 q 753 975 753 956 l 753 975 q 776 1024 753 1006 q 838 1042 799 1042 l 838 1042 q 872 1040 856 1042 q 901 1038 889 1039 l 901 1038 q 990 1031 947 1031 l 990 1031 q 1068 1036 1021 1031 l 1068 1036 q 1143 1042 1115 1042 l 1143 1042 q 1205 1024 1182 1042 q 1228 975 1228 1006 l 1228 975 q 1220 945 1228 956 q 1193 915 1213 935 l 1193 915 q 1135 851 1154 876 l 1135 851 q 1101 777 1111 819 q 1090 672 1090 735 l 1090 672 q 1106 450 1090 594 l 1106 450 q 1110 383 1110 417 l 1110 383 q 994 92 1110 199 q 643 -14 878 -14 l 643 -14 z m 813 1110 q 732 1143 765 1110 q 699 1224 699 1176 l 699 1224 q 732 1303 699 1269 q 813 1336 765 1336 l 813 1336 q 892 1303 860 1336 q 925 1224 925 1269 l 925 1224 q 892 1143 925 1176 q 813 1110 860 1110 l 813 1110 z m 475 1110 q 394 1143 428 1110 q 361 1224 361 1176 l 361 1224 q 394 1303 361 1269 q 475 1336 428 1336 l 475 1336 q 555 1303 522 1336 q 588 1224 588 1269 l 588 1224 q 555 1143 588 1176 q 475 1110 522 1110 l 475 1110 z m 821 1401 q 783 1389 813 1389 l 783 1389 q 647 1420 733 1389 q 511 1482 560 1451 l 511 1482 q 472 1521 485 1499 q 458 1568 458 1543 l 458 1568 q 475 1621 458 1596 l 475 1621 q 556 1664 503 1664 l 556 1664 q 625 1643 588 1664 l 625 1643 q 708 1578 660 1624 q 790 1487 756 1533 q 824 1414 824 1440 l 824 1414 q 821 1401 824 1406 l 821 1401 z "},"Ǖ":{"ha":1283,"x_min":56,"x_max":1228,"o":"m 643 -14 q 291 92 407 -14 q 175 385 175 199 l 175 385 q 178 450 175 428 l 178 450 q 193 672 193 594 l 193 672 q 183 778 193 736 q 149 851 172 821 l 149 851 q 90 915 129 876 l 90 915 q 63 945 71 935 q 56 975 56 956 l 56 975 q 78 1024 56 1006 q 140 1042 101 1042 l 140 1042 q 175 1040 158 1042 q 204 1038 192 1039 l 204 1038 q 293 1031 250 1031 l 293 1031 q 371 1036 324 1031 l 371 1036 q 446 1042 418 1042 l 446 1042 q 508 1024 485 1042 q 531 975 531 1006 l 531 975 q 523 945 531 956 q 496 915 515 935 l 496 915 q 438 851 457 876 l 438 851 q 403 742 411 817 q 394 492 394 668 l 394 492 q 452 217 394 303 q 643 131 510 131 l 643 131 q 832 217 775 131 q 889 492 889 304 l 889 492 q 881 743 889 669 q 846 851 872 817 l 846 851 q 788 915 826 876 l 788 915 q 760 945 768 935 q 753 975 753 956 l 753 975 q 776 1024 753 1006 q 838 1042 799 1042 l 838 1042 q 872 1040 856 1042 q 901 1038 889 1039 l 901 1038 q 990 1031 947 1031 l 990 1031 q 1068 1036 1021 1031 l 1068 1036 q 1143 1042 1115 1042 l 1143 1042 q 1205 1024 1182 1042 q 1228 975 1228 1006 l 1228 975 q 1220 945 1228 956 q 1193 915 1213 935 l 1193 915 q 1135 851 1154 876 l 1135 851 q 1101 777 1111 819 q 1090 672 1090 735 l 1090 672 q 1106 450 1090 594 l 1106 450 q 1110 383 1110 417 l 1110 383 q 994 92 1110 199 q 643 -14 878 -14 l 643 -14 z m 813 1110 q 732 1143 765 1110 q 699 1224 699 1176 l 699 1224 q 732 1303 699 1269 q 813 1336 765 1336 l 813 1336 q 892 1303 860 1336 q 925 1224 925 1269 l 925 1224 q 892 1143 925 1176 q 813 1110 860 1110 l 813 1110 z m 475 1110 q 394 1143 428 1110 q 361 1224 361 1176 l 361 1224 q 394 1303 361 1269 q 475 1336 428 1336 l 475 1336 q 555 1303 522 1336 q 588 1224 588 1269 l 588 1224 q 555 1143 588 1176 q 475 1110 522 1110 l 475 1110 z m 419 1590 q 476 1589 446 1590 q 522 1586 507 1588 l 522 1586 q 639 1581 592 1581 l 639 1581 q 758 1586 689 1581 l 758 1586 q 806 1589 775 1588 q 864 1590 838 1590 l 864 1590 q 909 1566 892 1590 q 926 1501 926 1542 l 926 1501 q 909 1435 926 1460 q 864 1410 892 1410 l 864 1410 q 806 1411 838 1410 q 758 1414 775 1413 l 758 1414 q 639 1419 689 1419 l 639 1419 q 522 1414 592 1419 l 522 1414 q 476 1411 507 1413 q 419 1410 446 1410 l 419 1410 q 374 1435 392 1410 q 357 1501 357 1460 l 357 1501 q 374 1566 357 1542 q 419 1590 392 1590 l 419 1590 z "},"Ù":{"ha":1283,"x_min":56,"x_max":1228,"o":"m 643 -14 q 291 92 407 -14 q 175 385 175 199 l 175 385 q 178 450 175 428 l 178 450 q 193 672 193 594 l 193 672 q 183 778 193 736 q 149 851 172 821 l 149 851 q 90 915 129 876 l 90 915 q 63 945 71 935 q 56 975 56 956 l 56 975 q 78 1024 56 1006 q 140 1042 101 1042 l 140 1042 q 175 1040 158 1042 q 204 1038 192 1039 l 204 1038 q 293 1031 250 1031 l 293 1031 q 371 1036 324 1031 l 371 1036 q 446 1042 418 1042 l 446 1042 q 508 1024 485 1042 q 531 975 531 1006 l 531 975 q 523 945 531 956 q 496 915 515 935 l 496 915 q 438 851 457 876 l 438 851 q 403 742 411 817 q 394 492 394 668 l 394 492 q 452 217 394 303 q 643 131 510 131 l 643 131 q 832 217 775 131 q 889 492 889 304 l 889 492 q 881 743 889 669 q 846 851 872 817 l 846 851 q 788 915 826 876 l 788 915 q 760 945 768 935 q 753 975 753 956 l 753 975 q 776 1024 753 1006 q 838 1042 799 1042 l 838 1042 q 872 1040 856 1042 q 901 1038 889 1039 l 901 1038 q 990 1031 947 1031 l 990 1031 q 1068 1036 1021 1031 l 1068 1036 q 1143 1042 1115 1042 l 1143 1042 q 1205 1024 1182 1042 q 1228 975 1228 1006 l 1228 975 q 1220 945 1228 956 q 1193 915 1213 935 l 1193 915 q 1135 851 1154 876 l 1135 851 q 1101 777 1111 819 q 1090 672 1090 735 l 1090 672 q 1106 450 1090 594 l 1106 450 q 1110 383 1110 417 l 1110 383 q 994 92 1110 199 q 643 -14 878 -14 l 643 -14 z m 821 1114 q 783 1101 813 1101 l 783 1101 q 647 1133 733 1101 q 511 1194 560 1164 l 511 1194 q 472 1233 485 1211 q 458 1281 458 1256 l 458 1281 q 475 1333 458 1308 l 475 1333 q 556 1376 503 1376 l 556 1376 q 625 1356 588 1376 l 625 1356 q 708 1291 660 1336 q 790 1199 756 1246 q 824 1126 824 1153 l 824 1126 q 821 1114 824 1118 l 821 1114 z "},"Ű":{"ha":1283,"x_min":56,"x_max":1228,"o":"m 643 -14 q 291 92 407 -14 q 175 385 175 199 l 175 385 q 178 450 175 428 l 178 450 q 193 672 193 594 l 193 672 q 183 778 193 736 q 149 851 172 821 l 149 851 q 90 915 129 876 l 90 915 q 63 945 71 935 q 56 975 56 956 l 56 975 q 78 1024 56 1006 q 140 1042 101 1042 l 140 1042 q 175 1040 158 1042 q 204 1038 192 1039 l 204 1038 q 293 1031 250 1031 l 293 1031 q 371 1036 324 1031 l 371 1036 q 446 1042 418 1042 l 446 1042 q 508 1024 485 1042 q 531 975 531 1006 l 531 975 q 523 945 531 956 q 496 915 515 935 l 496 915 q 438 851 457 876 l 438 851 q 403 742 411 817 q 394 492 394 668 l 394 492 q 452 217 394 303 q 643 131 510 131 l 643 131 q 832 217 775 131 q 889 492 889 304 l 889 492 q 881 743 889 669 q 846 851 872 817 l 846 851 q 788 915 826 876 l 788 915 q 760 945 768 935 q 753 975 753 956 l 753 975 q 776 1024 753 1006 q 838 1042 799 1042 l 838 1042 q 872 1040 856 1042 q 901 1038 889 1039 l 901 1038 q 990 1031 947 1031 l 990 1031 q 1068 1036 1021 1031 l 1068 1036 q 1143 1042 1115 1042 l 1143 1042 q 1205 1024 1182 1042 q 1228 975 1228 1006 l 1228 975 q 1220 945 1228 956 q 1193 915 1213 935 l 1193 915 q 1135 851 1154 876 l 1135 851 q 1101 777 1111 819 q 1090 672 1090 735 l 1090 672 q 1106 450 1090 594 l 1106 450 q 1110 383 1110 417 l 1110 383 q 994 92 1110 199 q 643 -14 878 -14 l 643 -14 z m 507 1103 q 496 1131 496 1110 l 496 1131 q 533 1253 496 1174 q 606 1374 569 1332 l 606 1374 q 706 1425 651 1425 l 706 1425 q 751 1413 731 1425 l 751 1413 q 790 1347 790 1389 l 790 1347 q 765 1285 790 1317 l 765 1285 q 639 1166 722 1232 q 519 1100 556 1100 l 519 1100 q 507 1103 513 1100 l 507 1103 z m 796 1103 q 785 1131 785 1110 l 785 1131 q 822 1253 785 1174 q 894 1374 858 1332 l 894 1374 q 994 1425 940 1425 l 994 1425 q 1040 1413 1019 1425 l 1040 1413 q 1079 1347 1079 1389 l 1079 1347 q 1054 1285 1079 1317 l 1054 1285 q 928 1166 1011 1232 q 808 1100 844 1100 l 808 1100 q 796 1103 801 1100 l 796 1103 z "},"Ū":{"ha":1283,"x_min":56,"x_max":1228,"o":"m 643 -14 q 291 92 407 -14 q 175 385 175 199 l 175 385 q 178 450 175 428 l 178 450 q 193 672 193 594 l 193 672 q 183 778 193 736 q 149 851 172 821 l 149 851 q 90 915 129 876 l 90 915 q 63 945 71 935 q 56 975 56 956 l 56 975 q 78 1024 56 1006 q 140 1042 101 1042 l 140 1042 q 175 1040 158 1042 q 204 1038 192 1039 l 204 1038 q 293 1031 250 1031 l 293 1031 q 371 1036 324 1031 l 371 1036 q 446 1042 418 1042 l 446 1042 q 508 1024 485 1042 q 531 975 531 1006 l 531 975 q 523 945 531 956 q 496 915 515 935 l 496 915 q 438 851 457 876 l 438 851 q 403 742 411 817 q 394 492 394 668 l 394 492 q 452 217 394 303 q 643 131 510 131 l 643 131 q 832 217 775 131 q 889 492 889 304 l 889 492 q 881 743 889 669 q 846 851 872 817 l 846 851 q 788 915 826 876 l 788 915 q 760 945 768 935 q 753 975 753 956 l 753 975 q 776 1024 753 1006 q 838 1042 799 1042 l 838 1042 q 872 1040 856 1042 q 901 1038 889 1039 l 901 1038 q 990 1031 947 1031 l 990 1031 q 1068 1036 1021 1031 l 1068 1036 q 1143 1042 1115 1042 l 1143 1042 q 1205 1024 1182 1042 q 1228 975 1228 1006 l 1228 975 q 1220 945 1228 956 q 1193 915 1213 935 l 1193 915 q 1135 851 1154 876 l 1135 851 q 1101 777 1111 819 q 1090 672 1090 735 l 1090 672 q 1106 450 1090 594 l 1106 450 q 1110 383 1110 417 l 1110 383 q 994 92 1110 199 q 643 -14 878 -14 l 643 -14 z m 419 1303 q 476 1301 446 1303 q 522 1299 507 1300 l 522 1299 q 639 1293 592 1293 l 639 1293 q 758 1299 689 1293 l 758 1299 q 806 1301 775 1300 q 864 1303 838 1303 l 864 1303 q 909 1278 892 1303 q 926 1214 926 1254 l 926 1214 q 909 1147 926 1172 q 864 1122 892 1122 l 864 1122 q 806 1124 838 1122 q 758 1126 775 1125 l 758 1126 q 639 1132 689 1132 l 639 1132 q 522 1126 592 1132 l 522 1126 q 476 1124 507 1125 q 419 1122 446 1122 l 419 1122 q 374 1147 392 1122 q 357 1214 357 1172 l 357 1214 q 374 1278 357 1254 q 419 1303 392 1303 l 419 1303 z "},"Ų":{"ha":1283,"x_min":56,"x_max":1228,"o":"m 636 -292 q 534 -254 572 -292 q 496 -164 496 -217 l 496 -164 q 499 -137 496 -154 l 499 -137 q 600 -12 515 -62 l 600 -12 q 281 103 386 -3 q 175 385 175 208 l 175 385 q 178 450 175 428 l 178 450 q 193 672 193 594 l 193 672 q 183 778 193 736 q 149 851 172 821 l 149 851 q 90 915 129 876 l 90 915 q 63 945 71 935 q 56 975 56 956 l 56 975 q 78 1024 56 1006 q 140 1042 101 1042 l 140 1042 q 175 1040 158 1042 q 204 1038 192 1039 l 204 1038 q 293 1031 250 1031 l 293 1031 q 371 1036 324 1031 l 371 1036 q 446 1042 418 1042 l 446 1042 q 508 1024 485 1042 q 531 975 531 1006 l 531 975 q 523 945 531 956 q 496 915 515 935 l 496 915 q 438 851 457 876 l 438 851 q 403 742 411 817 q 394 492 394 668 l 394 492 q 452 217 394 303 q 643 131 510 131 l 643 131 q 832 217 775 131 q 889 492 889 304 l 889 492 q 881 743 889 669 q 846 851 872 817 l 846 851 q 788 915 826 876 l 788 915 q 760 945 768 935 q 753 975 753 956 l 753 975 q 776 1024 753 1006 q 838 1042 799 1042 l 838 1042 q 872 1040 856 1042 q 901 1038 889 1039 l 901 1038 q 990 1031 947 1031 l 990 1031 q 1068 1036 1021 1031 l 1068 1036 q 1143 1042 1115 1042 l 1143 1042 q 1205 1024 1182 1042 q 1228 975 1228 1006 l 1228 975 q 1220 945 1228 956 q 1193 915 1213 935 l 1193 915 q 1135 851 1154 876 l 1135 851 q 1101 777 1111 819 q 1090 672 1090 735 l 1090 672 q 1106 450 1090 594 l 1106 450 q 1108 385 1108 428 l 1108 385 q 1025 125 1108 226 q 772 -4 942 24 l 772 -4 q 680 -49 722 -14 q 638 -119 638 -83 l 638 -119 q 653 -158 638 -142 q 694 -181 668 -175 l 694 -181 q 725 -183 714 -183 l 725 -183 q 788 -175 754 -183 l 788 -175 q 807 -172 801 -172 l 807 -172 q 824 -179 821 -172 l 824 -179 q 825 -183 825 -181 l 825 -183 q 810 -207 825 -189 l 810 -207 q 736 -265 783 -237 q 636 -292 689 -292 l 636 -292 z "},"Ů":{"ha":1283,"x_min":56,"x_max":1228,"o":"m 643 -14 q 291 92 407 -14 q 175 385 175 199 l 175 385 q 178 450 175 428 l 178 450 q 193 672 193 594 l 193 672 q 183 778 193 736 q 149 851 172 821 l 149 851 q 90 915 129 876 l 90 915 q 63 945 71 935 q 56 975 56 956 l 56 975 q 78 1024 56 1006 q 140 1042 101 1042 l 140 1042 q 175 1040 158 1042 q 204 1038 192 1039 l 204 1038 q 293 1031 250 1031 l 293 1031 q 371 1036 324 1031 l 371 1036 q 446 1042 418 1042 l 446 1042 q 508 1024 485 1042 q 531 975 531 1006 l 531 975 q 523 945 531 956 q 496 915 515 935 l 496 915 q 438 851 457 876 l 438 851 q 403 742 411 817 q 394 492 394 668 l 394 492 q 452 217 394 303 q 643 131 510 131 l 643 131 q 832 217 775 131 q 889 492 889 304 l 889 492 q 881 743 889 669 q 846 851 872 817 l 846 851 q 788 915 826 876 l 788 915 q 760 945 768 935 q 753 975 753 956 l 753 975 q 776 1024 753 1006 q 838 1042 799 1042 l 838 1042 q 872 1040 856 1042 q 901 1038 889 1039 l 901 1038 q 990 1031 947 1031 l 990 1031 q 1068 1036 1021 1031 l 1068 1036 q 1143 1042 1115 1042 l 1143 1042 q 1205 1024 1182 1042 q 1228 975 1228 1006 l 1228 975 q 1220 945 1228 956 q 1193 915 1213 935 l 1193 915 q 1135 851 1154 876 l 1135 851 q 1101 777 1111 819 q 1090 672 1090 735 l 1090 672 q 1106 450 1090 594 l 1106 450 q 1110 383 1110 417 l 1110 383 q 994 92 1110 199 q 643 -14 878 -14 l 643 -14 z m 528 1122 q 482 1238 482 1171 l 482 1238 q 494 1299 482 1269 q 528 1351 506 1329 l 528 1351 q 642 1397 576 1397 l 642 1397 q 703 1385 674 1397 q 756 1351 733 1374 l 756 1351 q 801 1236 801 1304 l 801 1236 q 790 1176 801 1206 q 756 1124 778 1146 l 756 1124 q 640 1078 708 1078 l 640 1078 q 528 1122 575 1078 l 528 1122 z m 594 1189 q 640 1171 611 1171 l 640 1171 q 689 1190 669 1171 l 689 1190 q 708 1238 708 1208 l 708 1238 q 689 1285 708 1269 l 689 1285 q 642 1304 672 1304 l 642 1304 q 594 1285 614 1304 l 594 1285 q 575 1238 575 1268 l 575 1238 q 594 1189 575 1208 l 594 1189 z "},"V":{"ha":1242,"x_min":0,"x_max":1242,"o":"m 631 -42 q 567 -23 592 -42 q 514 56 543 -4 l 514 56 l 322 450 q 196 691 256 586 q 93 851 136 796 l 93 851 q 35 915 74 876 l 35 915 q 8 945 15 935 q 0 975 0 956 l 0 975 q 23 1024 0 1006 q 85 1042 46 1042 l 85 1042 q 119 1040 103 1042 q 149 1038 136 1039 l 149 1038 q 238 1031 194 1031 l 238 1031 q 338 1036 268 1031 l 338 1036 q 432 1042 404 1042 l 432 1042 q 494 1024 471 1042 q 517 975 517 1006 l 517 975 q 507 944 517 957 q 476 911 497 931 l 476 911 q 424 851 440 878 l 424 851 q 414 813 414 836 l 414 813 q 442 706 414 772 q 533 513 469 639 l 533 513 l 649 282 q 661 268 656 268 l 661 268 q 674 283 667 268 l 674 283 l 767 492 q 848 689 822 617 q 874 804 874 761 l 874 804 q 860 851 874 833 l 860 851 q 816 899 838 881 q 792 919 794 917 l 792 919 q 762 947 771 936 q 753 975 753 958 l 753 975 q 776 1024 753 1006 q 838 1042 799 1042 l 838 1042 q 874 1040 857 1042 q 907 1038 892 1039 l 907 1038 q 1004 1031 960 1031 l 1004 1031 q 1082 1036 1035 1031 l 1082 1036 q 1157 1042 1129 1042 l 1157 1042 q 1219 1024 1196 1042 q 1242 975 1242 1006 l 1242 975 q 1232 945 1242 957 q 1200 915 1222 933 l 1200 915 q 1135 851 1158 879 l 1135 851 q 917 450 1053 751 l 917 450 l 735 65 q 681 -19 703 4 q 631 -42 660 -42 l 631 -42 z "},"W":{"ha":1640,"x_min":0,"x_max":1640,"o":"m 497 -42 q 437 -9 463 -42 q 388 92 411 24 l 388 92 l 214 578 q 186 657 194 631 l 186 657 q 142 778 160 735 q 107 844 125 821 l 107 844 q 77 878 92 865 q 42 906 63 890 l 42 906 q 10 935 19 922 q 0 974 0 949 l 0 974 q 23 1018 0 1001 q 85 1035 46 1035 l 85 1035 q 165 1029 113 1035 l 165 1029 q 251 1024 221 1024 l 251 1024 q 326 1029 279 1024 l 326 1029 q 418 1035 379 1035 l 418 1035 q 480 1018 457 1035 q 503 974 503 1001 l 503 974 q 490 931 503 947 q 450 894 478 915 l 450 894 q 422 872 436 885 q 396 844 407 858 l 396 844 q 382 793 382 826 l 382 793 q 393 718 382 761 q 418 633 404 675 q 436 578 432 590 l 436 578 l 493 403 q 503 370 496 394 q 517 337 511 346 q 531 328 524 328 l 531 328 q 549 341 542 328 q 569 386 556 354 l 569 386 l 750 826 q 761 874 761 851 l 761 874 q 746 929 761 903 l 746 929 q 733 975 733 954 l 733 975 q 767 1019 733 1010 l 767 1019 l 853 1046 q 888 1051 871 1051 l 888 1051 q 925 1038 910 1051 q 951 993 940 1024 l 951 993 l 1179 368 q 1196 346 1188 346 l 1196 346 q 1211 368 1203 346 l 1211 368 l 1286 578 q 1331 776 1331 700 l 1331 776 q 1314 844 1331 824 l 1314 844 q 1284 878 1299 865 q 1249 906 1269 890 l 1249 906 q 1217 935 1226 922 q 1207 974 1207 949 l 1207 974 q 1230 1018 1207 1001 q 1292 1035 1253 1035 l 1292 1035 q 1375 1028 1317 1035 l 1375 1028 q 1424 1024 1403 1024 l 1424 1024 q 1463 1028 1440 1024 l 1463 1028 q 1556 1035 1518 1035 l 1556 1035 q 1617 1018 1594 1035 q 1640 974 1640 1001 l 1640 974 q 1631 935 1640 949 q 1599 906 1621 922 l 1599 906 q 1563 878 1578 890 q 1533 844 1549 865 l 1533 844 q 1421 578 1488 785 l 1421 578 l 1264 92 q 1247 38 1261 82 q 1215 -24 1233 -6 q 1168 -42 1196 -42 l 1168 -42 q 1120 -26 1139 -42 q 1090 15 1101 -10 q 1058 92 1078 40 l 1058 92 l 851 642 q 836 664 843 664 l 836 664 q 819 642 828 664 l 819 642 l 608 90 q 558 -12 581 17 q 497 -42 535 -42 l 497 -42 z "},"Ẃ":{"ha":1640,"x_min":0,"x_max":1640,"o":"m 497 -42 q 437 -9 463 -42 q 388 92 411 24 l 388 92 l 214 578 q 186 657 194 631 l 186 657 q 142 778 160 735 q 107 844 125 821 l 107 844 q 77 878 92 865 q 42 906 63 890 l 42 906 q 10 935 19 922 q 0 974 0 949 l 0 974 q 23 1018 0 1001 q 85 1035 46 1035 l 85 1035 q 165 1029 113 1035 l 165 1029 q 251 1024 221 1024 l 251 1024 q 326 1029 279 1024 l 326 1029 q 418 1035 379 1035 l 418 1035 q 480 1018 457 1035 q 503 974 503 1001 l 503 974 q 490 931 503 947 q 450 894 478 915 l 450 894 q 422 872 436 885 q 396 844 407 858 l 396 844 q 382 793 382 826 l 382 793 q 393 718 382 761 q 418 633 404 675 q 436 578 432 590 l 436 578 l 493 403 q 503 370 496 394 q 517 337 511 346 q 531 328 524 328 l 531 328 q 549 341 542 328 q 569 386 556 354 l 569 386 l 750 826 q 761 874 761 851 l 761 874 q 746 929 761 903 l 746 929 q 733 975 733 954 l 733 975 q 767 1019 733 1010 l 767 1019 l 853 1046 q 888 1051 871 1051 l 888 1051 q 925 1038 910 1051 q 951 993 940 1024 l 951 993 l 1179 368 q 1196 346 1188 346 l 1196 346 q 1211 368 1203 346 l 1211 368 l 1286 578 q 1331 776 1331 700 l 1331 776 q 1314 844 1331 824 l 1314 844 q 1284 878 1299 865 q 1249 906 1269 890 l 1249 906 q 1217 935 1226 922 q 1207 974 1207 949 l 1207 974 q 1230 1018 1207 1001 q 1292 1035 1253 1035 l 1292 1035 q 1375 1028 1317 1035 l 1375 1028 q 1424 1024 1403 1024 l 1424 1024 q 1463 1028 1440 1024 l 1463 1028 q 1556 1035 1518 1035 l 1556 1035 q 1617 1018 1594 1035 q 1640 974 1640 1001 l 1640 974 q 1631 935 1640 949 q 1599 906 1621 922 l 1599 906 q 1563 878 1578 890 q 1533 844 1549 865 l 1533 844 q 1421 578 1488 785 l 1421 578 l 1264 92 q 1247 38 1261 82 q 1215 -24 1233 -6 q 1168 -42 1196 -42 l 1168 -42 q 1120 -26 1139 -42 q 1090 15 1101 -10 q 1058 92 1078 40 l 1058 92 l 851 642 q 836 664 843 664 l 836 664 q 819 642 828 664 l 819 642 l 608 90 q 558 -12 581 17 q 497 -42 535 -42 l 497 -42 z m 721 1142 q 718 1154 718 1146 l 718 1154 q 752 1227 718 1181 q 834 1319 786 1274 q 917 1383 882 1364 l 917 1383 q 986 1404 954 1404 l 986 1404 q 1067 1361 1039 1404 l 1067 1361 q 1083 1308 1083 1336 l 1083 1308 q 1070 1261 1083 1283 q 1031 1222 1057 1239 l 1031 1222 q 895 1160 982 1192 q 758 1129 808 1129 l 758 1129 q 721 1142 729 1129 l 721 1142 z "},"Ŵ":{"ha":1640,"x_min":0,"x_max":1640,"o":"m 497 -42 q 437 -9 463 -42 q 388 92 411 24 l 388 92 l 214 578 q 186 657 194 631 l 186 657 q 142 778 160 735 q 107 844 125 821 l 107 844 q 77 878 92 865 q 42 906 63 890 l 42 906 q 10 935 19 922 q 0 974 0 949 l 0 974 q 23 1018 0 1001 q 85 1035 46 1035 l 85 1035 q 165 1029 113 1035 l 165 1029 q 251 1024 221 1024 l 251 1024 q 326 1029 279 1024 l 326 1029 q 418 1035 379 1035 l 418 1035 q 480 1018 457 1035 q 503 974 503 1001 l 503 974 q 490 931 503 947 q 450 894 478 915 l 450 894 q 422 872 436 885 q 396 844 407 858 l 396 844 q 382 793 382 826 l 382 793 q 393 718 382 761 q 418 633 404 675 q 436 578 432 590 l 436 578 l 493 403 q 503 370 496 394 q 517 337 511 346 q 531 328 524 328 l 531 328 q 549 341 542 328 q 569 386 556 354 l 569 386 l 750 826 q 761 874 761 851 l 761 874 q 746 929 761 903 l 746 929 q 733 975 733 954 l 733 975 q 767 1019 733 1010 l 767 1019 l 853 1046 q 888 1051 871 1051 l 888 1051 q 925 1038 910 1051 q 951 993 940 1024 l 951 993 l 1179 368 q 1196 346 1188 346 l 1196 346 q 1211 368 1203 346 l 1211 368 l 1286 578 q 1331 776 1331 700 l 1331 776 q 1314 844 1331 824 l 1314 844 q 1284 878 1299 865 q 1249 906 1269 890 l 1249 906 q 1217 935 1226 922 q 1207 974 1207 949 l 1207 974 q 1230 1018 1207 1001 q 1292 1035 1253 1035 l 1292 1035 q 1375 1028 1317 1035 l 1375 1028 q 1424 1024 1403 1024 l 1424 1024 q 1463 1028 1440 1024 l 1463 1028 q 1556 1035 1518 1035 l 1556 1035 q 1617 1018 1594 1035 q 1640 974 1640 1001 l 1640 974 q 1631 935 1640 949 q 1599 906 1621 922 l 1599 906 q 1563 878 1578 890 q 1533 844 1549 865 l 1533 844 q 1421 578 1488 785 l 1421 578 l 1264 92 q 1247 38 1261 82 q 1215 -24 1233 -6 q 1168 -42 1196 -42 l 1168 -42 q 1120 -26 1139 -42 q 1090 15 1101 -10 q 1058 92 1078 40 l 1058 92 l 851 642 q 836 664 843 664 l 836 664 q 819 642 828 664 l 819 642 l 608 90 q 558 -12 581 17 q 497 -42 535 -42 l 497 -42 z m 615 1106 q 607 1129 607 1117 l 607 1129 q 639 1190 607 1157 l 639 1190 l 788 1346 q 828 1385 813 1374 q 860 1397 844 1397 l 860 1397 q 890 1385 874 1397 q 933 1346 906 1374 l 933 1346 l 1081 1199 q 1119 1132 1119 1160 l 1119 1132 q 1107 1104 1119 1117 l 1107 1104 q 1083 1096 1099 1096 l 1083 1096 q 1000 1136 1054 1096 l 1000 1136 q 917 1190 954 1171 q 857 1208 879 1208 l 857 1208 q 708 1126 815 1208 l 708 1126 q 639 1096 669 1096 l 639 1096 q 615 1106 624 1096 l 615 1106 z "},"Ẅ":{"ha":1640,"x_min":0,"x_max":1640,"o":"m 497 -42 q 437 -9 463 -42 q 388 92 411 24 l 388 92 l 214 578 q 186 657 194 631 l 186 657 q 142 778 160 735 q 107 844 125 821 l 107 844 q 77 878 92 865 q 42 906 63 890 l 42 906 q 10 935 19 922 q 0 974 0 949 l 0 974 q 23 1018 0 1001 q 85 1035 46 1035 l 85 1035 q 165 1029 113 1035 l 165 1029 q 251 1024 221 1024 l 251 1024 q 326 1029 279 1024 l 326 1029 q 418 1035 379 1035 l 418 1035 q 480 1018 457 1035 q 503 974 503 1001 l 503 974 q 490 931 503 947 q 450 894 478 915 l 450 894 q 422 872 436 885 q 396 844 407 858 l 396 844 q 382 793 382 826 l 382 793 q 393 718 382 761 q 418 633 404 675 q 436 578 432 590 l 436 578 l 493 403 q 503 370 496 394 q 517 337 511 346 q 531 328 524 328 l 531 328 q 549 341 542 328 q 569 386 556 354 l 569 386 l 750 826 q 761 874 761 851 l 761 874 q 746 929 761 903 l 746 929 q 733 975 733 954 l 733 975 q 767 1019 733 1010 l 767 1019 l 853 1046 q 888 1051 871 1051 l 888 1051 q 925 1038 910 1051 q 951 993 940 1024 l 951 993 l 1179 368 q 1196 346 1188 346 l 1196 346 q 1211 368 1203 346 l 1211 368 l 1286 578 q 1331 776 1331 700 l 1331 776 q 1314 844 1331 824 l 1314 844 q 1284 878 1299 865 q 1249 906 1269 890 l 1249 906 q 1217 935 1226 922 q 1207 974 1207 949 l 1207 974 q 1230 1018 1207 1001 q 1292 1035 1253 1035 l 1292 1035 q 1375 1028 1317 1035 l 1375 1028 q 1424 1024 1403 1024 l 1424 1024 q 1463 1028 1440 1024 l 1463 1028 q 1556 1035 1518 1035 l 1556 1035 q 1617 1018 1594 1035 q 1640 974 1640 1001 l 1640 974 q 1631 935 1640 949 q 1599 906 1621 922 l 1599 906 q 1563 878 1578 890 q 1533 844 1549 865 l 1533 844 q 1421 578 1488 785 l 1421 578 l 1264 92 q 1247 38 1261 82 q 1215 -24 1233 -6 q 1168 -42 1196 -42 l 1168 -42 q 1120 -26 1139 -42 q 1090 15 1101 -10 q 1058 92 1078 40 l 1058 92 l 851 642 q 836 664 843 664 l 836 664 q 819 642 828 664 l 819 642 l 608 90 q 558 -12 581 17 q 497 -42 535 -42 l 497 -42 z m 1033 1110 q 953 1143 986 1110 q 919 1224 919 1176 l 919 1224 q 953 1303 919 1269 q 1033 1336 986 1336 l 1033 1336 q 1113 1303 1081 1336 q 1146 1224 1146 1269 l 1146 1224 q 1113 1143 1146 1176 q 1033 1110 1081 1110 l 1033 1110 z m 696 1110 q 615 1143 649 1110 q 582 1224 582 1176 l 582 1224 q 615 1303 582 1269 q 696 1336 649 1336 l 696 1336 q 776 1303 743 1336 q 808 1224 808 1269 l 808 1224 q 776 1143 808 1176 q 696 1110 743 1110 l 696 1110 z "},"Ẁ":{"ha":1640,"x_min":0,"x_max":1640,"o":"m 497 -42 q 437 -9 463 -42 q 388 92 411 24 l 388 92 l 214 578 q 186 657 194 631 l 186 657 q 142 778 160 735 q 107 844 125 821 l 107 844 q 77 878 92 865 q 42 906 63 890 l 42 906 q 10 935 19 922 q 0 974 0 949 l 0 974 q 23 1018 0 1001 q 85 1035 46 1035 l 85 1035 q 165 1029 113 1035 l 165 1029 q 251 1024 221 1024 l 251 1024 q 326 1029 279 1024 l 326 1029 q 418 1035 379 1035 l 418 1035 q 480 1018 457 1035 q 503 974 503 1001 l 503 974 q 490 931 503 947 q 450 894 478 915 l 450 894 q 422 872 436 885 q 396 844 407 858 l 396 844 q 382 793 382 826 l 382 793 q 393 718 382 761 q 418 633 404 675 q 436 578 432 590 l 436 578 l 493 403 q 503 370 496 394 q 517 337 511 346 q 531 328 524 328 l 531 328 q 549 341 542 328 q 569 386 556 354 l 569 386 l 750 826 q 761 874 761 851 l 761 874 q 746 929 761 903 l 746 929 q 733 975 733 954 l 733 975 q 767 1019 733 1010 l 767 1019 l 853 1046 q 888 1051 871 1051 l 888 1051 q 925 1038 910 1051 q 951 993 940 1024 l 951 993 l 1179 368 q 1196 346 1188 346 l 1196 346 q 1211 368 1203 346 l 1211 368 l 1286 578 q 1331 776 1331 700 l 1331 776 q 1314 844 1331 824 l 1314 844 q 1284 878 1299 865 q 1249 906 1269 890 l 1249 906 q 1217 935 1226 922 q 1207 974 1207 949 l 1207 974 q 1230 1018 1207 1001 q 1292 1035 1253 1035 l 1292 1035 q 1375 1028 1317 1035 l 1375 1028 q 1424 1024 1403 1024 l 1424 1024 q 1463 1028 1440 1024 l 1463 1028 q 1556 1035 1518 1035 l 1556 1035 q 1617 1018 1594 1035 q 1640 974 1640 1001 l 1640 974 q 1631 935 1640 949 q 1599 906 1621 922 l 1599 906 q 1563 878 1578 890 q 1533 844 1549 865 l 1533 844 q 1421 578 1488 785 l 1421 578 l 1264 92 q 1247 38 1261 82 q 1215 -24 1233 -6 q 1168 -42 1196 -42 l 1168 -42 q 1120 -26 1139 -42 q 1090 15 1101 -10 q 1058 92 1078 40 l 1058 92 l 851 642 q 836 664 843 664 l 836 664 q 819 642 828 664 l 819 642 l 608 90 q 558 -12 581 17 q 497 -42 535 -42 l 497 -42 z m 1042 1114 q 1004 1101 1033 1101 l 1004 1101 q 867 1133 954 1101 q 732 1194 781 1164 l 732 1194 q 692 1233 706 1211 q 679 1281 679 1256 l 679 1281 q 696 1333 679 1308 l 696 1333 q 776 1376 724 1376 l 776 1376 q 846 1356 808 1376 l 846 1356 q 928 1291 881 1336 q 1010 1199 976 1246 q 1044 1126 1044 1153 l 1044 1126 q 1042 1114 1044 1118 l 1042 1114 z "},"X":{"ha":1168,"x_min":14,"x_max":1154,"o":"m 1014 -21 q 858 25 925 -21 q 726 157 792 71 l 726 157 l 693 201 q 568 363 608 311 l 568 363 q 544 378 557 378 l 544 378 q 518 363 533 378 l 518 363 q 429 263 461 306 q 397 188 397 219 l 397 188 q 400 171 397 182 l 400 171 q 419 141 407 151 q 456 117 432 131 l 456 117 q 491 91 479 104 q 503 54 503 78 l 503 54 q 480 10 503 26 q 418 -7 457 -7 l 418 -7 q 333 -1 381 -7 l 333 -1 q 265 4 292 4 l 265 4 q 193 -1 235 4 l 193 -1 q 126 -7 154 -7 l 126 -7 q 65 10 88 -7 q 42 54 42 26 l 42 54 q 58 104 42 86 q 111 147 74 122 l 111 147 q 134 163 118 153 q 163 185 150 174 l 163 185 q 417 436 225 238 l 417 436 q 447 490 447 468 l 447 490 q 422 536 447 508 l 422 536 q 266 713 357 614 q 135 851 175 813 l 135 851 q 68 906 107 878 l 68 906 q 26 942 38 928 q 14 975 14 956 l 14 975 q 37 1024 14 1006 q 99 1042 60 1042 l 99 1042 q 135 1040 118 1042 q 168 1038 153 1039 l 168 1038 q 265 1031 221 1031 l 265 1031 q 343 1036 296 1031 l 343 1036 q 418 1042 390 1042 l 418 1042 q 480 1024 457 1042 q 503 975 503 1006 l 503 975 q 497 942 503 953 q 476 918 490 931 l 476 918 q 467 909 475 917 q 455 893 460 901 q 447 874 450 885 l 447 874 q 476 790 440 844 q 578 656 511 736 l 578 656 q 601 640 590 640 l 601 640 q 625 654 611 640 l 625 654 q 741 785 699 728 q 776 874 783 843 l 776 874 q 763 905 772 894 q 738 925 753 915 l 738 925 q 715 944 722 933 q 707 975 707 954 l 707 975 q 730 1024 707 1006 q 792 1042 753 1042 l 792 1042 q 853 1036 819 1042 l 853 1036 q 917 1031 886 1031 l 917 1031 q 990 1038 956 1031 l 990 1038 q 1014 1040 999 1039 q 1042 1042 1029 1042 l 1042 1042 q 1103 1024 1081 1042 q 1126 975 1126 1006 l 1126 975 q 1115 942 1126 956 q 1072 906 1103 928 l 1072 906 q 1006 851 1033 878 l 1006 851 l 964 811 q 719 571 783 638 l 719 571 q 697 531 697 549 l 697 531 q 722 485 697 514 l 722 485 q 1018 190 886 294 l 1018 190 q 1067 156 1043 171 q 1099 135 1090 140 l 1099 135 q 1142 103 1131 115 q 1154 68 1154 92 l 1154 68 q 1138 28 1154 49 q 1089 -7 1121 7 q 1014 -21 1057 -21 l 1014 -21 z "},"Y":{"ha":1011,"x_min":-28,"x_max":1025,"o":"m 351 -7 q 290 10 313 -7 q 267 54 267 26 l 267 54 q 276 92 267 79 q 308 122 286 106 l 308 122 q 344 150 329 138 q 374 183 358 163 l 374 183 q 394 209 379 190 q 412 246 408 228 q 415 297 415 264 l 415 297 q 380 424 415 347 q 274 626 344 501 l 274 626 q 183 744 229 706 q 72 815 136 782 l 72 815 q 14 849 35 833 q -19 889 -7 864 l -19 889 q -28 924 -28 906 l -28 924 q 4 994 -28 957 l 4 994 q 169 1057 61 1057 l 169 1057 q 345 940 250 1057 q 549 563 440 822 l 549 563 q 564 546 556 546 l 564 546 q 582 560 572 546 l 582 560 q 677 713 643 640 q 744 879 711 785 l 744 879 q 788 983 774 957 l 788 983 q 840 1041 810 1024 q 907 1058 869 1058 l 907 1058 q 991 1031 957 1058 q 1025 951 1025 1003 l 1025 951 q 938 769 1025 888 q 644 425 851 650 l 644 425 q 615 333 615 392 l 615 333 q 628 253 615 293 q 663 183 642 213 l 663 183 q 692 150 678 163 q 728 122 707 138 l 728 122 q 760 92 750 106 q 769 54 769 79 l 769 54 q 747 10 769 26 q 685 -7 724 -7 l 685 -7 q 608 -1 667 -7 l 608 -1 q 518 4 544 4 l 518 4 q 433 -1 494 4 l 433 -1 q 351 -7 375 -7 l 351 -7 z "},"Ý":{"ha":1011,"x_min":-28,"x_max":1025,"o":"m 351 -7 q 290 10 313 -7 q 267 54 267 26 l 267 54 q 276 92 267 79 q 308 122 286 106 l 308 122 q 344 150 329 138 q 374 183 358 163 l 374 183 q 394 209 379 190 q 412 246 408 228 q 415 297 415 264 l 415 297 q 380 424 415 347 q 274 626 344 501 l 274 626 q 183 744 229 706 q 72 815 136 782 l 72 815 q 14 849 35 833 q -19 889 -7 864 l -19 889 q -28 924 -28 906 l -28 924 q 4 994 -28 957 l 4 994 q 169 1057 61 1057 l 169 1057 q 345 940 250 1057 q 549 563 440 822 l 549 563 q 564 546 556 546 l 564 546 q 582 560 572 546 l 582 560 q 677 713 643 640 q 744 879 711 785 l 744 879 q 788 983 774 957 l 788 983 q 840 1041 810 1024 q 907 1058 869 1058 l 907 1058 q 991 1031 957 1058 q 1025 951 1025 1003 l 1025 951 q 938 769 1025 888 q 644 425 851 650 l 644 425 q 615 333 615 392 l 615 333 q 628 253 615 293 q 663 183 642 213 l 663 183 q 692 150 678 163 q 728 122 707 138 l 728 122 q 760 92 750 106 q 769 54 769 79 l 769 54 q 747 10 769 26 q 685 -7 724 -7 l 685 -7 q 608 -1 667 -7 l 608 -1 q 518 4 544 4 l 518 4 q 433 -1 494 4 l 433 -1 q 351 -7 375 -7 l 351 -7 z m 399 1086 q 396 1099 396 1090 l 396 1099 q 430 1172 396 1125 q 512 1263 464 1218 q 594 1328 560 1308 l 594 1328 q 664 1349 632 1349 l 664 1349 q 744 1306 717 1349 l 744 1306 q 761 1253 761 1281 l 761 1253 q 748 1206 761 1228 q 708 1167 735 1183 l 708 1167 q 573 1105 660 1136 q 436 1074 486 1074 l 436 1074 q 399 1086 407 1074 l 399 1086 z "},"Ŷ":{"ha":1011,"x_min":-28,"x_max":1025,"o":"m 351 -7 q 290 10 313 -7 q 267 54 267 26 l 267 54 q 276 92 267 79 q 308 122 286 106 l 308 122 q 344 150 329 138 q 374 183 358 163 l 374 183 q 394 209 379 190 q 412 246 408 228 q 415 297 415 264 l 415 297 q 380 424 415 347 q 274 626 344 501 l 274 626 q 183 744 229 706 q 72 815 136 782 l 72 815 q 14 849 35 833 q -19 889 -7 864 l -19 889 q -28 924 -28 906 l -28 924 q 4 994 -28 957 l 4 994 q 169 1057 61 1057 l 169 1057 q 345 940 250 1057 q 549 563 440 822 l 549 563 q 564 546 556 546 l 564 546 q 582 560 572 546 l 582 560 q 677 713 643 640 q 744 879 711 785 l 744 879 q 788 983 774 957 l 788 983 q 840 1041 810 1024 q 907 1058 869 1058 l 907 1058 q 991 1031 957 1058 q 1025 951 1025 1003 l 1025 951 q 938 769 1025 888 q 644 425 851 650 l 644 425 q 615 333 615 392 l 615 333 q 628 253 615 293 q 663 183 642 213 l 663 183 q 692 150 678 163 q 728 122 707 138 l 728 122 q 760 92 750 106 q 769 54 769 79 l 769 54 q 747 10 769 26 q 685 -7 724 -7 l 685 -7 q 608 -1 667 -7 l 608 -1 q 518 4 544 4 l 518 4 q 433 -1 494 4 l 433 -1 q 351 -7 375 -7 l 351 -7 z m 293 1106 q 285 1129 285 1117 l 285 1129 q 317 1190 285 1157 l 317 1190 l 465 1346 q 506 1385 490 1374 q 538 1397 522 1397 l 538 1397 q 567 1385 551 1397 q 611 1346 583 1374 l 611 1346 l 758 1199 q 797 1132 797 1160 l 797 1132 q 785 1104 797 1117 l 785 1104 q 761 1096 776 1096 l 761 1096 q 678 1136 732 1096 l 678 1136 q 594 1190 632 1171 q 535 1208 557 1208 l 535 1208 q 386 1126 493 1208 l 386 1126 q 317 1096 347 1096 l 317 1096 q 293 1106 301 1096 l 293 1106 z "},"Ÿ":{"ha":1011,"x_min":-28,"x_max":1025,"o":"m 351 -7 q 290 10 313 -7 q 267 54 267 26 l 267 54 q 276 92 267 79 q 308 122 286 106 l 308 122 q 344 150 329 138 q 374 183 358 163 l 374 183 q 394 209 379 190 q 412 246 408 228 q 415 297 415 264 l 415 297 q 380 424 415 347 q 274 626 344 501 l 274 626 q 183 744 229 706 q 72 815 136 782 l 72 815 q 14 849 35 833 q -19 889 -7 864 l -19 889 q -28 924 -28 906 l -28 924 q 4 994 -28 957 l 4 994 q 169 1057 61 1057 l 169 1057 q 345 940 250 1057 q 549 563 440 822 l 549 563 q 564 546 556 546 l 564 546 q 582 560 572 546 l 582 560 q 677 713 643 640 q 744 879 711 785 l 744 879 q 788 983 774 957 l 788 983 q 840 1041 810 1024 q 907 1058 869 1058 l 907 1058 q 991 1031 957 1058 q 1025 951 1025 1003 l 1025 951 q 938 769 1025 888 q 644 425 851 650 l 644 425 q 615 333 615 392 l 615 333 q 628 253 615 293 q 663 183 642 213 l 663 183 q 692 150 678 163 q 728 122 707 138 l 728 122 q 760 92 750 106 q 769 54 769 79 l 769 54 q 747 10 769 26 q 685 -7 724 -7 l 685 -7 q 608 -1 667 -7 l 608 -1 q 518 4 544 4 l 518 4 q 433 -1 494 4 l 433 -1 q 351 -7 375 -7 l 351 -7 z m 711 1110 q 631 1143 664 1110 q 597 1224 597 1176 l 597 1224 q 631 1303 597 1269 q 711 1336 664 1336 l 711 1336 q 791 1303 758 1336 q 824 1224 824 1269 l 824 1224 q 791 1143 824 1176 q 711 1110 758 1110 l 711 1110 z m 374 1110 q 293 1143 326 1110 q 260 1224 260 1176 l 260 1224 q 293 1303 260 1269 q 374 1336 326 1336 l 374 1336 q 453 1303 421 1336 q 486 1224 486 1269 l 486 1224 q 453 1143 486 1176 q 374 1110 421 1110 l 374 1110 z "}}}
